<svg width="300" height="300" viewBox="-150 -150 300 300" fill="none" stroke="black" xmlns="http://www.w3.org/2000/svg" xmlns:xlink="http://www.w3.org/1999/xlink">
<g transform="scale(1 -1)">
  <g>
    <g transform="translate(0 75) scale(1 0.5)">
      <g transform="translate(-75 0) scale(0.5 1)">
        <g transform="translate(0 75) scale(1 0.5)">
          <g transform="translate(-75 0) scale(0.5 1)">
            <defs>
              <circle cx="0" cy="0" r="100" id="s-28-WsUV" />
            </defs>
            <g>
              <use xlink:href="#s-28-WsUV" />
              <g transform="scale(0.75 0.75)">
                <use xlink:href="#s-28-WsUV" />
                <g transform="scale(0.75 0.75)">
                  <use xlink:href="#s-28-WsUV" />
                  <use xlink:href="#s-28-WsUV" transform="scale(0.75 0.75)" />
                </g>
              </g>
            </g>
          </g>
          <g transform="translate(75 0) scale(0.5 1)">
            <defs>
              <circle cx="0" cy="0" r="100" id="s-29-WsUV" />
            </defs>
            <g>
              <use xlink:href="#s-29-WsUV" />
              <g transform="scale(0.75 0.75)">
                <use xlink:href="#s-29-WsUV" />
                <g transform="scale(0.75 0.75)">
                  <use xlink:href="#s-29-WsUV" />
                  <use xlink:href="#s-29-WsUV" transform="scale(0.75 0.75)" />
                </g>
              </g>
            </g>
          </g>
        </g>
        <g transform="translate(0 -75) scale(1 0.5)">
          <g transform="translate(-75 0) scale(0.5 1)">
            <defs>
              <circle cx="0" cy="0" r="100" id="s-30-WsUV" />
            </defs>
            <g>
              <use xlink:href="#s-30-WsUV" />
              <g transform="scale(0.75 0.75)">
                <use xlink:href="#s-30-WsUV" />
                <g transform="scale(0.75 0.75)">
                  <use xlink:href="#s-30-WsUV" />
                  <use xlink:href="#s-30-WsUV" transform="scale(0.75 0.75)" />
                </g>
              </g>
            </g>
          </g>
          <g transform="translate(75 0) scale(0.5 1)">
            <defs>
              <circle cx="0" cy="0" r="100" id="s-31-WsUV" />
            </defs>
            <g>
              <use xlink:href="#s-31-WsUV" />
              <g transform="scale(0.75 0.75)">
                <use xlink:href="#s-31-WsUV" />
                <g transform="scale(0.75 0.75)">
                  <use xlink:href="#s-31-WsUV" />
                  <use xlink:href="#s-31-WsUV" transform="scale(0.75 0.75)" />
                </g>
              </g>
            </g>
          </g>
        </g>
      </g>
      <g transform="translate(75 0) scale(0.5 1)">
        <g transform="translate(0 75) scale(1 0.5)">
          <g transform="translate(-75 0) scale(0.5 1)">
            <defs>
              <circle cx="0" cy="0" r="100" id="s-32-WsUV" />
            </defs>
            <g>
              <use xlink:href="#s-32-WsUV" />
              <g transform="scale(0.75 0.75)">
                <use xlink:href="#s-32-WsUV" />
                <g transform="scale(0.75 0.75)">
                  <use xlink:href="#s-32-WsUV" />
                  <use xlink:href="#s-32-WsUV" transform="scale(0.75 0.75)" />
                </g>
              </g>
            </g>
          </g>
          <g transform="translate(75 0) scale(0.5 1)">
            <defs>
              <circle cx="0" cy="0" r="100" id="s-33-WsUV" />
            </defs>
            <g>
              <use xlink:href="#s-33-WsUV" />
              <g transform="scale(0.75 0.75)">
                <use xlink:href="#s-33-WsUV" />
                <g transform="scale(0.75 0.75)">
                  <use xlink:href="#s-33-WsUV" />
                  <use xlink:href="#s-33-WsUV" transform="scale(0.75 0.75)" />
                </g>
              </g>
            </g>
          </g>
        </g>
        <g transform="translate(0 -75) scale(1 0.5)">
          <g transform="translate(-75 0) scale(0.5 1)">
            <defs>
              <circle cx="0" cy="0" r="100" id="s-34-WsUV" />
            </defs>
            <g>
              <use xlink:href="#s-34-WsUV" />
              <g transform="scale(0.75 0.75)">
                <use xlink:href="#s-34-WsUV" />
                <g transform="scale(0.75 0.75)">
                  <use xlink:href="#s-34-WsUV" />
                  <use xlink:href="#s-34-WsUV" transform="scale(0.75 0.75)" />
                </g>
              </g>
            </g>
          </g>
          <g transform="translate(75 0) scale(0.5 1)">
            <defs>
              <circle cx="0" cy="0" r="100" id="s-35-WsUV" />
            </defs>
            <g>
              <use xlink:href="#s-35-WsUV" />
              <g transform="scale(0.75 0.75)">
                <use xlink:href="#s-35-WsUV" />
                <g transform="scale(0.75 0.75)">
                  <use xlink:href="#s-35-WsUV" />
                  <use xlink:href="#s-35-WsUV" transform="scale(0.75 0.75)" />
                </g>
              </g>
            </g>
          </g>
        </g>
      </g>
    </g>
    <g transform="translate(0 -75) scale(1 0.5)">
      <g transform="translate(-75 0) scale(0.5 1)">
        <g transform="translate(0 75) scale(1 0.5)">
          <g transform="translate(-75 0) scale(0.5 1)">
            <defs>
              <circle cx="0" cy="0" r="100" id="s-36-WsUV" />
            </defs>
            <g>
              <use xlink:href="#s-36-WsUV" />
              <g transform="scale(0.75 0.75)">
                <use xlink:href="#s-36-WsUV" />
                <g transform="scale(0.75 0.75)">
                  <use xlink:href="#s-36-WsUV" />
                  <use xlink:href="#s-36-WsUV" transform="scale(0.75 0.75)" />
                </g>
              </g>
            </g>
          </g>
          <g transform="translate(75 0) scale(0.5 1)">
            <defs>
              <circle cx="0" cy="0" r="100" id="s-37-WsUV" />
            </defs>
            <g>
              <use xlink:href="#s-37-WsUV" />
              <g transform="scale(0.75 0.75)">
                <use xlink:href="#s-37-WsUV" />
                <g transform="scale(0.75 0.75)">
                  <use xlink:href="#s-37-WsUV" />
                  <use xlink:href="#s-37-WsUV" transform="scale(0.75 0.75)" />
                </g>
              </g>
            </g>
          </g>
        </g>
        <g transform="translate(0 -75) scale(1 0.5)">
          <g transform="translate(-75 0) scale(0.5 1)">
            <defs>
              <circle cx="0" cy="0" r="100" id="s-38-WsUV" />
            </defs>
            <g>
              <use xlink:href="#s-38-WsUV" />
              <g transform="scale(0.75 0.75)">
                <use xlink:href="#s-38-WsUV" />
                <g transform="scale(0.75 0.75)">
                  <use xlink:href="#s-38-WsUV" />
                  <use xlink:href="#s-38-WsUV" transform="scale(0.75 0.75)" />
                </g>
              </g>
            </g>
          </g>
          <g transform="translate(75 0) scale(0.5 1)">
            <defs>
              <circle cx="0" cy="0" r="100" id="s-39-WsUV" />
            </defs>
            <g>
              <use xlink:href="#s-39-WsUV" />
              <g transform="scale(0.75 0.75)">
                <use xlink:href="#s-39-WsUV" />
                <g transform="scale(0.75 0.75)">
                  <use xlink:href="#s-39-WsUV" />
                  <use xlink:href="#s-39-WsUV" transform="scale(0.75 0.75)" />
                </g>
              </g>
            </g>
          </g>
        </g>
      </g>
      <g transform="translate(75 0) scale(0.5 1)">
        <g transform="translate(0 75) scale(1 0.5)">
          <g transform="translate(-75 0) scale(0.5 1)">
            <defs>
              <circle cx="0" cy="0" r="100" id="s-40-WsUV" />
            </defs>
            <g>
              <use xlink:href="#s-40-WsUV" />
              <g transform="scale(0.75 0.75)">
                <use xlink:href="#s-40-WsUV" />
                <g transform="scale(0.75 0.75)">
                  <use xlink:href="#s-40-WsUV" />
                  <use xlink:href="#s-40-WsUV" transform="scale(0.75 0.75)" />
                </g>
              </g>
            </g>
          </g>
          <g transform="translate(75 0) scale(0.5 1)">
            <defs>
              <circle cx="0" cy="0" r="100" id="s-41-WsUV" />
            </defs>
            <g>
              <use xlink:href="#s-41-WsUV" />
              <g transform="scale(0.75 0.75)">
                <use xlink:href="#s-41-WsUV" />
                <g transform="scale(0.75 0.75)">
                  <use xlink:href="#s-41-WsUV" />
                  <use xlink:href="#s-41-WsUV" transform="scale(0.75 0.75)" />
                </g>
              </g>
            </g>
          </g>
        </g>
        <g transform="translate(0 -75) scale(1 0.5)">
          <g transform="translate(-75 0) scale(0.5 1)">
            <defs>
              <circle cx="0" cy="0" r="100" id="s-42-WsUV" />
            </defs>
            <g>
              <use xlink:href="#s-42-WsUV" />
              <g transform="scale(0.75 0.75)">
                <use xlink:href="#s-42-WsUV" />
                <g transform="scale(0.75 0.75)">
                  <use xlink:href="#s-42-WsUV" />
                  <use xlink:href="#s-42-WsUV" transform="scale(0.75 0.75)" />
                </g>
              </g>
            </g>
          </g>
          <g transform="translate(75 0) scale(0.5 1)">
            <defs>
              <circle cx="0" cy="0" r="100" id="s-43-WsUV" />
            </defs>
            <g>
              <use xlink:href="#s-43-WsUV" />
              <g transform="scale(0.75 0.75)">
                <use xlink:href="#s-43-WsUV" />
                <g transform="scale(0.75 0.75)">
                  <use xlink:href="#s-43-WsUV" />
                  <use xlink:href="#s-43-WsUV" transform="scale(0.75 0.75)" />
                </g>
              </g>
            </g>
          </g>
        </g>
      </g>
    </g>
  </g>
</g>
</svg>
