<svg width="300" height="300" viewBox="-150 -150 300 300" fill="none" stroke="black" xmlns="http://www.w3.org/2000/svg" xmlns:xlink="http://www.w3.org/1999/xlink">
<g transform="scale(1 -1)">
  <g>
    <rect x="-99.01825845067944" y="-99.01825845067944" width="198.03651690135888" height="198.03651690135888" />
    <rect x="-7.208173777578056" y="-7.208173777578056" width="14.416347555156111" height="14.416347555156111" />
    <rect x="-20.859945424977973" y="-20.859945424977973" width="41.719890849955945" height="41.719890849955945" />
    <rect x="-54.16063556458405" y="-54.16063556458405" width="108.3212711291681" height="108.3212711291681" />
    <rect x="-17.150420331514315" y="-17.150420331514315" width="34.30084066302863" height="34.30084066302863" />
    <rect x="-12.472182722903652" y="-12.472182722903652" width="24.944365445807303" height="24.944365445807303" />
    <rect x="-101.1582333472551" y="-101.1582333472551" width="202.3164666945102" height="202.3164666945102" />
    <rect x="-9.826174553574763" y="-9.826174553574763" width="19.652349107149526" height="19.652349107149526" />
    <rect x="-95.46629641546888" y="-95.46629641546888" width="190.93259283093775" height="190.93259283093775" />
    <rect x="-19.585006882704175" y="-19.585006882704175" width="39.17001376540835" height="39.17001376540835" />
    <rect x="-117.26061860999384" y="-117.26061860999384" width="234.52123721998768" height="234.52123721998768" />
    <rect x="-98.25921750817278" y="-98.25921750817278" width="196.51843501634556" height="196.51843501634556" />
    <rect x="-99.9337522343409" y="-99.9337522343409" width="199.8675044686818" height="199.8675044686818" />
    <rect x="-45.88253455661943" y="-45.88253455661943" width="91.76506911323887" height="91.76506911323887" />
    <rect x="-49.19754048788169" y="-49.19754048788169" width="98.39508097576338" height="98.39508097576338" />
  </g>
</g>
</svg>
