<svg width="300" height="300" viewBox="-150 -150 300 300" fill="none" stroke="black" xmlns="http://www.w3.org/2000/svg" xmlns:xlink="http://www.w3.org/1999/xlink">
<g transform="scale(1 -1)">
  <g>
    <rect x="-106.13452205948803" y="-106.13452205948803" width="212.26904411897607" height="212.26904411897607" />
    <rect x="-84.43874235870813" y="-84.43874235870813" width="168.87748471741625" height="168.87748471741625" />
    <rect x="-28.62411757939541" y="-28.62411757939541" width="57.24823515879082" height="57.24823515879082" />
    <rect x="-58.0748773624972" y="-58.0748773624972" width="116.1497547249944" height="116.1497547249944" />
    <rect x="-23.927019421457" y="-23.927019421457" width="47.854038842914" height="47.854038842914" />
    <rect x="-75.90755979316434" y="-75.90755979316434" width="151.81511958632868" height="151.81511958632868" />
    <rect x="-120.27174803526533" y="-120.27174803526533" width="240.54349607053067" height="240.54349607053067" />
    <rect x="-16.499324468121802" y="-16.499324468121802" width="32.998648936243605" height="32.998648936243605" />
    <rect x="-93.91764212577401" y="-93.91764212577401" width="187.83528425154802" height="187.83528425154802" />
    <rect x="-100.7751873020728" y="-100.7751873020728" width="201.5503746041456" height="201.5503746041456" />
    <rect x="-39.5216355626318" y="-39.5216355626318" width="79.0432711252636" height="79.0432711252636" />
    <rect x="-28.412851580515998" y="-28.412851580515998" width="56.825703161031996" height="56.825703161031996" />
    <rect x="-73.09873392658231" y="-73.09873392658231" width="146.19746785316462" height="146.19746785316462" />
    <rect x="-116.74063384491086" y="-116.74063384491086" width="233.48126768982172" height="233.48126768982172" />
    <rect x="-87.53924264284643" y="-87.53924264284643" width="175.07848528569286" height="175.07848528569286" />
  </g>
</g>
</svg>
