<svg width="300" height="300" viewBox="-150 -150 300 300" fill="none" stroke="black" xmlns="http://www.w3.org/2000/svg" xmlns:xlink="http://www.w3.org/1999/xlink">
<g transform="scale(1 -1)">
  <g>
    <g transform="translate(-135.0 -135.0) translate(0 -15.0)">
      <circle cx="0" cy="3.0" r="3.0" />
      <circle cx="0" cy="6.0" r="6.0" />
      <circle cx="0" cy="9.0" r="9.0" />
      <circle cx="0" cy="12.0" r="12.0" />
      <circle cx="0" cy="15.0" r="15.0" />
    </g>
    <g transform="translate(-105.0 -135.0) translate(0 -15.0)">
      <circle cx="0" cy="3.0" r="3.0" />
      <circle cx="0" cy="6.0" r="6.0" />
      <circle cx="0" cy="9.0" r="9.0" />
      <circle cx="0" cy="12.0" r="12.0" />
      <circle cx="0" cy="15.0" r="15.0" />
    </g>
    <g transform="translate(-75.0 -135.0) translate(0 -15.0)">
      <circle cx="0" cy="3.0" r="3.0" />
      <circle cx="0" cy="6.0" r="6.0" />
      <circle cx="0" cy="9.0" r="9.0" />
      <circle cx="0" cy="12.0" r="12.0" />
      <circle cx="0" cy="15.0" r="15.0" />
    </g>
    <g transform="translate(-45.0 -135.0) translate(0 -15.0)">
      <circle cx="0" cy="3.0" r="3.0" />
      <circle cx="0" cy="6.0" r="6.0" />
      <circle cx="0" cy="9.0" r="9.0" />
      <circle cx="0" cy="12.0" r="12.0" />
      <circle cx="0" cy="15.0" r="15.0" />
    </g>
    <g transform="translate(-15.0 -135.0) translate(0 -15.0)">
      <circle cx="0" cy="3.0" r="3.0" />
      <circle cx="0" cy="6.0" r="6.0" />
      <circle cx="0" cy="9.0" r="9.0" />
      <circle cx="0" cy="12.0" r="12.0" />
      <circle cx="0" cy="15.0" r="15.0" />
    </g>
    <g transform="translate(15.0 -135.0) translate(0 -15.0)">
      <circle cx="0" cy="3.0" r="3.0" />
      <circle cx="0" cy="6.0" r="6.0" />
      <circle cx="0" cy="9.0" r="9.0" />
      <circle cx="0" cy="12.0" r="12.0" />
      <circle cx="0" cy="15.0" r="15.0" />
    </g>
    <g transform="translate(45.0 -135.0) translate(0 -15.0)">
      <circle cx="0" cy="3.0" r="3.0" />
      <circle cx="0" cy="6.0" r="6.0" />
      <circle cx="0" cy="9.0" r="9.0" />
      <circle cx="0" cy="12.0" r="12.0" />
      <circle cx="0" cy="15.0" r="15.0" />
    </g>
    <g transform="translate(75.0 -135.0) translate(0 -15.0)">
      <circle cx="0" cy="3.0" r="3.0" />
      <circle cx="0" cy="6.0" r="6.0" />
      <circle cx="0" cy="9.0" r="9.0" />
      <circle cx="0" cy="12.0" r="12.0" />
      <circle cx="0" cy="15.0" r="15.0" />
    </g>
    <g transform="translate(105.0 -135.0) translate(0 -15.0)">
      <circle cx="0" cy="3.0" r="3.0" />
      <circle cx="0" cy="6.0" r="6.0" />
      <circle cx="0" cy="9.0" r="9.0" />
      <circle cx="0" cy="12.0" r="12.0" />
      <circle cx="0" cy="15.0" r="15.0" />
    </g>
    <g transform="translate(135.0 -135.0) translate(0 -15.0)">
      <circle cx="0" cy="3.0" r="3.0" />
      <circle cx="0" cy="6.0" r="6.0" />
      <circle cx="0" cy="9.0" r="9.0" />
      <circle cx="0" cy="12.0" r="12.0" />
      <circle cx="0" cy="15.0" r="15.0" />
    </g>
    <g transform="translate(-135.0 -105.0) translate(0 -15.0)">
      <circle cx="0" cy="3.0" r="3.0" />
      <circle cx="0" cy="6.0" r="6.0" />
      <circle cx="0" cy="9.0" r="9.0" />
      <circle cx="0" cy="12.0" r="12.0" />
      <circle cx="0" cy="15.0" r="15.0" />
    </g>
    <g transform="translate(-105.0 -105.0) translate(0 -15.0)">
      <circle cx="0" cy="3.0" r="3.0" />
      <circle cx="0" cy="6.0" r="6.0" />
      <circle cx="0" cy="9.0" r="9.0" />
      <circle cx="0" cy="12.0" r="12.0" />
      <circle cx="0" cy="15.0" r="15.0" />
    </g>
    <g transform="translate(-75.0 -105.0) translate(0 -15.0)">
      <circle cx="0" cy="3.0" r="3.0" />
      <circle cx="0" cy="6.0" r="6.0" />
      <circle cx="0" cy="9.0" r="9.0" />
      <circle cx="0" cy="12.0" r="12.0" />
      <circle cx="0" cy="15.0" r="15.0" />
    </g>
    <g transform="translate(-45.0 -105.0) translate(0 -15.0)">
      <circle cx="0" cy="3.0" r="3.0" />
      <circle cx="0" cy="6.0" r="6.0" />
      <circle cx="0" cy="9.0" r="9.0" />
      <circle cx="0" cy="12.0" r="12.0" />
      <circle cx="0" cy="15.0" r="15.0" />
    </g>
    <g transform="translate(-15.0 -105.0) translate(0 -15.0)">
      <circle cx="0" cy="3.0" r="3.0" />
      <circle cx="0" cy="6.0" r="6.0" />
      <circle cx="0" cy="9.0" r="9.0" />
      <circle cx="0" cy="12.0" r="12.0" />
      <circle cx="0" cy="15.0" r="15.0" />
    </g>
    <g transform="translate(15.0 -105.0) translate(0 -15.0)">
      <circle cx="0" cy="3.0" r="3.0" />
      <circle cx="0" cy="6.0" r="6.0" />
      <circle cx="0" cy="9.0" r="9.0" />
      <circle cx="0" cy="12.0" r="12.0" />
      <circle cx="0" cy="15.0" r="15.0" />
    </g>
    <g transform="translate(45.0 -105.0) translate(0 -15.0)">
      <circle cx="0" cy="3.0" r="3.0" />
      <circle cx="0" cy="6.0" r="6.0" />
      <circle cx="0" cy="9.0" r="9.0" />
      <circle cx="0" cy="12.0" r="12.0" />
      <circle cx="0" cy="15.0" r="15.0" />
    </g>
    <g transform="translate(75.0 -105.0) translate(0 -15.0)">
      <circle cx="0" cy="3.0" r="3.0" />
      <circle cx="0" cy="6.0" r="6.0" />
      <circle cx="0" cy="9.0" r="9.0" />
      <circle cx="0" cy="12.0" r="12.0" />
      <circle cx="0" cy="15.0" r="15.0" />
    </g>
    <g transform="translate(105.0 -105.0) translate(0 -15.0)">
      <circle cx="0" cy="3.0" r="3.0" />
      <circle cx="0" cy="6.0" r="6.0" />
      <circle cx="0" cy="9.0" r="9.0" />
      <circle cx="0" cy="12.0" r="12.0" />
      <circle cx="0" cy="15.0" r="15.0" />
    </g>
    <g transform="translate(135.0 -105.0) translate(0 -15.0)">
      <circle cx="0" cy="3.0" r="3.0" />
      <circle cx="0" cy="6.0" r="6.0" />
      <circle cx="0" cy="9.0" r="9.0" />
      <circle cx="0" cy="12.0" r="12.0" />
      <circle cx="0" cy="15.0" r="15.0" />
    </g>
    <g transform="translate(-135.0 -75.0) translate(0 -15.0)">
      <circle cx="0" cy="3.0" r="3.0" />
      <circle cx="0" cy="6.0" r="6.0" />
      <circle cx="0" cy="9.0" r="9.0" />
      <circle cx="0" cy="12.0" r="12.0" />
      <circle cx="0" cy="15.0" r="15.0" />
    </g>
    <g transform="translate(-105.0 -75.0) translate(0 -15.0)">
      <circle cx="0" cy="3.0" r="3.0" />
      <circle cx="0" cy="6.0" r="6.0" />
      <circle cx="0" cy="9.0" r="9.0" />
      <circle cx="0" cy="12.0" r="12.0" />
      <circle cx="0" cy="15.0" r="15.0" />
    </g>
    <g transform="translate(-75.0 -75.0) translate(0 -15.0)">
      <circle cx="0" cy="3.0" r="3.0" />
      <circle cx="0" cy="6.0" r="6.0" />
      <circle cx="0" cy="9.0" r="9.0" />
      <circle cx="0" cy="12.0" r="12.0" />
      <circle cx="0" cy="15.0" r="15.0" />
    </g>
    <g transform="translate(-45.0 -75.0) translate(0 -15.0)">
      <circle cx="0" cy="3.0" r="3.0" />
      <circle cx="0" cy="6.0" r="6.0" />
      <circle cx="0" cy="9.0" r="9.0" />
      <circle cx="0" cy="12.0" r="12.0" />
      <circle cx="0" cy="15.0" r="15.0" />
    </g>
    <g transform="translate(-15.0 -75.0) translate(0 -15.0)">
      <circle cx="0" cy="3.0" r="3.0" />
      <circle cx="0" cy="6.0" r="6.0" />
      <circle cx="0" cy="9.0" r="9.0" />
      <circle cx="0" cy="12.0" r="12.0" />
      <circle cx="0" cy="15.0" r="15.0" />
    </g>
    <g transform="translate(15.0 -75.0) translate(0 -15.0)">
      <circle cx="0" cy="3.0" r="3.0" />
      <circle cx="0" cy="6.0" r="6.0" />
      <circle cx="0" cy="9.0" r="9.0" />
      <circle cx="0" cy="12.0" r="12.0" />
      <circle cx="0" cy="15.0" r="15.0" />
    </g>
    <g transform="translate(45.0 -75.0) translate(0 -15.0)">
      <circle cx="0" cy="3.0" r="3.0" />
      <circle cx="0" cy="6.0" r="6.0" />
      <circle cx="0" cy="9.0" r="9.0" />
      <circle cx="0" cy="12.0" r="12.0" />
      <circle cx="0" cy="15.0" r="15.0" />
    </g>
    <g transform="translate(75.0 -75.0) translate(0 -15.0)">
      <circle cx="0" cy="3.0" r="3.0" />
      <circle cx="0" cy="6.0" r="6.0" />
      <circle cx="0" cy="9.0" r="9.0" />
      <circle cx="0" cy="12.0" r="12.0" />
      <circle cx="0" cy="15.0" r="15.0" />
    </g>
    <g transform="translate(105.0 -75.0) translate(0 -15.0)">
      <circle cx="0" cy="3.0" r="3.0" />
      <circle cx="0" cy="6.0" r="6.0" />
      <circle cx="0" cy="9.0" r="9.0" />
      <circle cx="0" cy="12.0" r="12.0" />
      <circle cx="0" cy="15.0" r="15.0" />
    </g>
    <g transform="translate(135.0 -75.0) translate(0 -15.0)">
      <circle cx="0" cy="3.0" r="3.0" />
      <circle cx="0" cy="6.0" r="6.0" />
      <circle cx="0" cy="9.0" r="9.0" />
      <circle cx="0" cy="12.0" r="12.0" />
      <circle cx="0" cy="15.0" r="15.0" />
    </g>
    <g transform="translate(-135.0 -45.0) translate(0 -15.0)">
      <circle cx="0" cy="3.0" r="3.0" />
      <circle cx="0" cy="6.0" r="6.0" />
      <circle cx="0" cy="9.0" r="9.0" />
      <circle cx="0" cy="12.0" r="12.0" />
      <circle cx="0" cy="15.0" r="15.0" />
    </g>
    <g transform="translate(-105.0 -45.0) translate(0 -15.0)">
      <circle cx="0" cy="3.0" r="3.0" />
      <circle cx="0" cy="6.0" r="6.0" />
      <circle cx="0" cy="9.0" r="9.0" />
      <circle cx="0" cy="12.0" r="12.0" />
      <circle cx="0" cy="15.0" r="15.0" />
    </g>
    <g transform="translate(-75.0 -45.0) translate(0 -15.0)">
      <circle cx="0" cy="3.0" r="3.0" />
      <circle cx="0" cy="6.0" r="6.0" />
      <circle cx="0" cy="9.0" r="9.0" />
      <circle cx="0" cy="12.0" r="12.0" />
      <circle cx="0" cy="15.0" r="15.0" />
    </g>
    <g transform="translate(-45.0 -45.0) translate(0 -15.0)">
      <circle cx="0" cy="3.0" r="3.0" />
      <circle cx="0" cy="6.0" r="6.0" />
      <circle cx="0" cy="9.0" r="9.0" />
      <circle cx="0" cy="12.0" r="12.0" />
      <circle cx="0" cy="15.0" r="15.0" />
    </g>
    <g transform="translate(-15.0 -45.0) translate(0 -15.0)">
      <circle cx="0" cy="3.0" r="3.0" />
      <circle cx="0" cy="6.0" r="6.0" />
      <circle cx="0" cy="9.0" r="9.0" />
      <circle cx="0" cy="12.0" r="12.0" />
      <circle cx="0" cy="15.0" r="15.0" />
    </g>
    <g transform="translate(15.0 -45.0) translate(0 -15.0)">
      <circle cx="0" cy="3.0" r="3.0" />
      <circle cx="0" cy="6.0" r="6.0" />
      <circle cx="0" cy="9.0" r="9.0" />
      <circle cx="0" cy="12.0" r="12.0" />
      <circle cx="0" cy="15.0" r="15.0" />
    </g>
    <g transform="translate(45.0 -45.0) translate(0 -15.0)">
      <circle cx="0" cy="3.0" r="3.0" />
      <circle cx="0" cy="6.0" r="6.0" />
      <circle cx="0" cy="9.0" r="9.0" />
      <circle cx="0" cy="12.0" r="12.0" />
      <circle cx="0" cy="15.0" r="15.0" />
    </g>
    <g transform="translate(75.0 -45.0) translate(0 -15.0)">
      <circle cx="0" cy="3.0" r="3.0" />
      <circle cx="0" cy="6.0" r="6.0" />
      <circle cx="0" cy="9.0" r="9.0" />
      <circle cx="0" cy="12.0" r="12.0" />
      <circle cx="0" cy="15.0" r="15.0" />
    </g>
    <g transform="translate(105.0 -45.0) translate(0 -15.0)">
      <circle cx="0" cy="3.0" r="3.0" />
      <circle cx="0" cy="6.0" r="6.0" />
      <circle cx="0" cy="9.0" r="9.0" />
      <circle cx="0" cy="12.0" r="12.0" />
      <circle cx="0" cy="15.0" r="15.0" />
    </g>
    <g transform="translate(135.0 -45.0) translate(0 -15.0)">
      <circle cx="0" cy="3.0" r="3.0" />
      <circle cx="0" cy="6.0" r="6.0" />
      <circle cx="0" cy="9.0" r="9.0" />
      <circle cx="0" cy="12.0" r="12.0" />
      <circle cx="0" cy="15.0" r="15.0" />
    </g>
    <g transform="translate(-135.0 -15.0) translate(0 -15.0)">
      <circle cx="0" cy="3.0" r="3.0" />
      <circle cx="0" cy="6.0" r="6.0" />
      <circle cx="0" cy="9.0" r="9.0" />
      <circle cx="0" cy="12.0" r="12.0" />
      <circle cx="0" cy="15.0" r="15.0" />
    </g>
    <g transform="translate(-105.0 -15.0) translate(0 -15.0)">
      <circle cx="0" cy="3.0" r="3.0" />
      <circle cx="0" cy="6.0" r="6.0" />
      <circle cx="0" cy="9.0" r="9.0" />
      <circle cx="0" cy="12.0" r="12.0" />
      <circle cx="0" cy="15.0" r="15.0" />
    </g>
    <g transform="translate(-75.0 -15.0) translate(0 -15.0)">
      <circle cx="0" cy="3.0" r="3.0" />
      <circle cx="0" cy="6.0" r="6.0" />
      <circle cx="0" cy="9.0" r="9.0" />
      <circle cx="0" cy="12.0" r="12.0" />
      <circle cx="0" cy="15.0" r="15.0" />
    </g>
    <g transform="translate(-45.0 -15.0) translate(0 -15.0)">
      <circle cx="0" cy="3.0" r="3.0" />
      <circle cx="0" cy="6.0" r="6.0" />
      <circle cx="0" cy="9.0" r="9.0" />
      <circle cx="0" cy="12.0" r="12.0" />
      <circle cx="0" cy="15.0" r="15.0" />
    </g>
    <g transform="translate(-15.0 -15.0) translate(0 -15.0)">
      <circle cx="0" cy="3.0" r="3.0" />
      <circle cx="0" cy="6.0" r="6.0" />
      <circle cx="0" cy="9.0" r="9.0" />
      <circle cx="0" cy="12.0" r="12.0" />
      <circle cx="0" cy="15.0" r="15.0" />
    </g>
    <g transform="translate(15.0 -15.0) translate(0 -15.0)">
      <circle cx="0" cy="3.0" r="3.0" />
      <circle cx="0" cy="6.0" r="6.0" />
      <circle cx="0" cy="9.0" r="9.0" />
      <circle cx="0" cy="12.0" r="12.0" />
      <circle cx="0" cy="15.0" r="15.0" />
    </g>
    <g transform="translate(45.0 -15.0) translate(0 -15.0)">
      <circle cx="0" cy="3.0" r="3.0" />
      <circle cx="0" cy="6.0" r="6.0" />
      <circle cx="0" cy="9.0" r="9.0" />
      <circle cx="0" cy="12.0" r="12.0" />
      <circle cx="0" cy="15.0" r="15.0" />
    </g>
    <g transform="translate(75.0 -15.0) translate(0 -15.0)">
      <circle cx="0" cy="3.0" r="3.0" />
      <circle cx="0" cy="6.0" r="6.0" />
      <circle cx="0" cy="9.0" r="9.0" />
      <circle cx="0" cy="12.0" r="12.0" />
      <circle cx="0" cy="15.0" r="15.0" />
    </g>
    <g transform="translate(105.0 -15.0) translate(0 -15.0)">
      <circle cx="0" cy="3.0" r="3.0" />
      <circle cx="0" cy="6.0" r="6.0" />
      <circle cx="0" cy="9.0" r="9.0" />
      <circle cx="0" cy="12.0" r="12.0" />
      <circle cx="0" cy="15.0" r="15.0" />
    </g>
    <g transform="translate(135.0 -15.0) translate(0 -15.0)">
      <circle cx="0" cy="3.0" r="3.0" />
      <circle cx="0" cy="6.0" r="6.0" />
      <circle cx="0" cy="9.0" r="9.0" />
      <circle cx="0" cy="12.0" r="12.0" />
      <circle cx="0" cy="15.0" r="15.0" />
    </g>
    <g transform="translate(-135.0 15.0) translate(0 -15.0)">
      <circle cx="0" cy="3.0" r="3.0" />
      <circle cx="0" cy="6.0" r="6.0" />
      <circle cx="0" cy="9.0" r="9.0" />
      <circle cx="0" cy="12.0" r="12.0" />
      <circle cx="0" cy="15.0" r="15.0" />
    </g>
    <g transform="translate(-105.0 15.0) translate(0 -15.0)">
      <circle cx="0" cy="3.0" r="3.0" />
      <circle cx="0" cy="6.0" r="6.0" />
      <circle cx="0" cy="9.0" r="9.0" />
      <circle cx="0" cy="12.0" r="12.0" />
      <circle cx="0" cy="15.0" r="15.0" />
    </g>
    <g transform="translate(-75.0 15.0) translate(0 -15.0)">
      <circle cx="0" cy="3.0" r="3.0" />
      <circle cx="0" cy="6.0" r="6.0" />
      <circle cx="0" cy="9.0" r="9.0" />
      <circle cx="0" cy="12.0" r="12.0" />
      <circle cx="0" cy="15.0" r="15.0" />
    </g>
    <g transform="translate(-45.0 15.0) translate(0 -15.0)">
      <circle cx="0" cy="3.0" r="3.0" />
      <circle cx="0" cy="6.0" r="6.0" />
      <circle cx="0" cy="9.0" r="9.0" />
      <circle cx="0" cy="12.0" r="12.0" />
      <circle cx="0" cy="15.0" r="15.0" />
    </g>
    <g transform="translate(-15.0 15.0) translate(0 -15.0)">
      <circle cx="0" cy="3.0" r="3.0" />
      <circle cx="0" cy="6.0" r="6.0" />
      <circle cx="0" cy="9.0" r="9.0" />
      <circle cx="0" cy="12.0" r="12.0" />
      <circle cx="0" cy="15.0" r="15.0" />
    </g>
    <g transform="translate(15.0 15.0) translate(0 -15.0)">
      <circle cx="0" cy="3.0" r="3.0" />
      <circle cx="0" cy="6.0" r="6.0" />
      <circle cx="0" cy="9.0" r="9.0" />
      <circle cx="0" cy="12.0" r="12.0" />
      <circle cx="0" cy="15.0" r="15.0" />
    </g>
    <g transform="translate(45.0 15.0) translate(0 -15.0)">
      <circle cx="0" cy="3.0" r="3.0" />
      <circle cx="0" cy="6.0" r="6.0" />
      <circle cx="0" cy="9.0" r="9.0" />
      <circle cx="0" cy="12.0" r="12.0" />
      <circle cx="0" cy="15.0" r="15.0" />
    </g>
    <g transform="translate(75.0 15.0) translate(0 -15.0)">
      <circle cx="0" cy="3.0" r="3.0" />
      <circle cx="0" cy="6.0" r="6.0" />
      <circle cx="0" cy="9.0" r="9.0" />
      <circle cx="0" cy="12.0" r="12.0" />
      <circle cx="0" cy="15.0" r="15.0" />
    </g>
    <g transform="translate(105.0 15.0) translate(0 -15.0)">
      <circle cx="0" cy="3.0" r="3.0" />
      <circle cx="0" cy="6.0" r="6.0" />
      <circle cx="0" cy="9.0" r="9.0" />
      <circle cx="0" cy="12.0" r="12.0" />
      <circle cx="0" cy="15.0" r="15.0" />
    </g>
    <g transform="translate(135.0 15.0) translate(0 -15.0)">
      <circle cx="0" cy="3.0" r="3.0" />
      <circle cx="0" cy="6.0" r="6.0" />
      <circle cx="0" cy="9.0" r="9.0" />
      <circle cx="0" cy="12.0" r="12.0" />
      <circle cx="0" cy="15.0" r="15.0" />
    </g>
    <g transform="translate(-135.0 45.0) translate(0 -15.0)">
      <circle cx="0" cy="3.0" r="3.0" />
      <circle cx="0" cy="6.0" r="6.0" />
      <circle cx="0" cy="9.0" r="9.0" />
      <circle cx="0" cy="12.0" r="12.0" />
      <circle cx="0" cy="15.0" r="15.0" />
    </g>
    <g transform="translate(-105.0 45.0) translate(0 -15.0)">
      <circle cx="0" cy="3.0" r="3.0" />
      <circle cx="0" cy="6.0" r="6.0" />
      <circle cx="0" cy="9.0" r="9.0" />
      <circle cx="0" cy="12.0" r="12.0" />
      <circle cx="0" cy="15.0" r="15.0" />
    </g>
    <g transform="translate(-75.0 45.0) translate(0 -15.0)">
      <circle cx="0" cy="3.0" r="3.0" />
      <circle cx="0" cy="6.0" r="6.0" />
      <circle cx="0" cy="9.0" r="9.0" />
      <circle cx="0" cy="12.0" r="12.0" />
      <circle cx="0" cy="15.0" r="15.0" />
    </g>
    <g transform="translate(-45.0 45.0) translate(0 -15.0)">
      <circle cx="0" cy="3.0" r="3.0" />
      <circle cx="0" cy="6.0" r="6.0" />
      <circle cx="0" cy="9.0" r="9.0" />
      <circle cx="0" cy="12.0" r="12.0" />
      <circle cx="0" cy="15.0" r="15.0" />
    </g>
    <g transform="translate(-15.0 45.0) translate(0 -15.0)">
      <circle cx="0" cy="3.0" r="3.0" />
      <circle cx="0" cy="6.0" r="6.0" />
      <circle cx="0" cy="9.0" r="9.0" />
      <circle cx="0" cy="12.0" r="12.0" />
      <circle cx="0" cy="15.0" r="15.0" />
    </g>
    <g transform="translate(15.0 45.0) translate(0 -15.0)">
      <circle cx="0" cy="3.0" r="3.0" />
      <circle cx="0" cy="6.0" r="6.0" />
      <circle cx="0" cy="9.0" r="9.0" />
      <circle cx="0" cy="12.0" r="12.0" />
      <circle cx="0" cy="15.0" r="15.0" />
    </g>
    <g transform="translate(45.0 45.0) translate(0 -15.0)">
      <circle cx="0" cy="3.0" r="3.0" />
      <circle cx="0" cy="6.0" r="6.0" />
      <circle cx="0" cy="9.0" r="9.0" />
      <circle cx="0" cy="12.0" r="12.0" />
      <circle cx="0" cy="15.0" r="15.0" />
    </g>
    <g transform="translate(75.0 45.0) translate(0 -15.0)">
      <circle cx="0" cy="3.0" r="3.0" />
      <circle cx="0" cy="6.0" r="6.0" />
      <circle cx="0" cy="9.0" r="9.0" />
      <circle cx="0" cy="12.0" r="12.0" />
      <circle cx="0" cy="15.0" r="15.0" />
    </g>
    <g transform="translate(105.0 45.0) translate(0 -15.0)">
      <circle cx="0" cy="3.0" r="3.0" />
      <circle cx="0" cy="6.0" r="6.0" />
      <circle cx="0" cy="9.0" r="9.0" />
      <circle cx="0" cy="12.0" r="12.0" />
      <circle cx="0" cy="15.0" r="15.0" />
    </g>
    <g transform="translate(135.0 45.0) translate(0 -15.0)">
      <circle cx="0" cy="3.0" r="3.0" />
      <circle cx="0" cy="6.0" r="6.0" />
      <circle cx="0" cy="9.0" r="9.0" />
      <circle cx="0" cy="12.0" r="12.0" />
      <circle cx="0" cy="15.0" r="15.0" />
    </g>
    <g transform="translate(-135.0 75.0) translate(0 -15.0)">
      <circle cx="0" cy="3.0" r="3.0" />
      <circle cx="0" cy="6.0" r="6.0" />
      <circle cx="0" cy="9.0" r="9.0" />
      <circle cx="0" cy="12.0" r="12.0" />
      <circle cx="0" cy="15.0" r="15.0" />
    </g>
    <g transform="translate(-105.0 75.0) translate(0 -15.0)">
      <circle cx="0" cy="3.0" r="3.0" />
      <circle cx="0" cy="6.0" r="6.0" />
      <circle cx="0" cy="9.0" r="9.0" />
      <circle cx="0" cy="12.0" r="12.0" />
      <circle cx="0" cy="15.0" r="15.0" />
    </g>
    <g transform="translate(-75.0 75.0) translate(0 -15.0)">
      <circle cx="0" cy="3.0" r="3.0" />
      <circle cx="0" cy="6.0" r="6.0" />
      <circle cx="0" cy="9.0" r="9.0" />
      <circle cx="0" cy="12.0" r="12.0" />
      <circle cx="0" cy="15.0" r="15.0" />
    </g>
    <g transform="translate(-45.0 75.0) translate(0 -15.0)">
      <circle cx="0" cy="3.0" r="3.0" />
      <circle cx="0" cy="6.0" r="6.0" />
      <circle cx="0" cy="9.0" r="9.0" />
      <circle cx="0" cy="12.0" r="12.0" />
      <circle cx="0" cy="15.0" r="15.0" />
    </g>
    <g transform="translate(-15.0 75.0) translate(0 -15.0)">
      <circle cx="0" cy="3.0" r="3.0" />
      <circle cx="0" cy="6.0" r="6.0" />
      <circle cx="0" cy="9.0" r="9.0" />
      <circle cx="0" cy="12.0" r="12.0" />
      <circle cx="0" cy="15.0" r="15.0" />
    </g>
    <g transform="translate(15.0 75.0) translate(0 -15.0)">
      <circle cx="0" cy="3.0" r="3.0" />
      <circle cx="0" cy="6.0" r="6.0" />
      <circle cx="0" cy="9.0" r="9.0" />
      <circle cx="0" cy="12.0" r="12.0" />
      <circle cx="0" cy="15.0" r="15.0" />
    </g>
    <g transform="translate(45.0 75.0) translate(0 -15.0)">
      <circle cx="0" cy="3.0" r="3.0" />
      <circle cx="0" cy="6.0" r="6.0" />
      <circle cx="0" cy="9.0" r="9.0" />
      <circle cx="0" cy="12.0" r="12.0" />
      <circle cx="0" cy="15.0" r="15.0" />
    </g>
    <g transform="translate(75.0 75.0) translate(0 -15.0)">
      <circle cx="0" cy="3.0" r="3.0" />
      <circle cx="0" cy="6.0" r="6.0" />
      <circle cx="0" cy="9.0" r="9.0" />
      <circle cx="0" cy="12.0" r="12.0" />
      <circle cx="0" cy="15.0" r="15.0" />
    </g>
    <g transform="translate(105.0 75.0) translate(0 -15.0)">
      <circle cx="0" cy="3.0" r="3.0" />
      <circle cx="0" cy="6.0" r="6.0" />
      <circle cx="0" cy="9.0" r="9.0" />
      <circle cx="0" cy="12.0" r="12.0" />
      <circle cx="0" cy="15.0" r="15.0" />
    </g>
    <g transform="translate(135.0 75.0) translate(0 -15.0)">
      <circle cx="0" cy="3.0" r="3.0" />
      <circle cx="0" cy="6.0" r="6.0" />
      <circle cx="0" cy="9.0" r="9.0" />
      <circle cx="0" cy="12.0" r="12.0" />
      <circle cx="0" cy="15.0" r="15.0" />
    </g>
    <g transform="translate(-135.0 105.0) translate(0 -15.0)">
      <circle cx="0" cy="3.0" r="3.0" />
      <circle cx="0" cy="6.0" r="6.0" />
      <circle cx="0" cy="9.0" r="9.0" />
      <circle cx="0" cy="12.0" r="12.0" />
      <circle cx="0" cy="15.0" r="15.0" />
    </g>
    <g transform="translate(-105.0 105.0) translate(0 -15.0)">
      <circle cx="0" cy="3.0" r="3.0" />
      <circle cx="0" cy="6.0" r="6.0" />
      <circle cx="0" cy="9.0" r="9.0" />
      <circle cx="0" cy="12.0" r="12.0" />
      <circle cx="0" cy="15.0" r="15.0" />
    </g>
    <g transform="translate(-75.0 105.0) translate(0 -15.0)">
      <circle cx="0" cy="3.0" r="3.0" />
      <circle cx="0" cy="6.0" r="6.0" />
      <circle cx="0" cy="9.0" r="9.0" />
      <circle cx="0" cy="12.0" r="12.0" />
      <circle cx="0" cy="15.0" r="15.0" />
    </g>
    <g transform="translate(-45.0 105.0) translate(0 -15.0)">
      <circle cx="0" cy="3.0" r="3.0" />
      <circle cx="0" cy="6.0" r="6.0" />
      <circle cx="0" cy="9.0" r="9.0" />
      <circle cx="0" cy="12.0" r="12.0" />
      <circle cx="0" cy="15.0" r="15.0" />
    </g>
    <g transform="translate(-15.0 105.0) translate(0 -15.0)">
      <circle cx="0" cy="3.0" r="3.0" />
      <circle cx="0" cy="6.0" r="6.0" />
      <circle cx="0" cy="9.0" r="9.0" />
      <circle cx="0" cy="12.0" r="12.0" />
      <circle cx="0" cy="15.0" r="15.0" />
    </g>
    <g transform="translate(15.0 105.0) translate(0 -15.0)">
      <circle cx="0" cy="3.0" r="3.0" />
      <circle cx="0" cy="6.0" r="6.0" />
      <circle cx="0" cy="9.0" r="9.0" />
      <circle cx="0" cy="12.0" r="12.0" />
      <circle cx="0" cy="15.0" r="15.0" />
    </g>
    <g transform="translate(45.0 105.0) translate(0 -15.0)">
      <circle cx="0" cy="3.0" r="3.0" />
      <circle cx="0" cy="6.0" r="6.0" />
      <circle cx="0" cy="9.0" r="9.0" />
      <circle cx="0" cy="12.0" r="12.0" />
      <circle cx="0" cy="15.0" r="15.0" />
    </g>
    <g transform="translate(75.0 105.0) translate(0 -15.0)">
      <circle cx="0" cy="3.0" r="3.0" />
      <circle cx="0" cy="6.0" r="6.0" />
      <circle cx="0" cy="9.0" r="9.0" />
      <circle cx="0" cy="12.0" r="12.0" />
      <circle cx="0" cy="15.0" r="15.0" />
    </g>
    <g transform="translate(105.0 105.0) translate(0 -15.0)">
      <circle cx="0" cy="3.0" r="3.0" />
      <circle cx="0" cy="6.0" r="6.0" />
      <circle cx="0" cy="9.0" r="9.0" />
      <circle cx="0" cy="12.0" r="12.0" />
      <circle cx="0" cy="15.0" r="15.0" />
    </g>
    <g transform="translate(135.0 105.0) translate(0 -15.0)">
      <circle cx="0" cy="3.0" r="3.0" />
      <circle cx="0" cy="6.0" r="6.0" />
      <circle cx="0" cy="9.0" r="9.0" />
      <circle cx="0" cy="12.0" r="12.0" />
      <circle cx="0" cy="15.0" r="15.0" />
    </g>
    <g transform="translate(-135.0 135.0) translate(0 -15.0)">
      <circle cx="0" cy="3.0" r="3.0" />
      <circle cx="0" cy="6.0" r="6.0" />
      <circle cx="0" cy="9.0" r="9.0" />
      <circle cx="0" cy="12.0" r="12.0" />
      <circle cx="0" cy="15.0" r="15.0" />
    </g>
    <g transform="translate(-105.0 135.0) translate(0 -15.0)">
      <circle cx="0" cy="3.0" r="3.0" />
      <circle cx="0" cy="6.0" r="6.0" />
      <circle cx="0" cy="9.0" r="9.0" />
      <circle cx="0" cy="12.0" r="12.0" />
      <circle cx="0" cy="15.0" r="15.0" />
    </g>
    <g transform="translate(-75.0 135.0) translate(0 -15.0)">
      <circle cx="0" cy="3.0" r="3.0" />
      <circle cx="0" cy="6.0" r="6.0" />
      <circle cx="0" cy="9.0" r="9.0" />
      <circle cx="0" cy="12.0" r="12.0" />
      <circle cx="0" cy="15.0" r="15.0" />
    </g>
    <g transform="translate(-45.0 135.0) translate(0 -15.0)">
      <circle cx="0" cy="3.0" r="3.0" />
      <circle cx="0" cy="6.0" r="6.0" />
      <circle cx="0" cy="9.0" r="9.0" />
      <circle cx="0" cy="12.0" r="12.0" />
      <circle cx="0" cy="15.0" r="15.0" />
    </g>
    <g transform="translate(-15.0 135.0) translate(0 -15.0)">
      <circle cx="0" cy="3.0" r="3.0" />
      <circle cx="0" cy="6.0" r="6.0" />
      <circle cx="0" cy="9.0" r="9.0" />
      <circle cx="0" cy="12.0" r="12.0" />
      <circle cx="0" cy="15.0" r="15.0" />
    </g>
    <g transform="translate(15.0 135.0) translate(0 -15.0)">
      <circle cx="0" cy="3.0" r="3.0" />
      <circle cx="0" cy="6.0" r="6.0" />
      <circle cx="0" cy="9.0" r="9.0" />
      <circle cx="0" cy="12.0" r="12.0" />
      <circle cx="0" cy="15.0" r="15.0" />
    </g>
    <g transform="translate(45.0 135.0) translate(0 -15.0)">
      <circle cx="0" cy="3.0" r="3.0" />
      <circle cx="0" cy="6.0" r="6.0" />
      <circle cx="0" cy="9.0" r="9.0" />
      <circle cx="0" cy="12.0" r="12.0" />
      <circle cx="0" cy="15.0" r="15.0" />
    </g>
    <g transform="translate(75.0 135.0) translate(0 -15.0)">
      <circle cx="0" cy="3.0" r="3.0" />
      <circle cx="0" cy="6.0" r="6.0" />
      <circle cx="0" cy="9.0" r="9.0" />
      <circle cx="0" cy="12.0" r="12.0" />
      <circle cx="0" cy="15.0" r="15.0" />
    </g>
    <g transform="translate(105.0 135.0) translate(0 -15.0)">
      <circle cx="0" cy="3.0" r="3.0" />
      <circle cx="0" cy="6.0" r="6.0" />
      <circle cx="0" cy="9.0" r="9.0" />
      <circle cx="0" cy="12.0" r="12.0" />
      <circle cx="0" cy="15.0" r="15.0" />
    </g>
    <g transform="translate(135.0 135.0) translate(0 -15.0)">
      <circle cx="0" cy="3.0" r="3.0" />
      <circle cx="0" cy="6.0" r="6.0" />
      <circle cx="0" cy="9.0" r="9.0" />
      <circle cx="0" cy="12.0" r="12.0" />
      <circle cx="0" cy="15.0" r="15.0" />
    </g>
  </g>
</g>
</svg>
