<svg width="300" height="300" viewBox="-150 -150 300 300" fill="none" stroke="black" xmlns="http://www.w3.org/2000/svg" xmlns:xlink="http://www.w3.org/1999/xlink">
<g transform="scale(1 -1)">
  <g>
    <circle cx="0" cy="0" r="24.378644291409156" />
    <circle cx="0" cy="0" r="16.31922131520296" />
    <circle cx="0" cy="0" r="143.7365550655732" />
    <circle cx="0" cy="0" r="98.91200527559324" />
    <circle cx="0" cy="0" r="33.83539940912078" />
    <circle cx="0" cy="0" r="131.55336265891705" />
    <circle cx="0" cy="0" r="138.91072382844706" />
    <circle cx="0" cy="0" r="28.422472410225634" />
    <circle cx="0" cy="0" r="17.229227003495527" />
    <circle cx="0" cy="0" r="94.61003231546594" />
    <circle cx="0" cy="0" r="23.650166862234904" />
    <circle cx="0" cy="0" r="35.44228540220248" />
    <circle cx="0" cy="0" r="123.88963633571299" />
    <circle cx="0" cy="0" r="142.26397067847284" />
    <circle cx="0" cy="0" r="28.379260794460876" />
    <circle cx="0" cy="0" r="110.62739800617372" />
    <circle cx="0" cy="0" r="15.793606478765554" />
    <circle cx="0" cy="0" r="78.26709605909757" />
    <circle cx="0" cy="0" r="100.50973151738944" />
    <circle cx="0" cy="0" r="94.72581072570293" />
    <circle cx="0" cy="0" r="19.80503029978938" />
    <circle cx="0" cy="0" r="136.03409271031921" />
    <circle cx="0" cy="0" r="85.2334186467097" />
    <circle cx="0" cy="0" r="112.91570589029267" />
    <circle cx="0" cy="0" r="119.85484114258037" />
    <circle cx="0" cy="0" r="106.86504927756397" />
    <circle cx="0" cy="0" r="110.67918158606845" />
    <circle cx="0" cy="0" r="117.47807298046571" />
    <circle cx="0" cy="0" r="60.46951488612656" />
    <circle cx="0" cy="0" r="81.46528242979191" />
  </g>
</g>
</svg>
