<svg width="300" height="300" viewBox="-150 -150 300 300" fill="none" stroke="black" xmlns="http://www.w3.org/2000/svg" xmlns:xlink="http://www.w3.org/1999/xlink">
<g transform="scale(1 -1)">
  <g>
    <g transform="translate(0 75) scale(1 0.5)">
      <g transform="translate(-75 0) scale(0.5 1)">
        <rect x="-140.0" y="-140.0" width="280" height="280" stroke-width="5" />
        <g transform="scale(0.8333333333333334 0.8333333333333334)">
          <circle cx="0" cy="0" r="71.00568773423537" />
          <circle cx="0" cy="0" r="52.10166087640969" />
          <circle cx="0" cy="0" r="13.065623891982819" />
          <circle cx="0" cy="0" r="100.21670942100714" />
          <circle cx="0" cy="0" r="21.22817021153506" />
          <circle cx="0" cy="0" r="93.07477567999099" />
          <circle cx="0" cy="0" r="95.55461843801285" />
          <circle cx="0" cy="0" r="27.386331452094833" />
          <circle cx="0" cy="0" r="89.67330617943261" />
          <circle cx="0" cy="0" r="31.458217875706364" />
        </g>
      </g>
      <g transform="translate(75 0) scale(0.5 1)">
        <rect x="-140.0" y="-140.0" width="280" height="280" stroke-width="5" />
        <g transform="scale(0.8333333333333334 0.8333333333333334)">
          <rect x="-29.878798503613467" y="-29.878798503613467" width="59.757597007226934" height="59.757597007226934" />
          <rect x="-52.277828063940646" y="-52.277828063940646" width="104.55565612788129" height="104.55565612788129" />
          <rect x="-120.7303782645902" y="-120.7303782645902" width="241.4607565291804" height="241.4607565291804" />
          <rect x="-5.737128622745321" y="-5.737128622745321" width="11.474257245490643" height="11.474257245490643" />
          <rect x="-54.46015052649153" y="-54.46015052649153" width="108.92030105298306" height="108.92030105298306" />
          <rect x="-32.043647214176794" y="-32.043647214176794" width="64.08729442835359" height="64.08729442835359" />
          <rect x="-45.35363438525922" y="-45.35363438525922" width="90.70726877051844" height="90.70726877051844" />
          <rect x="-122.46728570410106" y="-122.46728570410106" width="244.93457140820212" height="244.93457140820212" />
          <rect x="-41.190885615308744" y="-41.190885615308744" width="82.38177123061749" height="82.38177123061749" />
          <rect x="-82.23319502417034" y="-82.23319502417034" width="164.46639004834068" height="164.46639004834068" />
          <rect x="-98.80658908840299" y="-98.80658908840299" width="197.61317817680597" height="197.61317817680597" />
          <rect x="-28.039973144029258" y="-28.039973144029258" width="56.079946288058515" height="56.079946288058515" />
          <rect x="-96.439921552614" y="-96.439921552614" width="192.879843105228" height="192.879843105228" />
          <rect x="-94.9671952632643" y="-94.9671952632643" width="189.9343905265286" height="189.9343905265286" />
          <rect x="-21.8078989366582" y="-21.8078989366582" width="43.6157978733164" height="43.6157978733164" />
        </g>
      </g>
    </g>
    <g transform="translate(0 -75) scale(1 0.5)">
      <g transform="translate(-75 0) scale(0.5 1)">
        <rect x="-140.0" y="-140.0" width="280" height="280" stroke-width="5" />
        <g transform="scale(0.8333333333333334 0.8333333333333334)">
          <defs>
            <ellipse cx="0" cy="0" rx="125.0" ry="60.0" id="s-8-LiMg" />
          </defs>
          <g>
            <use xlink:href="#s-8-LiMg" />
            <g transform="rotate(30.0)">
              <use xlink:href="#s-8-LiMg" />
              <g transform="rotate(30.0)">
                <use xlink:href="#s-8-LiMg" />
                <g transform="rotate(30.0)">
                  <use xlink:href="#s-8-LiMg" />
                  <g transform="rotate(30.0)">
                    <use xlink:href="#s-8-LiMg" />
                    <use xlink:href="#s-8-LiMg" transform="rotate(30.0)" />
                  </g>
                </g>
              </g>
            </g>
          </g>
        </g>
      </g>
      <g transform="translate(75 0) scale(0.5 1)">
        <rect x="-140.0" y="-140.0" width="280" height="280" stroke-width="5" />
        <g transform="scale(0.8333333333333334 0.8333333333333334)">
          <g transform="translate(0 75) scale(1 0.5)">
            <g transform="translate(-75 0) scale(0.5 1)">
              <rect x="-106.41855163187107" y="-106.41855163187107" width="212.83710326374214" height="212.83710326374214" />
              <rect x="-121.85463241604876" y="-121.85463241604876" width="243.70926483209752" height="243.70926483209752" />
              <rect x="-57.192522912004094" y="-57.192522912004094" width="114.38504582400819" height="114.38504582400819" />
              <rect x="-7.910466279607564" y="-7.910466279607564" width="15.820932559215128" height="15.820932559215128" />
              <rect x="-105.85123209050573" y="-105.85123209050573" width="211.70246418101146" height="211.70246418101146" />
              <rect x="-50.36132203725344" y="-50.36132203725344" width="100.72264407450687" height="100.72264407450687" />
              <rect x="-75.28157296965139" y="-75.28157296965139" width="150.56314593930279" height="150.56314593930279" />
              <rect x="-78.41058924053344" y="-78.41058924053344" width="156.82117848106688" height="156.82117848106688" />
              <rect x="-5.921446632366309" y="-5.921446632366309" width="11.842893264732618" height="11.842893264732618" />
              <rect x="-21.362891509472654" y="-21.362891509472654" width="42.72578301894531" height="42.72578301894531" />
              <rect x="-29.947196209314782" y="-29.947196209314782" width="59.894392418629565" height="59.894392418629565" />
              <rect x="-59.024644656085684" y="-59.024644656085684" width="118.04928931217137" height="118.04928931217137" />
              <rect x="-61.018740817768816" y="-61.018740817768816" width="122.03748163553763" height="122.03748163553763" />
              <rect x="-119.94793954109626" y="-119.94793954109626" width="239.89587908219252" height="239.89587908219252" />
              <rect x="-46.56856930647128" y="-46.56856930647128" width="93.13713861294256" height="93.13713861294256" />
            </g>
            <g transform="translate(75 0) scale(0.5 1)">
              <rect x="-77.92318970383879" y="-77.92318970383879" width="155.84637940767757" height="155.84637940767757" />
              <rect x="-104.91363721567474" y="-104.91363721567474" width="209.82727443134948" height="209.82727443134948" />
              <rect x="-33.00206937137202" y="-33.00206937137202" width="66.00413874274405" height="66.00413874274405" />
              <rect x="-123.39477538674316" y="-123.39477538674316" width="246.78955077348633" height="246.78955077348633" />
              <rect x="-69.61058822401291" y="-69.61058822401291" width="139.22117644802583" height="139.22117644802583" />
              <rect x="-0.10949393450605804" y="-0.10949393450605804" width="0.2189878690121161" height="0.2189878690121161" />
              <rect x="-81.57433430838327" y="-81.57433430838327" width="163.14866861676654" height="163.14866861676654" />
              <rect x="-9.64363518864611" y="-9.64363518864611" width="19.28727037729222" height="19.28727037729222" />
              <rect x="-24.735421849176735" y="-24.735421849176735" width="49.47084369835347" height="49.47084369835347" />
              <rect x="-9.494465748256923" y="-9.494465748256923" width="18.988931496513846" height="18.988931496513846" />
              <rect x="-68.55717543925333" y="-68.55717543925333" width="137.11435087850666" height="137.11435087850666" />
              <rect x="-103.33534393833239" y="-103.33534393833239" width="206.67068787666477" height="206.67068787666477" />
              <rect x="-20.525404815171804" y="-20.525404815171804" width="41.05080963034361" height="41.05080963034361" />
              <rect x="-120.00370703600038" y="-120.00370703600038" width="240.00741407200076" height="240.00741407200076" />
              <rect x="-124.29610510620171" y="-124.29610510620171" width="248.59221021240342" height="248.59221021240342" />
            </g>
          </g>
          <g transform="translate(0 -75) scale(1 0.5)">
            <g transform="translate(-75 0) scale(0.5 1)">
              <rect x="-44.914930077277994" y="-44.914930077277994" width="89.82986015455599" height="89.82986015455599" />
              <rect x="-62.7490078989817" y="-62.7490078989817" width="125.4980157979634" height="125.4980157979634" />
              <rect x="-118.77574989934499" y="-118.77574989934499" width="237.55149979868997" height="237.55149979868997" />
              <rect x="-102.90624749747832" y="-102.90624749747832" width="205.81249499495664" height="205.81249499495664" />
              <rect x="-96.18686476359356" y="-96.18686476359356" width="192.37372952718712" height="192.37372952718712" />
              <rect x="-27.273352564096978" y="-27.273352564096978" width="54.546705128193956" height="54.546705128193956" />
              <rect x="-77.75339868186413" y="-77.75339868186413" width="155.50679736372825" height="155.50679736372825" />
              <rect x="-88.6923379256434" y="-88.6923379256434" width="177.3846758512868" height="177.3846758512868" />
              <rect x="-49.84476160212895" y="-49.84476160212895" width="99.6895232042579" height="99.6895232042579" />
              <rect x="-95.49216122929823" y="-95.49216122929823" width="190.98432245859647" height="190.98432245859647" />
              <rect x="-108.51397013896528" y="-108.51397013896528" width="217.02794027793055" height="217.02794027793055" />
              <rect x="-19.441160121198674" y="-19.441160121198674" width="38.88232024239735" height="38.88232024239735" />
              <rect x="-89.66845226138385" y="-89.66845226138385" width="179.3369045227677" height="179.3369045227677" />
              <rect x="-107.16884551880327" y="-107.16884551880327" width="214.33769103760653" height="214.33769103760653" />
              <rect x="-72.6078994250059" y="-72.6078994250059" width="145.2157988500118" height="145.2157988500118" />
            </g>
            <g transform="translate(75 0) scale(0.5 1)">
              <rect x="-84.19303378040058" y="-84.19303378040058" width="168.38606756080117" height="168.38606756080117" />
              <rect x="-107.25565298960153" y="-107.25565298960153" width="214.51130597920306" height="214.51130597920306" />
              <rect x="-111.9457857670251" y="-111.9457857670251" width="223.8915715340502" height="223.8915715340502" />
              <rect x="-62.80207071826188" y="-62.80207071826188" width="125.60414143652376" height="125.60414143652376" />
              <rect x="-24.98700441271133" y="-24.98700441271133" width="49.97400882542266" height="49.97400882542266" />
              <rect x="-71.62976870002875" y="-71.62976870002875" width="143.2595374000575" height="143.2595374000575" />
              <rect x="-3.2303578937371986" y="-3.2303578937371986" width="6.460715787474397" height="6.460715787474397" />
              <rect x="-66.59532348185628" y="-66.59532348185628" width="133.19064696371257" height="133.19064696371257" />
              <rect x="-121.79004839828146" y="-121.79004839828146" width="243.5800967965629" height="243.5800967965629" />
              <rect x="-95.77561744167424" y="-95.77561744167424" width="191.55123488334849" height="191.55123488334849" />
              <rect x="-29.459502351705677" y="-29.459502351705677" width="58.91900470341135" height="58.91900470341135" />
              <rect x="-91.92368389837934" y="-91.92368389837934" width="183.84736779675868" height="183.84736779675868" />
              <rect x="-108.69753212539143" y="-108.69753212539143" width="217.39506425078287" height="217.39506425078287" />
              <rect x="-5.674853498286114" y="-5.674853498286114" width="11.349706996572229" height="11.349706996572229" />
              <rect x="-45.86434071037493" y="-45.86434071037493" width="91.72868142074987" height="91.72868142074987" />
            </g>
          </g>
        </g>
      </g>
    </g>
  </g>
</g>
</svg>
