<svg width="300" height="300" viewBox="-150 -150 300 300" fill="none" stroke="black" xmlns="http://www.w3.org/2000/svg" xmlns:xlink="http://www.w3.org/1999/xlink">
<g transform="scale(1 -1)">
  <g>
    <g transform="translate(-120.0 -120.0)">
      <rect x="-20.477312744948996" y="-20.477312744948996" width="40.95462548989799" height="40.95462548989799" />
      <rect x="-5.690722129932904" y="-5.690722129932904" width="11.381444259865807" height="11.381444259865807" />
      <rect x="-21.720434153498342" y="-21.720434153498342" width="43.440868306996684" height="43.440868306996684" />
      <rect x="-21.345529885422028" y="-21.345529885422028" width="42.691059770844056" height="42.691059770844056" />
      <rect x="-25.39885420271852" y="-25.39885420271852" width="50.79770840543704" height="50.79770840543704" />
      <rect x="-0.5702030240849609" y="-0.5702030240849609" width="1.1404060481699219" height="1.1404060481699219" />
      <rect x="-9.659337469581715" y="-9.659337469581715" width="19.31867493916343" height="19.31867493916343" />
      <rect x="-17.484764282066838" y="-17.484764282066838" width="34.969528564133675" height="34.969528564133675" />
      <rect x="-16.82272699466299" y="-16.82272699466299" width="33.64545398932598" height="33.64545398932598" />
      <rect x="-15.555155910813285" y="-15.555155910813285" width="31.11031182162657" height="31.11031182162657" />
    </g>
    <g transform="translate(-60.0 -120.0)">
      <rect x="-17.875591511637424" y="-17.875591511637424" width="35.75118302327485" height="35.75118302327485" />
      <rect x="-28.131353123496375" y="-28.131353123496375" width="56.26270624699275" height="56.26270624699275" />
      <rect x="-7.935838919860042" y="-7.935838919860042" width="15.871677839720084" height="15.871677839720084" />
      <rect x="-8.204974055592487" y="-8.204974055592487" width="16.409948111184974" height="16.409948111184974" />
      <rect x="-6.549379520471831" y="-6.549379520471831" width="13.098759040943662" height="13.098759040943662" />
      <rect x="-29.921079716658554" y="-29.921079716658554" width="59.84215943331711" height="59.84215943331711" />
      <rect x="-27.6065830716477" y="-27.6065830716477" width="55.2131661432954" height="55.2131661432954" />
      <rect x="-7.193061230862641" y="-7.193061230862641" width="14.386122461725282" height="14.386122461725282" />
      <rect x="-10.246694815228274" y="-10.246694815228274" width="20.493389630456548" height="20.493389630456548" />
      <rect x="-7.029746307385233" y="-7.029746307385233" width="14.059492614770466" height="14.059492614770466" />
    </g>
    <g transform="translate(0.0 -120.0)">
      <rect x="-25.997494291277434" y="-25.997494291277434" width="51.99498858255487" height="51.99498858255487" />
      <rect x="-22.96679632101965" y="-22.96679632101965" width="45.9335926420393" height="45.9335926420393" />
      <rect x="-17.09504976326994" y="-17.09504976326994" width="34.19009952653988" height="34.19009952653988" />
      <rect x="-28.592836381011207" y="-28.592836381011207" width="57.18567276202241" height="57.18567276202241" />
      <rect x="-27.980394354631358" y="-27.980394354631358" width="55.960788709262715" height="55.960788709262715" />
      <rect x="-16.500340456157456" y="-16.500340456157456" width="33.00068091231491" height="33.00068091231491" />
      <rect x="-13.967563685302995" y="-13.967563685302995" width="27.93512737060599" height="27.93512737060599" />
      <rect x="-4.618963095519296" y="-4.618963095519296" width="9.237926191038593" height="9.237926191038593" />
      <rect x="-1.8864527381023466" y="-1.8864527381023466" width="3.772905476204693" height="3.772905476204693" />
      <rect x="-21.678660061969758" y="-21.678660061969758" width="43.357320123939516" height="43.357320123939516" />
    </g>
    <g transform="translate(60.0 -120.0)">
      <rect x="-3.408254533650341" y="-3.408254533650341" width="6.816509067300682" height="6.816509067300682" />
      <rect x="-20.55072708278619" y="-20.55072708278619" width="41.10145416557238" height="41.10145416557238" />
      <rect x="-3.6698258231839453" y="-3.6698258231839453" width="7.339651646367891" height="7.339651646367891" />
      <rect x="-19.78813465437106" y="-19.78813465437106" width="39.57626930874212" height="39.57626930874212" />
      <rect x="-10.27882101925348" y="-10.27882101925348" width="20.55764203850696" height="20.55764203850696" />
      <rect x="-10.361099435496564" y="-10.361099435496564" width="20.72219887099313" height="20.72219887099313" />
      <rect x="-24.353139424655048" y="-24.353139424655048" width="48.706278849310095" height="48.706278849310095" />
      <rect x="-15.134663711264526" y="-15.134663711264526" width="30.269327422529052" height="30.269327422529052" />
      <rect x="-17.40995184775641" y="-17.40995184775641" width="34.81990369551282" height="34.81990369551282" />
      <rect x="-9.876753519102952" y="-9.876753519102952" width="19.753507038205903" height="19.753507038205903" />
    </g>
    <g transform="translate(120.0 -120.0)">
      <rect x="-0.6298249547385448" y="-0.6298249547385448" width="1.2596499094770897" height="1.2596499094770897" />
      <rect x="-6.23498691096939" y="-6.23498691096939" width="12.46997382193878" height="12.46997382193878" />
      <rect x="-7.4856961969590605" y="-7.4856961969590605" width="14.971392393918121" height="14.971392393918121" />
      <rect x="-0.512716723442036" y="-0.512716723442036" width="1.025433446884072" height="1.025433446884072" />
      <rect x="-20.794107577082528" y="-20.794107577082528" width="41.588215154165056" height="41.588215154165056" />
      <rect x="-24.586061312132685" y="-24.586061312132685" width="49.17212262426537" height="49.17212262426537" />
      <rect x="-14.558577751423218" y="-14.558577751423218" width="29.117155502846437" height="29.117155502846437" />
      <rect x="-25.08571910491589" y="-25.08571910491589" width="50.17143820983178" height="50.17143820983178" />
      <rect x="-25.547564380767948" y="-25.547564380767948" width="51.095128761535896" height="51.095128761535896" />
      <rect x="-23.43014579566214" y="-23.43014579566214" width="46.86029159132428" height="46.86029159132428" />
    </g>
    <g transform="translate(-120.0 -60.0)">
      <rect x="-25.29209365029657" y="-25.29209365029657" width="50.58418730059314" height="50.58418730059314" />
      <rect x="-7.220423708802914" y="-7.220423708802914" width="14.440847417605829" height="14.440847417605829" />
      <rect x="-7.597448985860799" y="-7.597448985860799" width="15.194897971721598" height="15.194897971721598" />
      <rect x="-5.66867989981548" y="-5.66867989981548" width="11.33735979963096" height="11.33735979963096" />
      <rect x="-17.7755302294755" y="-17.7755302294755" width="35.551060458951" height="35.551060458951" />
      <rect x="-12.068561613397828" y="-12.068561613397828" width="24.137123226795655" height="24.137123226795655" />
      <rect x="-5.233171616242247" y="-5.233171616242247" width="10.466343232484494" height="10.466343232484494" />
      <rect x="-19.933136332203468" y="-19.933136332203468" width="39.866272664406935" height="39.866272664406935" />
      <rect x="-23.638974788106676" y="-23.638974788106676" width="47.27794957621335" height="47.27794957621335" />
      <rect x="-14.143478695895094" y="-14.143478695895094" width="28.28695739179019" height="28.28695739179019" />
    </g>
    <g transform="translate(-60.0 -60.0)">
      <rect x="-21.80633020758383" y="-21.80633020758383" width="43.61266041516766" height="43.61266041516766" />
      <rect x="-15.93518254854072" y="-15.93518254854072" width="31.87036509708144" height="31.87036509708144" />
      <rect x="-27.968844022840187" y="-27.968844022840187" width="55.937688045680375" height="55.937688045680375" />
      <rect x="-6.897474388148713" y="-6.897474388148713" width="13.794948776297426" height="13.794948776297426" />
      <rect x="-14.585172273185297" y="-14.585172273185297" width="29.170344546370593" height="29.170344546370593" />
      <rect x="-13.583038701317077" y="-13.583038701317077" width="27.166077402634155" height="27.166077402634155" />
      <rect x="-2.098149604384113" y="-2.098149604384113" width="4.196299208768226" height="4.196299208768226" />
      <rect x="-4.619943285555044" y="-4.619943285555044" width="9.239886571110087" height="9.239886571110087" />
      <rect x="-0.06498828667805712" y="-0.06498828667805712" width="0.12997657335611423" height="0.12997657335611423" />
      <rect x="-8.744839283999426" y="-8.744839283999426" width="17.48967856799885" height="17.48967856799885" />
    </g>
    <g transform="translate(0.0 -60.0)">
      <rect x="-3.270147740705612" y="-3.270147740705612" width="6.540295481411224" height="6.540295481411224" />
      <rect x="-24.02293415048785" y="-24.02293415048785" width="48.0458683009757" height="48.0458683009757" />
      <rect x="-8.063190068637013" y="-8.063190068637013" width="16.126380137274026" height="16.126380137274026" />
      <rect x="-29.20812403314677" y="-29.20812403314677" width="58.41624806629354" height="58.41624806629354" />
      <rect x="-16.72126041845648" y="-16.72126041845648" width="33.44252083691296" height="33.44252083691296" />
      <rect x="-19.271366787766183" y="-19.271366787766183" width="38.54273357553237" height="38.54273357553237" />
      <rect x="-2.969661952766527" y="-2.969661952766527" width="5.939323905533054" height="5.939323905533054" />
      <rect x="-25.264153939186052" y="-25.264153939186052" width="50.528307878372104" height="50.528307878372104" />
      <rect x="-22.072350993778347" y="-22.072350993778347" width="44.144701987556694" height="44.144701987556694" />
      <rect x="-11.399199573779363" y="-11.399199573779363" width="22.798399147558726" height="22.798399147558726" />
    </g>
    <g transform="translate(60.0 -60.0)">
      <rect x="-28.41351517278136" y="-28.41351517278136" width="56.82703034556272" height="56.82703034556272" />
      <rect x="-2.3976178598382516" y="-2.3976178598382516" width="4.795235719676503" height="4.795235719676503" />
      <rect x="-11.228632730863819" y="-11.228632730863819" width="22.457265461727637" height="22.457265461727637" />
      <rect x="-12.267384333906655" y="-12.267384333906655" width="24.53476866781331" height="24.53476866781331" />
      <rect x="-21.524331354320438" y="-21.524331354320438" width="43.048662708640876" height="43.048662708640876" />
      <rect x="-9.548637679196595" y="-9.548637679196595" width="19.09727535839319" height="19.09727535839319" />
      <rect x="-16.619724755976847" y="-16.619724755976847" width="33.239449511953694" height="33.239449511953694" />
      <rect x="-26.09516432702734" y="-26.09516432702734" width="52.19032865405468" height="52.19032865405468" />
      <rect x="-27.970327760849905" y="-27.970327760849905" width="55.94065552169981" height="55.94065552169981" />
      <rect x="-10.386472633437325" y="-10.386472633437325" width="20.77294526687465" height="20.77294526687465" />
    </g>
    <g transform="translate(120.0 -60.0)">
      <rect x="-6.243532512518099" y="-6.243532512518099" width="12.487065025036198" height="12.487065025036198" />
      <rect x="-14.072104120111888" y="-14.072104120111888" width="28.144208240223776" height="28.144208240223776" />
      <rect x="-2.5004942089246818" y="-2.5004942089246818" width="5.0009884178493635" height="5.0009884178493635" />
      <rect x="-12.694501273160958" y="-12.694501273160958" width="25.389002546321915" height="25.389002546321915" />
      <rect x="-24.21488556132186" y="-24.21488556132186" width="48.42977112264372" height="48.42977112264372" />
      <rect x="-10.369356683818472" y="-10.369356683818472" width="20.738713367636944" height="20.738713367636944" />
      <rect x="-5.194119814788952" y="-5.194119814788952" width="10.388239629577903" height="10.388239629577903" />
      <rect x="-4.7323109185412315" y="-4.7323109185412315" width="9.464621837082463" height="9.464621837082463" />
      <rect x="-0.7383094411352908" y="-0.7383094411352908" width="1.4766188822705817" height="1.4766188822705817" />
      <rect x="-19.658600083168942" y="-19.658600083168942" width="39.317200166337884" height="39.317200166337884" />
    </g>
    <g transform="translate(-120.0 0.0)">
      <rect x="-4.519207093224328" y="-4.519207093224328" width="9.038414186448655" height="9.038414186448655" />
      <rect x="-5.850080042305209" y="-5.850080042305209" width="11.700160084610419" height="11.700160084610419" />
      <rect x="-11.693314205671403" y="-11.693314205671403" width="23.386628411342805" height="23.386628411342805" />
      <rect x="-25.324879339301237" y="-25.324879339301237" width="50.649758678602474" height="50.649758678602474" />
      <rect x="-15.169790379161714" y="-15.169790379161714" width="30.33958075832343" height="30.33958075832343" />
      <rect x="-26.64605808999066" y="-26.64605808999066" width="53.29211617998132" height="53.29211617998132" />
      <rect x="-26.141423642362483" y="-26.141423642362483" width="52.282847284724966" height="52.282847284724966" />
      <rect x="-9.647155097988616" y="-9.647155097988616" width="19.294310195977232" height="19.294310195977232" />
      <rect x="-16.941023447905742" y="-16.941023447905742" width="33.882046895811484" height="33.882046895811484" />
      <rect x="-16.472525866161256" y="-16.472525866161256" width="32.94505173232251" height="32.94505173232251" />
    </g>
    <g transform="translate(-60.0 0.0)">
      <rect x="-4.9671024139455" y="-4.9671024139455" width="9.934204827891" height="9.934204827891" />
      <rect x="-11.181567192965739" y="-11.181567192965739" width="22.363134385931478" height="22.363134385931478" />
      <rect x="-11.219622718517241" y="-11.219622718517241" width="22.439245437034483" height="22.439245437034483" />
      <rect x="-28.609876107283046" y="-28.609876107283046" width="57.21975221456609" height="57.21975221456609" />
      <rect x="-12.842351447669621" y="-12.842351447669621" width="25.684702895339242" height="25.684702895339242" />
      <rect x="-12.21239544427442" y="-12.21239544427442" width="24.42479088854884" height="24.42479088854884" />
      <rect x="-29.08034594166976" y="-29.08034594166976" width="58.16069188333952" height="58.16069188333952" />
      <rect x="-17.788925508123395" y="-17.788925508123395" width="35.57785101624679" height="35.57785101624679" />
      <rect x="-0.892400032672952" y="-0.892400032672952" width="1.784800065345904" height="1.784800065345904" />
      <rect x="-10.062436256446336" y="-10.062436256446336" width="20.124872512892672" height="20.124872512892672" />
    </g>
    <g transform="translate(0.0 0.0)">
      <rect x="-2.7167170260098636" y="-2.7167170260098636" width="5.433434052019727" height="5.433434052019727" />
      <rect x="-27.36942923563761" y="-27.36942923563761" width="54.73885847127522" height="54.73885847127522" />
      <rect x="-21.891068795524287" y="-21.891068795524287" width="43.782137591048574" height="43.782137591048574" />
      <rect x="-18.22879074677744" y="-18.22879074677744" width="36.45758149355488" height="36.45758149355488" />
      <rect x="-15.536373306814372" y="-15.536373306814372" width="31.072746613628745" height="31.072746613628745" />
      <rect x="-23.78247533628952" y="-23.78247533628952" width="47.56495067257904" height="47.56495067257904" />
      <rect x="-15.767962295768266" y="-15.767962295768266" width="31.53592459153653" height="31.53592459153653" />
      <rect x="-0.2602130754544152" y="-0.2602130754544152" width="0.5204261509088304" height="0.5204261509088304" />
      <rect x="-17.66868567680169" y="-17.66868567680169" width="35.33737135360338" height="35.33737135360338" />
      <rect x="-17.1796303778228" y="-17.1796303778228" width="34.3592607556456" height="34.3592607556456" />
    </g>
    <g transform="translate(60.0 0.0)">
      <rect x="-23.2852126832868" y="-23.2852126832868" width="46.5704253665736" height="46.5704253665736" />
      <rect x="-16.479606926088476" y="-16.479606926088476" width="32.95921385217695" height="32.95921385217695" />
      <rect x="-5.416996422574743" y="-5.416996422574743" width="10.833992845149487" height="10.833992845149487" />
      <rect x="-19.194755978689106" y="-19.194755978689106" width="38.38951195737821" height="38.38951195737821" />
      <rect x="-9.819054664788764" y="-9.819054664788764" width="19.638109329577528" height="19.638109329577528" />
      <rect x="-3.1117198389526726" y="-3.1117198389526726" width="6.223439677905345" height="6.223439677905345" />
      <rect x="-21.075238305656583" y="-21.075238305656583" width="42.15047661131317" height="42.15047661131317" />
      <rect x="-11.955448233118387" y="-11.955448233118387" width="23.910896466236775" height="23.910896466236775" />
      <rect x="-11.98126136200204" y="-11.98126136200204" width="23.96252272400408" height="23.96252272400408" />
      <rect x="-14.962707560642318" y="-14.962707560642318" width="29.925415121284637" height="29.925415121284637" />
    </g>
    <g transform="translate(120.0 0.0)">
      <rect x="-2.7857654945117782" y="-2.7857654945117782" width="5.5715309890235565" height="5.5715309890235565" />
      <rect x="-4.381130086601647" y="-4.381130086601647" width="8.762260173203295" height="8.762260173203295" />
      <rect x="-12.138381059741183" y="-12.138381059741183" width="24.276762119482367" height="24.276762119482367" />
      <rect x="-25.80126922237494" y="-25.80126922237494" width="51.60253844474988" height="51.60253844474988" />
      <rect x="-23.754213234886816" y="-23.754213234886816" width="47.50842646977363" height="47.50842646977363" />
      <rect x="-7.246308584928219" y="-7.246308584928219" width="14.492617169856437" height="14.492617169856437" />
      <rect x="-11.085114336482556" y="-11.085114336482556" width="22.170228672965113" height="22.170228672965113" />
      <rect x="-29.348293463951215" y="-29.348293463951215" width="58.69658692790243" height="58.69658692790243" />
      <rect x="-28.40796465985319" y="-28.40796465985319" width="56.81592931970638" height="56.81592931970638" />
      <rect x="-16.16599513033877" y="-16.16599513033877" width="32.33199026067754" height="32.33199026067754" />
    </g>
    <g transform="translate(-120.0 60.0)">
      <rect x="-7.477677785871477" y="-7.477677785871477" width="14.955355571742954" height="14.955355571742954" />
      <rect x="-3.9033578970815306" y="-3.9033578970815306" width="7.806715794163061" height="7.806715794163061" />
      <rect x="-27.201016709056344" y="-27.201016709056344" width="54.40203341811269" height="54.40203341811269" />
      <rect x="-1.2080590032828298" y="-1.2080590032828298" width="2.4161180065656596" height="2.4161180065656596" />
      <rect x="-11.37231393892386" y="-11.37231393892386" width="22.74462787784772" height="22.74462787784772" />
      <rect x="-11.259046999532229" y="-11.259046999532229" width="22.518093999064458" height="22.518093999064458" />
      <rect x="-6.732119171089515" y="-6.732119171089515" width="13.46423834217903" height="13.46423834217903" />
      <rect x="-28.568551313172364" y="-28.568551313172364" width="57.13710262634473" height="57.13710262634473" />
      <rect x="-6.330406976527291" y="-6.330406976527291" width="12.660813953054582" height="12.660813953054582" />
      <rect x="-1.5890360703835882" y="-1.5890360703835882" width="3.1780721407671764" height="3.1780721407671764" />
    </g>
    <g transform="translate(-60.0 60.0)">
      <rect x="-1.9362614856958893" y="-1.9362614856958893" width="3.8725229713917786" height="3.8725229713917786" />
      <rect x="-3.090981539350184" y="-3.090981539350184" width="6.181963078700368" height="6.181963078700368" />
      <rect x="-3.87683056939907" y="-3.87683056939907" width="7.75366113879814" height="7.75366113879814" />
      <rect x="-3.303949381024698" y="-3.303949381024698" width="6.607898762049396" height="6.607898762049396" />
      <rect x="-14.60466899107184" y="-14.60466899107184" width="29.20933798214368" height="29.20933798214368" />
      <rect x="-24.680096698063362" y="-24.680096698063362" width="49.360193396126725" height="49.360193396126725" />
      <rect x="-19.76325783719328" y="-19.76325783719328" width="39.52651567438656" height="39.52651567438656" />
      <rect x="-4.104794525811194" y="-4.104794525811194" width="8.209589051622388" height="8.209589051622388" />
      <rect x="-25.532564845259788" y="-25.532564845259788" width="51.065129690519576" height="51.065129690519576" />
      <rect x="-18.4839683931264" y="-18.4839683931264" width="36.9679367862528" height="36.9679367862528" />
    </g>
    <g transform="translate(0.0 60.0)">
      <rect x="-24.168998085207008" y="-24.168998085207008" width="48.337996170414016" height="48.337996170414016" />
      <rect x="-14.809202349194997" y="-14.809202349194997" width="29.618404698389995" height="29.618404698389995" />
      <rect x="-17.795225616589953" y="-17.795225616589953" width="35.590451233179905" height="35.590451233179905" />
      <rect x="-0.8978456506996035" y="-0.8978456506996035" width="1.795691301399207" height="1.795691301399207" />
      <rect x="-4.2004929026729245" y="-4.2004929026729245" width="8.400985805345849" height="8.400985805345849" />
      <rect x="-1.8909792714822393" y="-1.8909792714822393" width="3.7819585429644786" height="3.7819585429644786" />
      <rect x="-13.420729078250742" y="-13.420729078250742" width="26.841458156501485" height="26.841458156501485" />
      <rect x="-12.644050316272422" y="-12.644050316272422" width="25.288100632544843" height="25.288100632544843" />
      <rect x="-18.734167737958238" y="-18.734167737958238" width="37.468335475916476" height="37.468335475916476" />
      <rect x="-0.8493786290819005" y="-0.8493786290819005" width="1.698757258163801" height="1.698757258163801" />
    </g>
    <g transform="translate(60.0 60.0)">
      <rect x="-24.427081708829604" y="-24.427081708829604" width="48.85416341765921" height="48.85416341765921" />
      <rect x="-26.76867134225164" y="-26.76867134225164" width="53.53734268450328" height="53.53734268450328" />
      <rect x="-10.63028893637298" y="-10.63028893637298" width="21.26057787274596" height="21.26057787274596" />
      <rect x="-28.4529739183018" y="-28.4529739183018" width="56.9059478366036" height="56.9059478366036" />
      <rect x="-11.344579989072106" y="-11.344579989072106" width="22.68915997814421" height="22.68915997814421" />
      <rect x="-17.784856102437583" y="-17.784856102437583" width="35.56971220487517" height="35.56971220487517" />
      <rect x="-27.65886240002704" y="-27.65886240002704" width="55.31772480005408" height="55.31772480005408" />
      <rect x="-8.687128930098666" y="-8.687128930098666" width="17.374257860197332" height="17.374257860197332" />
      <rect x="-12.895013464377772" y="-12.895013464377772" width="25.790026928755545" height="25.790026928755545" />
      <rect x="-0.06438361778687951" y="-0.06438361778687951" width="0.12876723557375902" height="0.12876723557375902" />
    </g>
    <g transform="translate(120.0 60.0)">
      <rect x="-17.047051707203487" y="-17.047051707203487" width="34.09410341440697" height="34.09410341440697" />
      <rect x="-2.753773744678182" y="-2.753773744678182" width="5.507547489356364" height="5.507547489356364" />
      <rect x="-22.304885565252718" y="-22.304885565252718" width="44.609771130505436" height="44.609771130505436" />
      <rect x="-21.661484122902287" y="-21.661484122902287" width="43.322968245804574" height="43.322968245804574" />
      <rect x="-23.646630657963275" y="-23.646630657963275" width="47.29326131592655" height="47.29326131592655" />
      <rect x="-23.564352557349213" y="-23.564352557349213" width="47.12870511469843" height="47.12870511469843" />
      <rect x="-28.016999398800227" y="-28.016999398800227" width="56.033998797600454" height="56.033998797600454" />
      <rect x="-19.416509429179737" y="-19.416509429179737" width="38.83301885835947" height="38.83301885835947" />
      <rect x="-25.474747599955585" y="-25.474747599955585" width="50.94949519991117" height="50.94949519991117" />
      <rect x="-15.25232185540855" y="-15.25232185540855" width="30.5046437108171" height="30.5046437108171" />
    </g>
    <g transform="translate(-120.0 120.0)">
      <rect x="-23.543954472349014" y="-23.543954472349014" width="47.08790894469803" height="47.08790894469803" />
      <rect x="-22.187874640052232" y="-22.187874640052232" width="44.375749280104465" height="44.375749280104465" />
      <rect x="-0.5416721580786232" y="-0.5416721580786232" width="1.0833443161572465" height="1.0833443161572465" />
      <rect x="-6.006676211244684" y="-6.006676211244684" width="12.013352422489367" height="12.013352422489367" />
      <rect x="-20.70700445030115" y="-20.70700445030115" width="41.4140089006023" height="41.4140089006023" />
      <rect x="-26.40030193874808" y="-26.40030193874808" width="52.80060387749616" height="52.80060387749616" />
      <rect x="-28.250707180455773" y="-28.250707180455773" width="56.50141436091155" height="56.50141436091155" />
      <rect x="-24.274898605923077" y="-24.274898605923077" width="48.549797211846155" height="48.549797211846155" />
      <rect x="-20.839340892616274" y="-20.839340892616274" width="41.67868178523255" height="41.67868178523255" />
      <rect x="-6.583916189030154" y="-6.583916189030154" width="13.167832378060307" height="13.167832378060307" />
    </g>
    <g transform="translate(-60.0 120.0)">
      <rect x="-8.132732286297767" y="-8.132732286297767" width="16.265464572595533" height="16.265464572595533" />
      <rect x="-18.517409220135075" y="-18.517409220135075" width="37.03481844027015" height="37.03481844027015" />
      <rect x="-2.801301589833738" y="-2.801301589833738" width="5.602603179667476" height="5.602603179667476" />
      <rect x="-21.002485130595968" y="-21.002485130595968" width="42.004970261191936" height="42.004970261191936" />
      <rect x="-15.728403962385348" y="-15.728403962385348" width="31.456807924770697" height="31.456807924770697" />
      <rect x="-25.522528864476453" y="-25.522528864476453" width="51.045057728952905" height="51.045057728952905" />
      <rect x="-23.495507059546533" y="-23.495507059546533" width="46.991014119093066" height="46.991014119093066" />
      <rect x="-28.784245827421145" y="-28.784245827421145" width="57.56849165484229" height="57.56849165484229" />
      <rect x="-12.340072211596679" y="-12.340072211596679" width="24.680144423193358" height="24.680144423193358" />
      <rect x="-6.669328869087967" y="-6.669328869087967" width="13.338657738175934" height="13.338657738175934" />
    </g>
    <g transform="translate(0.0 120.0)">
      <rect x="-9.467127708395848" y="-9.467127708395848" width="18.934255416791697" height="18.934255416791697" />
      <rect x="-22.872273883620974" y="-22.872273883620974" width="45.74454776724195" height="45.74454776724195" />
      <rect x="-27.273172608883367" y="-27.273172608883367" width="54.546345217766735" height="54.546345217766735" />
      <rect x="-21.776345725397135" y="-21.776345725397135" width="43.55269145079427" height="43.55269145079427" />
      <rect x="-17.53476483494708" y="-17.53476483494708" width="35.06952966989416" height="35.06952966989416" />
      <rect x="-11.575436303005528" y="-11.575436303005528" width="23.150872606011056" height="23.150872606011056" />
      <rect x="-24.713471932204595" y="-24.713471932204595" width="49.42694386440919" height="49.42694386440919" />
      <rect x="-7.730501867416923" y="-7.730501867416923" width="15.461003734833845" height="15.461003734833845" />
      <rect x="-27.64829668058376" y="-27.64829668058376" width="55.29659336116752" height="55.29659336116752" />
      <rect x="-25.150884426851455" y="-25.150884426851455" width="50.30176885370291" height="50.30176885370291" />
    </g>
    <g transform="translate(60.0 120.0)">
      <rect x="-28.609062255971367" y="-28.609062255971367" width="57.21812451194273" height="57.21812451194273" />
      <rect x="-9.944373764525483" y="-9.944373764525483" width="19.888747529050967" height="19.888747529050967" />
      <rect x="-15.448241123005976" y="-15.448241123005976" width="30.896482246011953" height="30.896482246011953" />
      <rect x="-1.867309495365197" y="-1.867309495365197" width="3.734618990730394" height="3.734618990730394" />
      <rect x="-6.308399130208708" y="-6.308399130208708" width="12.616798260417417" height="12.616798260417417" />
      <rect x="-17.268024396606933" y="-17.268024396606933" width="34.536048793213865" height="34.536048793213865" />
      <rect x="-27.51292420835855" y="-27.51292420835855" width="55.0258484167171" height="55.0258484167171" />
      <rect x="-18.757994284754897" y="-18.757994284754897" width="37.515988569509794" height="37.515988569509794" />
      <rect x="-9.593092419344098" y="-9.593092419344098" width="19.186184838688195" height="19.186184838688195" />
      <rect x="-11.942874613655473" y="-11.942874613655473" width="23.885749227310946" height="23.885749227310946" />
    </g>
    <g transform="translate(120.0 120.0)">
      <rect x="-17.487679421351245" y="-17.487679421351245" width="34.97535884270249" height="34.97535884270249" />
      <rect x="-25.575287527773643" y="-25.575287527773643" width="51.150575055547286" height="51.150575055547286" />
      <rect x="-13.351691832975547" y="-13.351691832975547" width="26.703383665951094" height="26.703383665951094" />
      <rect x="-22.92862081548778" y="-22.92862081548778" width="45.85724163097556" height="45.85724163097556" />
      <rect x="-18.932219076014306" y="-18.932219076014306" width="37.86443815202861" height="37.86443815202861" />
      <rect x="-8.725669960156146" y="-8.725669960156146" width="17.451339920312293" height="17.451339920312293" />
      <rect x="-8.457471113480619" y="-8.457471113480619" width="16.914942226961237" height="16.914942226961237" />
      <rect x="-2.086462753197651" y="-2.086462753197651" width="4.172925506395302" height="4.172925506395302" />
      <rect x="-1.3499008823936454" y="-1.3499008823936454" width="2.6998017647872907" height="2.6998017647872907" />
      <rect x="-29.20402843023544" y="-29.20402843023544" width="58.40805686047088" height="58.40805686047088" />
    </g>
  </g>
</g>
</svg>
