<svg width="300" height="300" viewBox="-150 -150 300 300" fill="none" stroke="black" xmlns="http://www.w3.org/2000/svg" xmlns:xlink="http://www.w3.org/1999/xlink">
<g transform="scale(1 -1)">
  <g>
    <g transform="translate(-120.0 -120.0)">
      <rect x="-13.362665831784858" y="-13.362665831784858" width="26.725331663569715" height="26.725331663569715" />
      <rect x="-10.339803293298985" y="-10.339803293298985" width="20.67960658659797" height="20.67960658659797" />
      <rect x="-18.02545674775035" y="-18.02545674775035" width="36.0509134955007" height="36.0509134955007" />
      <rect x="-13.351008038382348" y="-13.351008038382348" width="26.702016076764696" height="26.702016076764696" />
      <rect x="-5.067745529339481" y="-5.067745529339481" width="10.135491058678962" height="10.135491058678962" />
      <rect x="-14.398038613988103" y="-14.398038613988103" width="28.796077227976205" height="28.796077227976205" />
      <rect x="-16.847470544354493" y="-16.847470544354493" width="33.69494108870899" height="33.69494108870899" />
      <rect x="-25.72703188235974" y="-25.72703188235974" width="51.45406376471948" height="51.45406376471948" />
      <rect x="-7.78459849793448" y="-7.78459849793448" width="15.56919699586896" height="15.56919699586896" />
      <rect x="-6.957465224826582" y="-6.957465224826582" width="13.914930449653165" height="13.914930449653165" />
    </g>
    <g transform="translate(-60.0 -120.0)">
      <rect x="-9.121923340335128" y="-9.121923340335128" width="18.243846680670256" height="18.243846680670256" />
      <rect x="-18.24254234472117" y="-18.24254234472117" width="36.48508468944234" height="36.48508468944234" />
      <rect x="-29.402163620004046" y="-29.402163620004046" width="58.80432724000809" height="58.80432724000809" />
      <rect x="-28.237430680458246" y="-28.237430680458246" width="56.47486136091649" height="56.47486136091649" />
      <rect x="-26.47737321705072" y="-26.47737321705072" width="52.95474643410144" height="52.95474643410144" />
      <rect x="-12.60466879399987" y="-12.60466879399987" width="25.20933758799974" height="25.20933758799974" />
      <rect x="-24.390610131920464" y="-24.390610131920464" width="48.78122026384093" height="48.78122026384093" />
      <rect x="-27.793829954098392" y="-27.793829954098392" width="55.587659908196784" height="55.587659908196784" />
      <rect x="-16.378090273831" y="-16.378090273831" width="32.756180547662" height="32.756180547662" />
      <rect x="-19.100186854073396" y="-19.100186854073396" width="38.20037370814679" height="38.20037370814679" />
    </g>
    <g transform="translate(0.0 -120.0)">
      <rect x="-22.96777686610856" y="-22.96777686610856" width="45.93555373221712" height="45.93555373221712" />
      <rect x="-22.089528746690046" y="-22.089528746690046" width="44.17905749338009" height="44.17905749338009" />
      <rect x="-22.966024013056288" y="-22.966024013056288" width="45.932048026112575" height="45.932048026112575" />
      <rect x="-15.96114643890767" y="-15.96114643890767" width="31.92229287781534" height="31.92229287781534" />
      <rect x="-11.739889280588617" y="-11.739889280588617" width="23.479778561177234" height="23.479778561177234" />
      <rect x="-9.996964637290294" y="-9.996964637290294" width="19.993929274580587" height="19.993929274580587" />
      <rect x="-22.672583750149514" y="-22.672583750149514" width="45.34516750029903" height="45.34516750029903" />
      <rect x="-22.088878938959525" y="-22.088878938959525" width="44.17775787791905" height="44.17775787791905" />
      <rect x="-14.72818135961843" y="-14.72818135961843" width="29.45636271923686" height="29.45636271923686" />
      <rect x="-21.001346746499483" y="-21.001346746499483" width="42.002693492998965" height="42.002693492998965" />
    </g>
    <g transform="translate(60.0 -120.0)">
      <rect x="-23.680432331488447" y="-23.680432331488447" width="47.360864662976894" height="47.360864662976894" />
      <rect x="-7.747259988892901" y="-7.747259988892901" width="15.494519977785801" height="15.494519977785801" />
      <rect x="-24.05495341191232" y="-24.05495341191232" width="48.10990682382464" height="48.10990682382464" />
      <rect x="-1.9596840672774707" y="-1.9596840672774707" width="3.9193681345549414" height="3.9193681345549414" />
      <rect x="-7.883845636717215" y="-7.883845636717215" width="15.76769127343443" height="15.76769127343443" />
      <rect x="-26.407488114797925" y="-26.407488114797925" width="52.81497622959585" height="52.81497622959585" />
      <rect x="-7.53051323054886" y="-7.53051323054886" width="15.06102646109772" height="15.06102646109772" />
      <rect x="-27.83974534562804" y="-27.83974534562804" width="55.67949069125608" height="55.67949069125608" />
      <rect x="-13.315708253023312" y="-13.315708253023312" width="26.631416506046623" height="26.631416506046623" />
      <rect x="-6.64670301792714" y="-6.64670301792714" width="13.29340603585428" height="13.29340603585428" />
    </g>
    <g transform="translate(120.0 -120.0)">
      <rect x="-5.3345246695922715" y="-5.3345246695922715" width="10.669049339184543" height="10.669049339184543" />
      <rect x="-3.3537222190588514" y="-3.3537222190588514" width="6.707444438117703" height="6.707444438117703" />
      <rect x="-24.845027777845136" y="-24.845027777845136" width="49.69005555569027" height="49.69005555569027" />
      <rect x="-10.186958074126798" y="-10.186958074126798" width="20.373916148253596" height="20.373916148253596" />
      <rect x="-18.33585596939132" y="-18.33585596939132" width="36.67171193878264" height="36.67171193878264" />
      <rect x="-3.0592928344457846" y="-3.0592928344457846" width="6.118585668891569" height="6.118585668891569" />
      <rect x="-25.186906520683248" y="-25.186906520683248" width="50.373813041366496" height="50.373813041366496" />
      <rect x="-18.299411529416663" y="-18.299411529416663" width="36.598823058833325" height="36.598823058833325" />
      <rect x="-9.642622745812142" y="-9.642622745812142" width="19.285245491624284" height="19.285245491624284" />
      <rect x="-28.826672939903066" y="-28.826672939903066" width="57.65334587980613" height="57.65334587980613" />
    </g>
    <g transform="translate(-120.0 -60.0)">
      <rect x="-24.28775833804069" y="-24.28775833804069" width="48.57551667608138" height="48.57551667608138" />
      <rect x="-22.11494475666391" y="-22.11494475666391" width="44.22988951332782" height="44.22988951332782" />
      <rect x="-29.215122064174366" y="-29.215122064174366" width="58.43024412834873" height="58.43024412834873" />
      <rect x="-18.509312955044138" y="-18.509312955044138" width="37.018625910088275" height="37.018625910088275" />
      <rect x="-17.580871737997953" y="-17.580871737997953" width="35.161743475995905" height="35.161743475995905" />
      <rect x="-14.827390091748288" y="-14.827390091748288" width="29.654780183496577" height="29.654780183496577" />
      <rect x="-27.232998459744785" y="-27.232998459744785" width="54.46599691948957" height="54.46599691948957" />
      <rect x="-1.9142557798867732" y="-1.9142557798867732" width="3.8285115597735464" height="3.8285115597735464" />
      <rect x="-26.179604494773614" y="-26.179604494773614" width="52.35920898954723" height="52.35920898954723" />
      <rect x="-27.536121436525402" y="-27.536121436525402" width="55.072242873050804" height="55.072242873050804" />
    </g>
    <g transform="translate(-60.0 -60.0)">
      <rect x="-17.18665724176193" y="-17.18665724176193" width="34.37331448352386" height="34.37331448352386" />
      <rect x="-25.440319666622088" y="-25.440319666622088" width="50.880639333244176" height="50.880639333244176" />
      <rect x="-1.4641875961786865" y="-1.4641875961786865" width="2.928375192357373" height="2.928375192357373" />
      <rect x="-4.38765762530582" y="-4.38765762530582" width="8.77531525061164" height="8.77531525061164" />
      <rect x="-8.136670549523167" y="-8.136670549523167" width="16.273341099046334" height="16.273341099046334" />
      <rect x="-18.91779261096211" y="-18.91779261096211" width="37.83558522192422" height="37.83558522192422" />
      <rect x="-14.614228972054455" y="-14.614228972054455" width="29.22845794410891" height="29.22845794410891" />
      <rect x="-25.217288735371962" y="-25.217288735371962" width="50.434577470743925" height="50.434577470743925" />
      <rect x="-4.062032230167984" y="-4.062032230167984" width="8.124064460335967" height="8.124064460335967" />
      <rect x="-21.566358072279403" y="-21.566358072279403" width="43.132716144558806" height="43.132716144558806" />
    </g>
    <g transform="translate(0.0 -60.0)">
      <rect x="-26.537248695986364" y="-26.537248695986364" width="53.07449739197273" height="53.07449739197273" />
      <rect x="-26.666194010964595" y="-26.666194010964595" width="53.33238802192919" height="53.33238802192919" />
      <rect x="-19.72500982289087" y="-19.72500982289087" width="39.45001964578174" height="39.45001964578174" />
      <rect x="-5.585461679868613" y="-5.585461679868613" width="11.170923359737227" height="11.170923359737227" />
      <rect x="-28.689701863279822" y="-28.689701863279822" width="57.379403726559644" height="57.379403726559644" />
      <rect x="-16.080278828215537" y="-16.080278828215537" width="32.160557656431074" height="32.160557656431074" />
      <rect x="-9.348672292743055" y="-9.348672292743055" width="18.69734458548611" height="18.69734458548611" />
      <rect x="-18.449044721459273" y="-18.449044721459273" width="36.89808944291855" height="36.89808944291855" />
      <rect x="-12.236657327880282" y="-12.236657327880282" width="24.473314655760564" height="24.473314655760564" />
      <rect x="-22.950160172006324" y="-22.950160172006324" width="45.90032034401265" height="45.90032034401265" />
    </g>
    <g transform="translate(60.0 -60.0)">
      <rect x="-23.985765033641194" y="-23.985765033641194" width="47.97153006728239" height="47.97153006728239" />
      <rect x="-14.581099173174035" y="-14.581099173174035" width="29.16219834634807" height="29.16219834634807" />
      <rect x="-4.693927868583476" y="-4.693927868583476" width="9.387855737166952" height="9.387855737166952" />
      <rect x="-20.739680863702567" y="-20.739680863702567" width="41.479361727405134" height="41.479361727405134" />
      <rect x="-1.0697727403166635" y="-1.0697727403166635" width="2.139545480633327" height="2.139545480633327" />
      <rect x="-22.91963864532708" y="-22.91963864532708" width="45.83927729065416" height="45.83927729065416" />
      <rect x="-27.505757607943288" y="-27.505757607943288" width="55.011515215886575" height="55.011515215886575" />
      <rect x="-8.024797506272712" y="-8.024797506272712" width="16.049595012545424" height="16.049595012545424" />
      <rect x="-13.156793478384474" y="-13.156793478384474" width="26.313586956768948" height="26.313586956768948" />
      <rect x="-28.959210926238462" y="-28.959210926238462" width="57.918421852476925" height="57.918421852476925" />
    </g>
    <g transform="translate(120.0 -60.0)">
      <rect x="-15.742180586974065" y="-15.742180586974065" width="31.48436117394813" height="31.48436117394813" />
      <rect x="-1.5675903249977252" y="-1.5675903249977252" width="3.1351806499954504" height="3.1351806499954504" />
      <rect x="-9.496389733338109" y="-9.496389733338109" width="18.992779466676218" height="18.992779466676218" />
      <rect x="-21.196251391226227" y="-21.196251391226227" width="42.39250278245245" height="42.39250278245245" />
      <rect x="-16.54069436434524" y="-16.54069436434524" width="33.08138872869048" height="33.08138872869048" />
      <rect x="-12.610229771585594" y="-12.610229771585594" width="25.220459543171188" height="25.220459543171188" />
      <rect x="-1.0598614485002134" y="-1.0598614485002134" width="2.1197228970004267" height="2.1197228970004267" />
      <rect x="-5.936784287881714" y="-5.936784287881714" width="11.873568575763429" height="11.873568575763429" />
      <rect x="-4.264671708128242" y="-4.264671708128242" width="8.529343416256484" height="8.529343416256484" />
      <rect x="-7.867086254369107" y="-7.867086254369107" width="15.734172508738213" height="15.734172508738213" />
    </g>
    <g transform="translate(-120.0 0.0)">
      <rect x="-14.625486036875214" y="-14.625486036875214" width="29.25097207375043" height="29.25097207375043" />
      <rect x="-23.742105346314524" y="-23.742105346314524" width="47.48421069262905" height="47.48421069262905" />
      <rect x="-18.124174591042618" y="-18.124174591042618" width="36.248349182085235" height="36.248349182085235" />
      <rect x="-15.66019602540713" y="-15.66019602540713" width="31.32039205081426" height="31.32039205081426" />
      <rect x="-26.652582128762294" y="-26.652582128762294" width="53.30516425752459" height="53.30516425752459" />
      <rect x="-26.17393262765528" y="-26.17393262765528" width="52.34786525531056" height="52.34786525531056" />
      <rect x="-4.919134586620349" y="-4.919134586620349" width="9.838269173240699" height="9.838269173240699" />
      <rect x="-5.177327368440135" y="-5.177327368440135" width="10.35465473688027" height="10.35465473688027" />
      <rect x="-18.835727418612098" y="-18.835727418612098" width="37.671454837224196" height="37.671454837224196" />
      <rect x="-5.5885390841503035" y="-5.5885390841503035" width="11.177078168300607" height="11.177078168300607" />
    </g>
    <g transform="translate(-60.0 0.0)">
      <rect x="-26.04045040243113" y="-26.04045040243113" width="52.08090080486226" height="52.08090080486226" />
      <rect x="-2.6436824311586715" y="-2.6436824311586715" width="5.287364862317343" height="5.287364862317343" />
      <rect x="-27.624086030844285" y="-27.624086030844285" width="55.24817206168857" height="55.24817206168857" />
      <rect x="-17.495319981070157" y="-17.495319981070157" width="34.990639962140314" height="34.990639962140314" />
      <rect x="-8.716891435675585" y="-8.716891435675585" width="17.43378287135117" height="17.43378287135117" />
      <rect x="-25.819702667886173" y="-25.819702667886173" width="51.639405335772345" height="51.639405335772345" />
      <rect x="-2.9197868470578348" y="-2.9197868470578348" width="5.8395736941156695" height="5.8395736941156695" />
      <rect x="-11.632219560741" y="-11.632219560741" width="23.264439121482" height="23.264439121482" />
      <rect x="-17.884748341344014" y="-17.884748341344014" width="35.76949668268803" height="35.76949668268803" />
      <rect x="-24.87495132588328" y="-24.87495132588328" width="49.74990265176656" height="49.74990265176656" />
    </g>
    <g transform="translate(0.0 0.0)">
      <rect x="-27.47116407458431" y="-27.47116407458431" width="54.94232814916862" height="54.94232814916862" />
      <rect x="-0.538268149770672" y="-0.538268149770672" width="1.076536299541344" height="1.076536299541344" />
      <rect x="-13.03187580497851" y="-13.03187580497851" width="26.06375160995702" height="26.06375160995702" />
      <rect x="-27.204097473442683" y="-27.204097473442683" width="54.40819494688537" height="54.40819494688537" />
      <rect x="-20.49394225917273" y="-20.49394225917273" width="40.98788451834546" height="40.98788451834546" />
      <rect x="-22.593733585316222" y="-22.593733585316222" width="45.187467170632445" height="45.187467170632445" />
      <rect x="-1.9376595257636287" y="-1.9376595257636287" width="3.8753190515272573" height="3.8753190515272573" />
      <rect x="-7.706828816945123" y="-7.706828816945123" width="15.413657633890246" height="15.413657633890246" />
      <rect x="-16.2294664668852" y="-16.2294664668852" width="32.4589329337704" height="32.4589329337704" />
      <rect x="-5.065536692158993" y="-5.065536692158993" width="10.131073384317986" height="10.131073384317986" />
    </g>
    <g transform="translate(60.0 0.0)">
      <rect x="-3.199054884229372" y="-3.199054884229372" width="6.398109768458744" height="6.398109768458744" />
      <rect x="-16.499612200854735" y="-16.499612200854735" width="32.99922440170947" height="32.99922440170947" />
      <rect x="-22.95413663840103" y="-22.95413663840103" width="45.90827327680206" height="45.90827327680206" />
      <rect x="-6.660867602392385" y="-6.660867602392385" width="13.32173520478477" height="13.32173520478477" />
      <rect x="-9.88815095282511" y="-9.88815095282511" width="19.77630190565022" height="19.77630190565022" />
      <rect x="-9.736103773970907" y="-9.736103773970907" width="19.472207547941814" height="19.472207547941814" />
      <rect x="-23.31842737943732" y="-23.31842737943732" width="46.63685475887464" height="46.63685475887464" />
      <rect x="-5.23187623613477" y="-5.23187623613477" width="10.46375247226954" height="10.46375247226954" />
      <rect x="-23.77220540988776" y="-23.77220540988776" width="47.54441081977552" height="47.54441081977552" />
      <rect x="-27.102073045613047" y="-27.102073045613047" width="54.20414609122609" height="54.20414609122609" />
    </g>
    <g transform="translate(120.0 0.0)">
      <rect x="-16.207106324132145" y="-16.207106324132145" width="32.41421264826429" height="32.41421264826429" />
      <rect x="-27.83577997151398" y="-27.83577997151398" width="55.67155994302796" height="55.67155994302796" />
      <rect x="-5.1121356904482536" y="-5.1121356904482536" width="10.224271380896507" height="10.224271380896507" />
      <rect x="-11.703434718804344" y="-11.703434718804344" width="23.406869437608687" height="23.406869437608687" />
      <rect x="-1.91095057615846" y="-1.91095057615846" width="3.82190115231692" height="3.82190115231692" />
      <rect x="-19.08276403101636" y="-19.08276403101636" width="38.16552806203272" height="38.16552806203272" />
      <rect x="-28.117920961421447" y="-28.117920961421447" width="56.235841922842894" height="56.235841922842894" />
      <rect x="-18.357530336522352" y="-18.357530336522352" width="36.715060673044704" height="36.715060673044704" />
      <rect x="-12.247666022932847" y="-12.247666022932847" width="24.495332045865695" height="24.495332045865695" />
      <rect x="-20.25569012662475" y="-20.25569012662475" width="40.5113802532495" height="40.5113802532495" />
    </g>
    <g transform="translate(-120.0 60.0)">
      <rect x="-7.683415797215015" y="-7.683415797215015" width="15.36683159443003" height="15.36683159443003" />
      <rect x="-2.5741572722675454" y="-2.5741572722675454" width="5.148314544535091" height="5.148314544535091" />
      <rect x="-10.627555399103294" y="-10.627555399103294" width="21.255110798206587" height="21.255110798206587" />
      <rect x="-24.131274214840015" y="-24.131274214840015" width="48.26254842968003" height="48.26254842968003" />
      <rect x="-26.845121786413404" y="-26.845121786413404" width="53.69024357282681" height="53.69024357282681" />
      <rect x="-6.682270217593825" y="-6.682270217593825" width="13.36454043518765" height="13.36454043518765" />
      <rect x="-15.354332778196866" y="-15.354332778196866" width="30.708665556393733" height="30.708665556393733" />
      <rect x="-0.5363673721724438" y="-0.5363673721724438" width="1.0727347443448876" height="1.0727347443448876" />
      <rect x="-24.723913561558025" y="-24.723913561558025" width="49.44782712311605" height="49.44782712311605" />
      <rect x="-21.67446816676007" y="-21.67446816676007" width="43.34893633352014" height="43.34893633352014" />
    </g>
    <g transform="translate(-60.0 60.0)">
      <rect x="-19.713070934590135" y="-19.713070934590135" width="39.42614186918027" height="39.42614186918027" />
      <rect x="-23.218675215774464" y="-23.218675215774464" width="46.43735043154893" height="46.43735043154893" />
      <rect x="-13.720652859859081" y="-13.720652859859081" width="27.441305719718162" height="27.441305719718162" />
      <rect x="-1.0271723760412843" y="-1.0271723760412843" width="2.0543447520825686" height="2.0543447520825686" />
      <rect x="-29.65331388053345" y="-29.65331388053345" width="59.3066277610669" height="59.3066277610669" />
      <rect x="-26.46116365854056" y="-26.46116365854056" width="52.92232731708112" height="52.92232731708112" />
      <rect x="-4.111304226036589" y="-4.111304226036589" width="8.222608452073178" height="8.222608452073178" />
      <rect x="-21.764230595638434" y="-21.764230595638434" width="43.52846119127687" height="43.52846119127687" />
      <rect x="-27.376322912954056" y="-27.376322912954056" width="54.75264582590811" height="54.75264582590811" />
      <rect x="-24.483824350648213" y="-24.483824350648213" width="48.967648701296426" height="48.967648701296426" />
    </g>
    <g transform="translate(0.0 60.0)">
      <rect x="-24.482119109134224" y="-24.482119109134224" width="48.96423821826845" height="48.96423821826845" />
      <rect x="-29.135586786468107" y="-29.135586786468107" width="58.27117357293621" height="58.27117357293621" />
      <rect x="-27.17400467570851" y="-27.17400467570851" width="54.34800935141702" height="54.34800935141702" />
      <rect x="-13.348467519722757" y="-13.348467519722757" width="26.696935039445513" height="26.696935039445513" />
      <rect x="-0.02703784996160863" y="-0.02703784996160863" width="0.05407569992321726" height="0.05407569992321726" />
      <rect x="-8.578630190853426" y="-8.578630190853426" width="17.157260381706852" height="17.157260381706852" />
      <rect x="-2.3421379231160633" y="-2.3421379231160633" width="4.684275846232127" height="4.684275846232127" />
      <rect x="-6.67221441868011" y="-6.67221441868011" width="13.34442883736022" height="13.34442883736022" />
      <rect x="-22.954508747277476" y="-22.954508747277476" width="45.90901749455495" height="45.90901749455495" />
      <rect x="-20.514874551439835" y="-20.514874551439835" width="41.02974910287967" height="41.02974910287967" />
    </g>
    <g transform="translate(60.0 60.0)">
      <rect x="-21.37180336267197" y="-21.37180336267197" width="42.74360672534394" height="42.74360672534394" />
      <rect x="-23.166822011530105" y="-23.166822011530105" width="46.33364402306021" height="46.33364402306021" />
      <rect x="-7.148192147342063" y="-7.148192147342063" width="14.296384294684126" height="14.296384294684126" />
      <rect x="-2.997004561677026" y="-2.997004561677026" width="5.994009123354052" height="5.994009123354052" />
      <rect x="-27.08181418242189" y="-27.08181418242189" width="54.16362836484378" height="54.16362836484378" />
      <rect x="-21.382659966874634" y="-21.382659966874634" width="42.76531993374927" height="42.76531993374927" />
      <rect x="-20.827989291500664" y="-20.827989291500664" width="41.65597858300133" height="41.65597858300133" />
      <rect x="-19.844515686960147" y="-19.844515686960147" width="39.689031373920294" height="39.689031373920294" />
      <rect x="-11.001908716316969" y="-11.001908716316969" width="22.003817432633937" height="22.003817432633937" />
      <rect x="-27.54108889894234" y="-27.54108889894234" width="55.08217779788468" height="55.08217779788468" />
    </g>
    <g transform="translate(120.0 60.0)">
      <rect x="-20.758617920262793" y="-20.758617920262793" width="41.517235840525586" height="41.517235840525586" />
      <rect x="-28.141037633508784" y="-28.141037633508784" width="56.28207526701757" height="56.28207526701757" />
      <rect x="-10.812014700304003" y="-10.812014700304003" width="21.624029400608006" height="21.624029400608006" />
      <rect x="-12.16950609484583" y="-12.16950609484583" width="24.33901218969166" height="24.33901218969166" />
      <rect x="-21.912696939956568" y="-21.912696939956568" width="43.825393879913136" height="43.825393879913136" />
      <rect x="-14.601720902585308" y="-14.601720902585308" width="29.203441805170616" height="29.203441805170616" />
      <rect x="-8.89004016285574" y="-8.89004016285574" width="17.78008032571148" height="17.78008032571148" />
      <rect x="-5.645599993043553" y="-5.645599993043553" width="11.291199986087106" height="11.291199986087106" />
      <rect x="-18.577816897189418" y="-18.577816897189418" width="37.155633794378836" height="37.155633794378836" />
      <rect x="-15.269814931971561" y="-15.269814931971561" width="30.539629863943123" height="30.539629863943123" />
    </g>
    <g transform="translate(-120.0 120.0)">
      <rect x="-8.26223843751334" y="-8.26223843751334" width="16.52447687502668" height="16.52447687502668" />
      <rect x="-22.317992733889792" y="-22.317992733889792" width="44.635985467779584" height="44.635985467779584" />
      <rect x="-16.715890763759152" y="-16.715890763759152" width="33.431781527518304" height="33.431781527518304" />
      <rect x="-15.75231109141053" y="-15.75231109141053" width="31.50462218282106" height="31.50462218282106" />
      <rect x="-2.439841912352192" y="-2.439841912352192" width="4.879683824704384" height="4.879683824704384" />
      <rect x="-14.653019442762398" y="-14.653019442762398" width="29.306038885524796" height="29.306038885524796" />
      <rect x="-13.532088121620692" y="-13.532088121620692" width="27.064176243241384" height="27.064176243241384" />
      <rect x="-2.8764641663468584" y="-2.8764641663468584" width="5.752928332693717" height="5.752928332693717" />
      <rect x="-20.223830998676654" y="-20.223830998676654" width="40.44766199735331" height="40.44766199735331" />
      <rect x="-26.408920170284013" y="-26.408920170284013" width="52.817840340568026" height="52.817840340568026" />
    </g>
    <g transform="translate(-60.0 120.0)">
      <rect x="-8.824879270119455" y="-8.824879270119455" width="17.64975854023891" height="17.64975854023891" />
      <rect x="-25.23439977464938" y="-25.23439977464938" width="50.46879954929876" height="50.46879954929876" />
      <rect x="-5.546217010889078" y="-5.546217010889078" width="11.092434021778155" height="11.092434021778155" />
      <rect x="-13.864064792040852" y="-13.864064792040852" width="27.728129584081703" height="27.728129584081703" />
      <rect x="-14.207730266112168" y="-14.207730266112168" width="28.415460532224337" height="28.415460532224337" />
      <rect x="-12.911378196514356" y="-12.911378196514356" width="25.822756393028712" height="25.822756393028712" />
      <rect x="-22.53822922089711" y="-22.53822922089711" width="45.07645844179422" height="45.07645844179422" />
      <rect x="-14.11767369743766" y="-14.11767369743766" width="28.23534739487532" height="28.23534739487532" />
      <rect x="-14.444432196753777" y="-14.444432196753777" width="28.888864393507554" height="28.888864393507554" />
      <rect x="-25.474149518968073" y="-25.474149518968073" width="50.948299037936145" height="50.948299037936145" />
    </g>
    <g transform="translate(0.0 120.0)">
      <rect x="-18.568716854745393" y="-18.568716854745393" width="37.137433709490786" height="37.137433709490786" />
      <rect x="-3.206690570655686" y="-3.206690570655686" width="6.413381141311372" height="6.413381141311372" />
      <rect x="-28.680612100944977" y="-28.680612100944977" width="57.361224201889954" height="57.361224201889954" />
      <rect x="-9.101673390903692" y="-9.101673390903692" width="18.203346781807383" height="18.203346781807383" />
      <rect x="-2.5407338681903835" y="-2.5407338681903835" width="5.081467736380767" height="5.081467736380767" />
      <rect x="-0.8940584698949139" y="-0.8940584698949139" width="1.7881169397898278" height="1.7881169397898278" />
      <rect x="-2.0281345008680427" y="-2.0281345008680427" width="4.056269001736085" height="4.056269001736085" />
      <rect x="-27.826621436847756" y="-27.826621436847756" width="55.65324287369551" height="55.65324287369551" />
      <rect x="-19.324434214768424" y="-19.324434214768424" width="38.64886842953685" height="38.64886842953685" />
      <rect x="-20.950140605615175" y="-20.950140605615175" width="41.90028121123035" height="41.90028121123035" />
    </g>
    <g transform="translate(60.0 120.0)">
      <rect x="-5.0131375342743665" y="-5.0131375342743665" width="10.026275068548733" height="10.026275068548733" />
      <rect x="-7.3535979447542665" y="-7.3535979447542665" width="14.707195889508533" height="14.707195889508533" />
      <rect x="-1.4107448228367947" y="-1.4107448228367947" width="2.8214896456735894" height="2.8214896456735894" />
      <rect x="-27.68592612897338" y="-27.68592612897338" width="55.37185225794676" height="55.37185225794676" />
      <rect x="-0.48757052506209986" y="-0.48757052506209986" width="0.9751410501241997" height="0.9751410501241997" />
      <rect x="-9.622583613163346" y="-9.622583613163346" width="19.245167226326693" height="19.245167226326693" />
      <rect x="-0.8348785755320376" y="-0.8348785755320376" width="1.6697571510640752" height="1.6697571510640752" />
      <rect x="-22.309305440446895" y="-22.309305440446895" width="44.61861088089379" height="44.61861088089379" />
      <rect x="-2.6635165887259427" y="-2.6635165887259427" width="5.327033177451885" height="5.327033177451885" />
      <rect x="-15.595965746634736" y="-15.595965746634736" width="31.191931493269472" height="31.191931493269472" />
    </g>
    <g transform="translate(120.0 120.0)">
      <rect x="-26.213365295122387" y="-26.213365295122387" width="52.42673059024477" height="52.42673059024477" />
      <rect x="-14.905537610912091" y="-14.905537610912091" width="29.811075221824183" height="29.811075221824183" />
      <rect x="-15.201487100261494" y="-15.201487100261494" width="30.402974200522987" height="30.402974200522987" />
      <rect x="-27.64110454940529" y="-27.64110454940529" width="55.28220909881058" height="55.28220909881058" />
      <rect x="-12.820537610902417" y="-12.820537610902417" width="25.641075221804833" height="25.641075221804833" />
      <rect x="-13.947274948932527" y="-13.947274948932527" width="27.894549897865055" height="27.894549897865055" />
      <rect x="-2.5214741344335168" y="-2.5214741344335168" width="5.0429482688670335" height="5.0429482688670335" />
      <rect x="-14.713186048565895" y="-14.713186048565895" width="29.42637209713179" height="29.42637209713179" />
      <rect x="-22.403024623988607" y="-22.403024623988607" width="44.806049247977214" height="44.806049247977214" />
      <rect x="-2.435946086797063" y="-2.435946086797063" width="4.871892173594126" height="4.871892173594126" />
    </g>
  </g>
</g>
</svg>
