<svg width="300" height="300" viewBox="-150 -150 300 300" fill="none" stroke="black" xmlns="http://www.w3.org/2000/svg" xmlns:xlink="http://www.w3.org/1999/xlink">
<g transform="scale(1 -1)">
  <g>
    <rect x="-82.16025692850158" y="-82.16025692850158" width="164.32051385700316" height="164.32051385700316" />
    <rect x="-38.594794225218344" y="-38.594794225218344" width="77.18958845043669" height="77.18958845043669" />
    <rect x="-46.682186294850865" y="-46.682186294850865" width="93.36437258970173" height="93.36437258970173" />
    <rect x="-47.67272245866978" y="-47.67272245866978" width="95.34544491733956" height="95.34544491733956" />
    <rect x="-48.61604270772522" y="-48.61604270772522" width="97.23208541545044" height="97.23208541545044" />
    <rect x="-15.81994321288932" y="-15.81994321288932" width="31.63988642577864" height="31.63988642577864" />
    <rect x="-86.10397150957293" y="-86.10397150957293" width="172.20794301914586" height="172.20794301914586" />
    <rect x="-49.94991093487375" y="-49.94991093487375" width="99.8998218697475" height="99.8998218697475" />
    <rect x="-101.88693376484159" y="-101.88693376484159" width="203.77386752968317" height="203.77386752968317" />
    <rect x="-18.449020009942014" y="-18.449020009942014" width="36.89804001988403" height="36.89804001988403" />
    <rect x="-84.58548490332774" y="-84.58548490332774" width="169.17096980665548" height="169.17096980665548" />
    <rect x="-104.8860099299497" y="-104.8860099299497" width="209.7720198598994" height="209.7720198598994" />
    <rect x="-9.768663209192757" y="-9.768663209192757" width="19.537326418385515" height="19.537326418385515" />
    <rect x="-48.17338149513213" y="-48.17338149513213" width="96.34676299026427" height="96.34676299026427" />
    <rect x="-19.87913750881895" y="-19.87913750881895" width="39.7582750176379" height="39.7582750176379" />
  </g>
</g>
</svg>
