<svg width="300" height="300" viewBox="-150 -150 300 300" fill="none" stroke="black" xmlns="http://www.w3.org/2000/svg" xmlns:xlink="http://www.w3.org/1999/xlink">
<g transform="scale(1 -1)">
  <g>
    <circle cx="0" cy="0" r="38.797545542762634" />
    <circle cx="0" cy="0" r="74.1843288283819" />
    <circle cx="0" cy="0" r="122.68428926787877" />
    <circle cx="0" cy="0" r="48.43504641308575" />
    <circle cx="0" cy="0" r="74.73939446543473" />
    <circle cx="0" cy="0" r="120.8782100928902" />
    <circle cx="0" cy="0" r="71.34882502787625" />
    <circle cx="0" cy="0" r="119.59092929558295" />
    <circle cx="0" cy="0" r="43.52390347754237" />
    <circle cx="0" cy="0" r="57.6567879628754" />
    <circle cx="0" cy="0" r="21.933613109082657" />
    <circle cx="0" cy="0" r="80.73693720648455" />
    <circle cx="0" cy="0" r="17.68198106574087" />
    <circle cx="0" cy="0" r="11.006234904396827" />
    <circle cx="0" cy="0" r="30.082935207738963" />
    <circle cx="0" cy="0" r="54.63739313975752" />
    <circle cx="0" cy="0" r="19.48147247720647" />
    <circle cx="0" cy="0" r="137.3546897739458" />
    <circle cx="0" cy="0" r="105.81159631516597" />
    <circle cx="0" cy="0" r="5.637718555802268" />
    <circle cx="0" cy="0" r="55.91175281051793" />
    <circle cx="0" cy="0" r="138.65863955452602" />
    <circle cx="0" cy="0" r="142.15149171649202" />
    <circle cx="0" cy="0" r="92.16300726614011" />
    <circle cx="0" cy="0" r="139.6954406004902" />
    <circle cx="0" cy="0" r="34.27036861725817" />
    <circle cx="0" cy="0" r="57.921755768713" />
    <circle cx="0" cy="0" r="81.72230614054797" />
    <circle cx="0" cy="0" r="52.37326448126039" />
    <circle cx="0" cy="0" r="54.42312193943179" />
  </g>
</g>
</svg>
