<svg width="300" height="300" viewBox="-150 -150 300 300" fill="none" stroke="black" xmlns="http://www.w3.org/2000/svg" xmlns:xlink="http://www.w3.org/1999/xlink">
<g transform="scale(1 -1)">
  <g>
    <g transform="translate(-140.625 -140.625)">
      <circle cx="0" cy="0" r="9.375" />
      <circle cx="0" cy="0" r="4.6875" />
    </g>
    <g transform="translate(-121.875 -140.625)">
      <circle cx="0" cy="0" r="9.375" />
      <circle cx="0" cy="0" r="4.6875" />
    </g>
    <g transform="translate(-103.125 -140.625)">
      <circle cx="0" cy="0" r="9.375" />
      <circle cx="0" cy="0" r="4.6875" />
    </g>
    <g transform="translate(-84.375 -140.625)">
      <circle cx="0" cy="0" r="9.375" />
      <circle cx="0" cy="0" r="4.6875" />
    </g>
    <g transform="translate(-65.625 -140.625)">
      <circle cx="0" cy="0" r="9.375" />
      <circle cx="0" cy="0" r="4.6875" />
    </g>
    <g transform="translate(-46.875 -140.625)">
      <circle cx="0" cy="0" r="9.375" />
      <circle cx="0" cy="0" r="4.6875" />
    </g>
    <g transform="translate(-28.125 -140.625)">
      <circle cx="0" cy="0" r="9.375" />
      <circle cx="0" cy="0" r="4.6875" />
    </g>
    <g transform="translate(-9.375 -140.625)">
      <circle cx="0" cy="0" r="9.375" />
      <circle cx="0" cy="0" r="4.6875" />
    </g>
    <g transform="translate(9.375 -140.625)">
      <circle cx="0" cy="0" r="9.375" />
      <circle cx="0" cy="0" r="4.6875" />
    </g>
    <g transform="translate(28.125 -140.625)">
      <circle cx="0" cy="0" r="9.375" />
      <circle cx="0" cy="0" r="4.6875" />
    </g>
    <g transform="translate(46.875 -140.625)">
      <circle cx="0" cy="0" r="9.375" />
      <circle cx="0" cy="0" r="4.6875" />
    </g>
    <g transform="translate(65.625 -140.625)">
      <circle cx="0" cy="0" r="9.375" />
      <circle cx="0" cy="0" r="4.6875" />
    </g>
    <g transform="translate(84.375 -140.625)">
      <circle cx="0" cy="0" r="9.375" />
      <circle cx="0" cy="0" r="4.6875" />
    </g>
    <g transform="translate(103.125 -140.625)">
      <circle cx="0" cy="0" r="9.375" />
      <circle cx="0" cy="0" r="4.6875" />
    </g>
    <g transform="translate(121.875 -140.625)">
      <circle cx="0" cy="0" r="9.375" />
      <circle cx="0" cy="0" r="4.6875" />
    </g>
    <g transform="translate(140.625 -140.625)">
      <circle cx="0" cy="0" r="9.375" />
      <circle cx="0" cy="0" r="4.6875" />
    </g>
    <g transform="translate(-140.625 -121.875)">
      <circle cx="0" cy="0" r="9.375" />
      <circle cx="0" cy="0" r="4.6875" />
    </g>
    <g transform="translate(-121.875 -121.875)">
      <circle cx="0" cy="0" r="9.375" />
      <circle cx="0" cy="0" r="4.6875" />
    </g>
    <g transform="translate(-103.125 -121.875)">
      <circle cx="0" cy="0" r="9.375" />
      <circle cx="0" cy="0" r="4.6875" />
    </g>
    <g transform="translate(-84.375 -121.875)">
      <circle cx="0" cy="0" r="9.375" />
      <circle cx="0" cy="0" r="4.6875" />
    </g>
    <g transform="translate(-65.625 -121.875)">
      <circle cx="0" cy="0" r="9.375" />
      <circle cx="0" cy="0" r="4.6875" />
    </g>
    <g transform="translate(-46.875 -121.875)">
      <circle cx="0" cy="0" r="9.375" />
      <circle cx="0" cy="0" r="4.6875" />
    </g>
    <g transform="translate(-28.125 -121.875)">
      <circle cx="0" cy="0" r="9.375" />
      <circle cx="0" cy="0" r="4.6875" />
    </g>
    <g transform="translate(-9.375 -121.875)">
      <circle cx="0" cy="0" r="9.375" />
      <circle cx="0" cy="0" r="4.6875" />
    </g>
    <g transform="translate(9.375 -121.875)">
      <circle cx="0" cy="0" r="9.375" />
      <circle cx="0" cy="0" r="4.6875" />
    </g>
    <g transform="translate(28.125 -121.875)">
      <circle cx="0" cy="0" r="9.375" />
      <circle cx="0" cy="0" r="4.6875" />
    </g>
    <g transform="translate(46.875 -121.875)">
      <circle cx="0" cy="0" r="9.375" />
      <circle cx="0" cy="0" r="4.6875" />
    </g>
    <g transform="translate(65.625 -121.875)">
      <circle cx="0" cy="0" r="9.375" />
      <circle cx="0" cy="0" r="4.6875" />
    </g>
    <g transform="translate(84.375 -121.875)">
      <circle cx="0" cy="0" r="9.375" />
      <circle cx="0" cy="0" r="4.6875" />
    </g>
    <g transform="translate(103.125 -121.875)">
      <circle cx="0" cy="0" r="9.375" />
      <circle cx="0" cy="0" r="4.6875" />
    </g>
    <g transform="translate(121.875 -121.875)">
      <circle cx="0" cy="0" r="9.375" />
      <circle cx="0" cy="0" r="4.6875" />
    </g>
    <g transform="translate(140.625 -121.875)">
      <circle cx="0" cy="0" r="9.375" />
      <circle cx="0" cy="0" r="4.6875" />
    </g>
    <g transform="translate(-140.625 -103.125)">
      <circle cx="0" cy="0" r="9.375" />
      <circle cx="0" cy="0" r="4.6875" />
    </g>
    <g transform="translate(-121.875 -103.125)">
      <circle cx="0" cy="0" r="9.375" />
      <circle cx="0" cy="0" r="4.6875" />
    </g>
    <g transform="translate(-103.125 -103.125)">
      <circle cx="0" cy="0" r="9.375" />
      <circle cx="0" cy="0" r="4.6875" />
    </g>
    <g transform="translate(-84.375 -103.125)">
      <circle cx="0" cy="0" r="9.375" />
      <circle cx="0" cy="0" r="4.6875" />
    </g>
    <g transform="translate(-65.625 -103.125)">
      <circle cx="0" cy="0" r="9.375" />
      <circle cx="0" cy="0" r="4.6875" />
    </g>
    <g transform="translate(-46.875 -103.125)">
      <circle cx="0" cy="0" r="9.375" />
      <circle cx="0" cy="0" r="4.6875" />
    </g>
    <g transform="translate(-28.125 -103.125)">
      <circle cx="0" cy="0" r="9.375" />
      <circle cx="0" cy="0" r="4.6875" />
    </g>
    <g transform="translate(-9.375 -103.125)">
      <circle cx="0" cy="0" r="9.375" />
      <circle cx="0" cy="0" r="4.6875" />
    </g>
    <g transform="translate(9.375 -103.125)">
      <circle cx="0" cy="0" r="9.375" />
      <circle cx="0" cy="0" r="4.6875" />
    </g>
    <g transform="translate(28.125 -103.125)">
      <circle cx="0" cy="0" r="9.375" />
      <circle cx="0" cy="0" r="4.6875" />
    </g>
    <g transform="translate(46.875 -103.125)">
      <circle cx="0" cy="0" r="9.375" />
      <circle cx="0" cy="0" r="4.6875" />
    </g>
    <g transform="translate(65.625 -103.125)">
      <circle cx="0" cy="0" r="9.375" />
      <circle cx="0" cy="0" r="4.6875" />
    </g>
    <g transform="translate(84.375 -103.125)">
      <circle cx="0" cy="0" r="9.375" />
      <circle cx="0" cy="0" r="4.6875" />
    </g>
    <g transform="translate(103.125 -103.125)">
      <circle cx="0" cy="0" r="9.375" />
      <circle cx="0" cy="0" r="4.6875" />
    </g>
    <g transform="translate(121.875 -103.125)">
      <circle cx="0" cy="0" r="9.375" />
      <circle cx="0" cy="0" r="4.6875" />
    </g>
    <g transform="translate(140.625 -103.125)">
      <circle cx="0" cy="0" r="9.375" />
      <circle cx="0" cy="0" r="4.6875" />
    </g>
    <g transform="translate(-140.625 -84.375)">
      <circle cx="0" cy="0" r="9.375" />
      <circle cx="0" cy="0" r="4.6875" />
    </g>
    <g transform="translate(-121.875 -84.375)">
      <circle cx="0" cy="0" r="9.375" />
      <circle cx="0" cy="0" r="4.6875" />
    </g>
    <g transform="translate(-103.125 -84.375)">
      <circle cx="0" cy="0" r="9.375" />
      <circle cx="0" cy="0" r="4.6875" />
    </g>
    <g transform="translate(-84.375 -84.375)">
      <circle cx="0" cy="0" r="9.375" />
      <circle cx="0" cy="0" r="4.6875" />
    </g>
    <g transform="translate(-65.625 -84.375)">
      <circle cx="0" cy="0" r="9.375" />
      <circle cx="0" cy="0" r="4.6875" />
    </g>
    <g transform="translate(-46.875 -84.375)">
      <circle cx="0" cy="0" r="9.375" />
      <circle cx="0" cy="0" r="4.6875" />
    </g>
    <g transform="translate(-28.125 -84.375)">
      <circle cx="0" cy="0" r="9.375" />
      <circle cx="0" cy="0" r="4.6875" />
    </g>
    <g transform="translate(-9.375 -84.375)">
      <circle cx="0" cy="0" r="9.375" />
      <circle cx="0" cy="0" r="4.6875" />
    </g>
    <g transform="translate(9.375 -84.375)">
      <circle cx="0" cy="0" r="9.375" />
      <circle cx="0" cy="0" r="4.6875" />
    </g>
    <g transform="translate(28.125 -84.375)">
      <circle cx="0" cy="0" r="9.375" />
      <circle cx="0" cy="0" r="4.6875" />
    </g>
    <g transform="translate(46.875 -84.375)">
      <circle cx="0" cy="0" r="9.375" />
      <circle cx="0" cy="0" r="4.6875" />
    </g>
    <g transform="translate(65.625 -84.375)">
      <circle cx="0" cy="0" r="9.375" />
      <circle cx="0" cy="0" r="4.6875" />
    </g>
    <g transform="translate(84.375 -84.375)">
      <circle cx="0" cy="0" r="9.375" />
      <circle cx="0" cy="0" r="4.6875" />
    </g>
    <g transform="translate(103.125 -84.375)">
      <circle cx="0" cy="0" r="9.375" />
      <circle cx="0" cy="0" r="4.6875" />
    </g>
    <g transform="translate(121.875 -84.375)">
      <circle cx="0" cy="0" r="9.375" />
      <circle cx="0" cy="0" r="4.6875" />
    </g>
    <g transform="translate(140.625 -84.375)">
      <circle cx="0" cy="0" r="9.375" />
      <circle cx="0" cy="0" r="4.6875" />
    </g>
    <g transform="translate(-140.625 -65.625)">
      <circle cx="0" cy="0" r="9.375" />
      <circle cx="0" cy="0" r="4.6875" />
    </g>
    <g transform="translate(-121.875 -65.625)">
      <circle cx="0" cy="0" r="9.375" />
      <circle cx="0" cy="0" r="4.6875" />
    </g>
    <g transform="translate(-103.125 -65.625)">
      <circle cx="0" cy="0" r="9.375" />
      <circle cx="0" cy="0" r="4.6875" />
    </g>
    <g transform="translate(-84.375 -65.625)">
      <circle cx="0" cy="0" r="9.375" />
      <circle cx="0" cy="0" r="4.6875" />
    </g>
    <g transform="translate(-65.625 -65.625)">
      <circle cx="0" cy="0" r="9.375" />
      <circle cx="0" cy="0" r="4.6875" />
    </g>
    <g transform="translate(-46.875 -65.625)">
      <circle cx="0" cy="0" r="9.375" />
      <circle cx="0" cy="0" r="4.6875" />
    </g>
    <g transform="translate(-28.125 -65.625)">
      <circle cx="0" cy="0" r="9.375" />
      <circle cx="0" cy="0" r="4.6875" />
    </g>
    <g transform="translate(-9.375 -65.625)">
      <circle cx="0" cy="0" r="9.375" />
      <circle cx="0" cy="0" r="4.6875" />
    </g>
    <g transform="translate(9.375 -65.625)">
      <circle cx="0" cy="0" r="9.375" />
      <circle cx="0" cy="0" r="4.6875" />
    </g>
    <g transform="translate(28.125 -65.625)">
      <circle cx="0" cy="0" r="9.375" />
      <circle cx="0" cy="0" r="4.6875" />
    </g>
    <g transform="translate(46.875 -65.625)">
      <circle cx="0" cy="0" r="9.375" />
      <circle cx="0" cy="0" r="4.6875" />
    </g>
    <g transform="translate(65.625 -65.625)">
      <circle cx="0" cy="0" r="9.375" />
      <circle cx="0" cy="0" r="4.6875" />
    </g>
    <g transform="translate(84.375 -65.625)">
      <circle cx="0" cy="0" r="9.375" />
      <circle cx="0" cy="0" r="4.6875" />
    </g>
    <g transform="translate(103.125 -65.625)">
      <circle cx="0" cy="0" r="9.375" />
      <circle cx="0" cy="0" r="4.6875" />
    </g>
    <g transform="translate(121.875 -65.625)">
      <circle cx="0" cy="0" r="9.375" />
      <circle cx="0" cy="0" r="4.6875" />
    </g>
    <g transform="translate(140.625 -65.625)">
      <circle cx="0" cy="0" r="9.375" />
      <circle cx="0" cy="0" r="4.6875" />
    </g>
    <g transform="translate(-140.625 -46.875)">
      <circle cx="0" cy="0" r="9.375" />
      <circle cx="0" cy="0" r="4.6875" />
    </g>
    <g transform="translate(-121.875 -46.875)">
      <circle cx="0" cy="0" r="9.375" />
      <circle cx="0" cy="0" r="4.6875" />
    </g>
    <g transform="translate(-103.125 -46.875)">
      <circle cx="0" cy="0" r="9.375" />
      <circle cx="0" cy="0" r="4.6875" />
    </g>
    <g transform="translate(-84.375 -46.875)">
      <circle cx="0" cy="0" r="9.375" />
      <circle cx="0" cy="0" r="4.6875" />
    </g>
    <g transform="translate(-65.625 -46.875)">
      <circle cx="0" cy="0" r="9.375" />
      <circle cx="0" cy="0" r="4.6875" />
    </g>
    <g transform="translate(-46.875 -46.875)">
      <circle cx="0" cy="0" r="9.375" />
      <circle cx="0" cy="0" r="4.6875" />
    </g>
    <g transform="translate(-28.125 -46.875)">
      <circle cx="0" cy="0" r="9.375" />
      <circle cx="0" cy="0" r="4.6875" />
    </g>
    <g transform="translate(-9.375 -46.875)">
      <circle cx="0" cy="0" r="9.375" />
      <circle cx="0" cy="0" r="4.6875" />
    </g>
    <g transform="translate(9.375 -46.875)">
      <circle cx="0" cy="0" r="9.375" />
      <circle cx="0" cy="0" r="4.6875" />
    </g>
    <g transform="translate(28.125 -46.875)">
      <circle cx="0" cy="0" r="9.375" />
      <circle cx="0" cy="0" r="4.6875" />
    </g>
    <g transform="translate(46.875 -46.875)">
      <circle cx="0" cy="0" r="9.375" />
      <circle cx="0" cy="0" r="4.6875" />
    </g>
    <g transform="translate(65.625 -46.875)">
      <circle cx="0" cy="0" r="9.375" />
      <circle cx="0" cy="0" r="4.6875" />
    </g>
    <g transform="translate(84.375 -46.875)">
      <circle cx="0" cy="0" r="9.375" />
      <circle cx="0" cy="0" r="4.6875" />
    </g>
    <g transform="translate(103.125 -46.875)">
      <circle cx="0" cy="0" r="9.375" />
      <circle cx="0" cy="0" r="4.6875" />
    </g>
    <g transform="translate(121.875 -46.875)">
      <circle cx="0" cy="0" r="9.375" />
      <circle cx="0" cy="0" r="4.6875" />
    </g>
    <g transform="translate(140.625 -46.875)">
      <circle cx="0" cy="0" r="9.375" />
      <circle cx="0" cy="0" r="4.6875" />
    </g>
    <g transform="translate(-140.625 -28.125)">
      <circle cx="0" cy="0" r="9.375" />
      <circle cx="0" cy="0" r="4.6875" />
    </g>
    <g transform="translate(-121.875 -28.125)">
      <circle cx="0" cy="0" r="9.375" />
      <circle cx="0" cy="0" r="4.6875" />
    </g>
    <g transform="translate(-103.125 -28.125)">
      <circle cx="0" cy="0" r="9.375" />
      <circle cx="0" cy="0" r="4.6875" />
    </g>
    <g transform="translate(-84.375 -28.125)">
      <circle cx="0" cy="0" r="9.375" />
      <circle cx="0" cy="0" r="4.6875" />
    </g>
    <g transform="translate(-65.625 -28.125)">
      <circle cx="0" cy="0" r="9.375" />
      <circle cx="0" cy="0" r="4.6875" />
    </g>
    <g transform="translate(-46.875 -28.125)">
      <circle cx="0" cy="0" r="9.375" />
      <circle cx="0" cy="0" r="4.6875" />
    </g>
    <g transform="translate(-28.125 -28.125)">
      <circle cx="0" cy="0" r="9.375" />
      <circle cx="0" cy="0" r="4.6875" />
    </g>
    <g transform="translate(-9.375 -28.125)">
      <circle cx="0" cy="0" r="9.375" />
      <circle cx="0" cy="0" r="4.6875" />
    </g>
    <g transform="translate(9.375 -28.125)">
      <circle cx="0" cy="0" r="9.375" />
      <circle cx="0" cy="0" r="4.6875" />
    </g>
    <g transform="translate(28.125 -28.125)">
      <circle cx="0" cy="0" r="9.375" />
      <circle cx="0" cy="0" r="4.6875" />
    </g>
    <g transform="translate(46.875 -28.125)">
      <circle cx="0" cy="0" r="9.375" />
      <circle cx="0" cy="0" r="4.6875" />
    </g>
    <g transform="translate(65.625 -28.125)">
      <circle cx="0" cy="0" r="9.375" />
      <circle cx="0" cy="0" r="4.6875" />
    </g>
    <g transform="translate(84.375 -28.125)">
      <circle cx="0" cy="0" r="9.375" />
      <circle cx="0" cy="0" r="4.6875" />
    </g>
    <g transform="translate(103.125 -28.125)">
      <circle cx="0" cy="0" r="9.375" />
      <circle cx="0" cy="0" r="4.6875" />
    </g>
    <g transform="translate(121.875 -28.125)">
      <circle cx="0" cy="0" r="9.375" />
      <circle cx="0" cy="0" r="4.6875" />
    </g>
    <g transform="translate(140.625 -28.125)">
      <circle cx="0" cy="0" r="9.375" />
      <circle cx="0" cy="0" r="4.6875" />
    </g>
    <g transform="translate(-140.625 -9.375)">
      <circle cx="0" cy="0" r="9.375" />
      <circle cx="0" cy="0" r="4.6875" />
    </g>
    <g transform="translate(-121.875 -9.375)">
      <circle cx="0" cy="0" r="9.375" />
      <circle cx="0" cy="0" r="4.6875" />
    </g>
    <g transform="translate(-103.125 -9.375)">
      <circle cx="0" cy="0" r="9.375" />
      <circle cx="0" cy="0" r="4.6875" />
    </g>
    <g transform="translate(-84.375 -9.375)">
      <circle cx="0" cy="0" r="9.375" />
      <circle cx="0" cy="0" r="4.6875" />
    </g>
    <g transform="translate(-65.625 -9.375)">
      <circle cx="0" cy="0" r="9.375" />
      <circle cx="0" cy="0" r="4.6875" />
    </g>
    <g transform="translate(-46.875 -9.375)">
      <circle cx="0" cy="0" r="9.375" />
      <circle cx="0" cy="0" r="4.6875" />
    </g>
    <g transform="translate(-28.125 -9.375)">
      <circle cx="0" cy="0" r="9.375" />
      <circle cx="0" cy="0" r="4.6875" />
    </g>
    <g transform="translate(-9.375 -9.375)">
      <circle cx="0" cy="0" r="9.375" />
      <circle cx="0" cy="0" r="4.6875" />
    </g>
    <g transform="translate(9.375 -9.375)">
      <circle cx="0" cy="0" r="9.375" />
      <circle cx="0" cy="0" r="4.6875" />
    </g>
    <g transform="translate(28.125 -9.375)">
      <circle cx="0" cy="0" r="9.375" />
      <circle cx="0" cy="0" r="4.6875" />
    </g>
    <g transform="translate(46.875 -9.375)">
      <circle cx="0" cy="0" r="9.375" />
      <circle cx="0" cy="0" r="4.6875" />
    </g>
    <g transform="translate(65.625 -9.375)">
      <circle cx="0" cy="0" r="9.375" />
      <circle cx="0" cy="0" r="4.6875" />
    </g>
    <g transform="translate(84.375 -9.375)">
      <circle cx="0" cy="0" r="9.375" />
      <circle cx="0" cy="0" r="4.6875" />
    </g>
    <g transform="translate(103.125 -9.375)">
      <circle cx="0" cy="0" r="9.375" />
      <circle cx="0" cy="0" r="4.6875" />
    </g>
    <g transform="translate(121.875 -9.375)">
      <circle cx="0" cy="0" r="9.375" />
      <circle cx="0" cy="0" r="4.6875" />
    </g>
    <g transform="translate(140.625 -9.375)">
      <circle cx="0" cy="0" r="9.375" />
      <circle cx="0" cy="0" r="4.6875" />
    </g>
    <g transform="translate(-140.625 9.375)">
      <circle cx="0" cy="0" r="9.375" />
      <circle cx="0" cy="0" r="4.6875" />
    </g>
    <g transform="translate(-121.875 9.375)">
      <circle cx="0" cy="0" r="9.375" />
      <circle cx="0" cy="0" r="4.6875" />
    </g>
    <g transform="translate(-103.125 9.375)">
      <circle cx="0" cy="0" r="9.375" />
      <circle cx="0" cy="0" r="4.6875" />
    </g>
    <g transform="translate(-84.375 9.375)">
      <circle cx="0" cy="0" r="9.375" />
      <circle cx="0" cy="0" r="4.6875" />
    </g>
    <g transform="translate(-65.625 9.375)">
      <circle cx="0" cy="0" r="9.375" />
      <circle cx="0" cy="0" r="4.6875" />
    </g>
    <g transform="translate(-46.875 9.375)">
      <circle cx="0" cy="0" r="9.375" />
      <circle cx="0" cy="0" r="4.6875" />
    </g>
    <g transform="translate(-28.125 9.375)">
      <circle cx="0" cy="0" r="9.375" />
      <circle cx="0" cy="0" r="4.6875" />
    </g>
    <g transform="translate(-9.375 9.375)">
      <circle cx="0" cy="0" r="9.375" />
      <circle cx="0" cy="0" r="4.6875" />
    </g>
    <g transform="translate(9.375 9.375)">
      <circle cx="0" cy="0" r="9.375" />
      <circle cx="0" cy="0" r="4.6875" />
    </g>
    <g transform="translate(28.125 9.375)">
      <circle cx="0" cy="0" r="9.375" />
      <circle cx="0" cy="0" r="4.6875" />
    </g>
    <g transform="translate(46.875 9.375)">
      <circle cx="0" cy="0" r="9.375" />
      <circle cx="0" cy="0" r="4.6875" />
    </g>
    <g transform="translate(65.625 9.375)">
      <circle cx="0" cy="0" r="9.375" />
      <circle cx="0" cy="0" r="4.6875" />
    </g>
    <g transform="translate(84.375 9.375)">
      <circle cx="0" cy="0" r="9.375" />
      <circle cx="0" cy="0" r="4.6875" />
    </g>
    <g transform="translate(103.125 9.375)">
      <circle cx="0" cy="0" r="9.375" />
      <circle cx="0" cy="0" r="4.6875" />
    </g>
    <g transform="translate(121.875 9.375)">
      <circle cx="0" cy="0" r="9.375" />
      <circle cx="0" cy="0" r="4.6875" />
    </g>
    <g transform="translate(140.625 9.375)">
      <circle cx="0" cy="0" r="9.375" />
      <circle cx="0" cy="0" r="4.6875" />
    </g>
    <g transform="translate(-140.625 28.125)">
      <circle cx="0" cy="0" r="9.375" />
      <circle cx="0" cy="0" r="4.6875" />
    </g>
    <g transform="translate(-121.875 28.125)">
      <circle cx="0" cy="0" r="9.375" />
      <circle cx="0" cy="0" r="4.6875" />
    </g>
    <g transform="translate(-103.125 28.125)">
      <circle cx="0" cy="0" r="9.375" />
      <circle cx="0" cy="0" r="4.6875" />
    </g>
    <g transform="translate(-84.375 28.125)">
      <circle cx="0" cy="0" r="9.375" />
      <circle cx="0" cy="0" r="4.6875" />
    </g>
    <g transform="translate(-65.625 28.125)">
      <circle cx="0" cy="0" r="9.375" />
      <circle cx="0" cy="0" r="4.6875" />
    </g>
    <g transform="translate(-46.875 28.125)">
      <circle cx="0" cy="0" r="9.375" />
      <circle cx="0" cy="0" r="4.6875" />
    </g>
    <g transform="translate(-28.125 28.125)">
      <circle cx="0" cy="0" r="9.375" />
      <circle cx="0" cy="0" r="4.6875" />
    </g>
    <g transform="translate(-9.375 28.125)">
      <circle cx="0" cy="0" r="9.375" />
      <circle cx="0" cy="0" r="4.6875" />
    </g>
    <g transform="translate(9.375 28.125)">
      <circle cx="0" cy="0" r="9.375" />
      <circle cx="0" cy="0" r="4.6875" />
    </g>
    <g transform="translate(28.125 28.125)">
      <circle cx="0" cy="0" r="9.375" />
      <circle cx="0" cy="0" r="4.6875" />
    </g>
    <g transform="translate(46.875 28.125)">
      <circle cx="0" cy="0" r="9.375" />
      <circle cx="0" cy="0" r="4.6875" />
    </g>
    <g transform="translate(65.625 28.125)">
      <circle cx="0" cy="0" r="9.375" />
      <circle cx="0" cy="0" r="4.6875" />
    </g>
    <g transform="translate(84.375 28.125)">
      <circle cx="0" cy="0" r="9.375" />
      <circle cx="0" cy="0" r="4.6875" />
    </g>
    <g transform="translate(103.125 28.125)">
      <circle cx="0" cy="0" r="9.375" />
      <circle cx="0" cy="0" r="4.6875" />
    </g>
    <g transform="translate(121.875 28.125)">
      <circle cx="0" cy="0" r="9.375" />
      <circle cx="0" cy="0" r="4.6875" />
    </g>
    <g transform="translate(140.625 28.125)">
      <circle cx="0" cy="0" r="9.375" />
      <circle cx="0" cy="0" r="4.6875" />
    </g>
    <g transform="translate(-140.625 46.875)">
      <circle cx="0" cy="0" r="9.375" />
      <circle cx="0" cy="0" r="4.6875" />
    </g>
    <g transform="translate(-121.875 46.875)">
      <circle cx="0" cy="0" r="9.375" />
      <circle cx="0" cy="0" r="4.6875" />
    </g>
    <g transform="translate(-103.125 46.875)">
      <circle cx="0" cy="0" r="9.375" />
      <circle cx="0" cy="0" r="4.6875" />
    </g>
    <g transform="translate(-84.375 46.875)">
      <circle cx="0" cy="0" r="9.375" />
      <circle cx="0" cy="0" r="4.6875" />
    </g>
    <g transform="translate(-65.625 46.875)">
      <circle cx="0" cy="0" r="9.375" />
      <circle cx="0" cy="0" r="4.6875" />
    </g>
    <g transform="translate(-46.875 46.875)">
      <circle cx="0" cy="0" r="9.375" />
      <circle cx="0" cy="0" r="4.6875" />
    </g>
    <g transform="translate(-28.125 46.875)">
      <circle cx="0" cy="0" r="9.375" />
      <circle cx="0" cy="0" r="4.6875" />
    </g>
    <g transform="translate(-9.375 46.875)">
      <circle cx="0" cy="0" r="9.375" />
      <circle cx="0" cy="0" r="4.6875" />
    </g>
    <g transform="translate(9.375 46.875)">
      <circle cx="0" cy="0" r="9.375" />
      <circle cx="0" cy="0" r="4.6875" />
    </g>
    <g transform="translate(28.125 46.875)">
      <circle cx="0" cy="0" r="9.375" />
      <circle cx="0" cy="0" r="4.6875" />
    </g>
    <g transform="translate(46.875 46.875)">
      <circle cx="0" cy="0" r="9.375" />
      <circle cx="0" cy="0" r="4.6875" />
    </g>
    <g transform="translate(65.625 46.875)">
      <circle cx="0" cy="0" r="9.375" />
      <circle cx="0" cy="0" r="4.6875" />
    </g>
    <g transform="translate(84.375 46.875)">
      <circle cx="0" cy="0" r="9.375" />
      <circle cx="0" cy="0" r="4.6875" />
    </g>
    <g transform="translate(103.125 46.875)">
      <circle cx="0" cy="0" r="9.375" />
      <circle cx="0" cy="0" r="4.6875" />
    </g>
    <g transform="translate(121.875 46.875)">
      <circle cx="0" cy="0" r="9.375" />
      <circle cx="0" cy="0" r="4.6875" />
    </g>
    <g transform="translate(140.625 46.875)">
      <circle cx="0" cy="0" r="9.375" />
      <circle cx="0" cy="0" r="4.6875" />
    </g>
    <g transform="translate(-140.625 65.625)">
      <circle cx="0" cy="0" r="9.375" />
      <circle cx="0" cy="0" r="4.6875" />
    </g>
    <g transform="translate(-121.875 65.625)">
      <circle cx="0" cy="0" r="9.375" />
      <circle cx="0" cy="0" r="4.6875" />
    </g>
    <g transform="translate(-103.125 65.625)">
      <circle cx="0" cy="0" r="9.375" />
      <circle cx="0" cy="0" r="4.6875" />
    </g>
    <g transform="translate(-84.375 65.625)">
      <circle cx="0" cy="0" r="9.375" />
      <circle cx="0" cy="0" r="4.6875" />
    </g>
    <g transform="translate(-65.625 65.625)">
      <circle cx="0" cy="0" r="9.375" />
      <circle cx="0" cy="0" r="4.6875" />
    </g>
    <g transform="translate(-46.875 65.625)">
      <circle cx="0" cy="0" r="9.375" />
      <circle cx="0" cy="0" r="4.6875" />
    </g>
    <g transform="translate(-28.125 65.625)">
      <circle cx="0" cy="0" r="9.375" />
      <circle cx="0" cy="0" r="4.6875" />
    </g>
    <g transform="translate(-9.375 65.625)">
      <circle cx="0" cy="0" r="9.375" />
      <circle cx="0" cy="0" r="4.6875" />
    </g>
    <g transform="translate(9.375 65.625)">
      <circle cx="0" cy="0" r="9.375" />
      <circle cx="0" cy="0" r="4.6875" />
    </g>
    <g transform="translate(28.125 65.625)">
      <circle cx="0" cy="0" r="9.375" />
      <circle cx="0" cy="0" r="4.6875" />
    </g>
    <g transform="translate(46.875 65.625)">
      <circle cx="0" cy="0" r="9.375" />
      <circle cx="0" cy="0" r="4.6875" />
    </g>
    <g transform="translate(65.625 65.625)">
      <circle cx="0" cy="0" r="9.375" />
      <circle cx="0" cy="0" r="4.6875" />
    </g>
    <g transform="translate(84.375 65.625)">
      <circle cx="0" cy="0" r="9.375" />
      <circle cx="0" cy="0" r="4.6875" />
    </g>
    <g transform="translate(103.125 65.625)">
      <circle cx="0" cy="0" r="9.375" />
      <circle cx="0" cy="0" r="4.6875" />
    </g>
    <g transform="translate(121.875 65.625)">
      <circle cx="0" cy="0" r="9.375" />
      <circle cx="0" cy="0" r="4.6875" />
    </g>
    <g transform="translate(140.625 65.625)">
      <circle cx="0" cy="0" r="9.375" />
      <circle cx="0" cy="0" r="4.6875" />
    </g>
    <g transform="translate(-140.625 84.375)">
      <circle cx="0" cy="0" r="9.375" />
      <circle cx="0" cy="0" r="4.6875" />
    </g>
    <g transform="translate(-121.875 84.375)">
      <circle cx="0" cy="0" r="9.375" />
      <circle cx="0" cy="0" r="4.6875" />
    </g>
    <g transform="translate(-103.125 84.375)">
      <circle cx="0" cy="0" r="9.375" />
      <circle cx="0" cy="0" r="4.6875" />
    </g>
    <g transform="translate(-84.375 84.375)">
      <circle cx="0" cy="0" r="9.375" />
      <circle cx="0" cy="0" r="4.6875" />
    </g>
    <g transform="translate(-65.625 84.375)">
      <circle cx="0" cy="0" r="9.375" />
      <circle cx="0" cy="0" r="4.6875" />
    </g>
    <g transform="translate(-46.875 84.375)">
      <circle cx="0" cy="0" r="9.375" />
      <circle cx="0" cy="0" r="4.6875" />
    </g>
    <g transform="translate(-28.125 84.375)">
      <circle cx="0" cy="0" r="9.375" />
      <circle cx="0" cy="0" r="4.6875" />
    </g>
    <g transform="translate(-9.375 84.375)">
      <circle cx="0" cy="0" r="9.375" />
      <circle cx="0" cy="0" r="4.6875" />
    </g>
    <g transform="translate(9.375 84.375)">
      <circle cx="0" cy="0" r="9.375" />
      <circle cx="0" cy="0" r="4.6875" />
    </g>
    <g transform="translate(28.125 84.375)">
      <circle cx="0" cy="0" r="9.375" />
      <circle cx="0" cy="0" r="4.6875" />
    </g>
    <g transform="translate(46.875 84.375)">
      <circle cx="0" cy="0" r="9.375" />
      <circle cx="0" cy="0" r="4.6875" />
    </g>
    <g transform="translate(65.625 84.375)">
      <circle cx="0" cy="0" r="9.375" />
      <circle cx="0" cy="0" r="4.6875" />
    </g>
    <g transform="translate(84.375 84.375)">
      <circle cx="0" cy="0" r="9.375" />
      <circle cx="0" cy="0" r="4.6875" />
    </g>
    <g transform="translate(103.125 84.375)">
      <circle cx="0" cy="0" r="9.375" />
      <circle cx="0" cy="0" r="4.6875" />
    </g>
    <g transform="translate(121.875 84.375)">
      <circle cx="0" cy="0" r="9.375" />
      <circle cx="0" cy="0" r="4.6875" />
    </g>
    <g transform="translate(140.625 84.375)">
      <circle cx="0" cy="0" r="9.375" />
      <circle cx="0" cy="0" r="4.6875" />
    </g>
    <g transform="translate(-140.625 103.125)">
      <circle cx="0" cy="0" r="9.375" />
      <circle cx="0" cy="0" r="4.6875" />
    </g>
    <g transform="translate(-121.875 103.125)">
      <circle cx="0" cy="0" r="9.375" />
      <circle cx="0" cy="0" r="4.6875" />
    </g>
    <g transform="translate(-103.125 103.125)">
      <circle cx="0" cy="0" r="9.375" />
      <circle cx="0" cy="0" r="4.6875" />
    </g>
    <g transform="translate(-84.375 103.125)">
      <circle cx="0" cy="0" r="9.375" />
      <circle cx="0" cy="0" r="4.6875" />
    </g>
    <g transform="translate(-65.625 103.125)">
      <circle cx="0" cy="0" r="9.375" />
      <circle cx="0" cy="0" r="4.6875" />
    </g>
    <g transform="translate(-46.875 103.125)">
      <circle cx="0" cy="0" r="9.375" />
      <circle cx="0" cy="0" r="4.6875" />
    </g>
    <g transform="translate(-28.125 103.125)">
      <circle cx="0" cy="0" r="9.375" />
      <circle cx="0" cy="0" r="4.6875" />
    </g>
    <g transform="translate(-9.375 103.125)">
      <circle cx="0" cy="0" r="9.375" />
      <circle cx="0" cy="0" r="4.6875" />
    </g>
    <g transform="translate(9.375 103.125)">
      <circle cx="0" cy="0" r="9.375" />
      <circle cx="0" cy="0" r="4.6875" />
    </g>
    <g transform="translate(28.125 103.125)">
      <circle cx="0" cy="0" r="9.375" />
      <circle cx="0" cy="0" r="4.6875" />
    </g>
    <g transform="translate(46.875 103.125)">
      <circle cx="0" cy="0" r="9.375" />
      <circle cx="0" cy="0" r="4.6875" />
    </g>
    <g transform="translate(65.625 103.125)">
      <circle cx="0" cy="0" r="9.375" />
      <circle cx="0" cy="0" r="4.6875" />
    </g>
    <g transform="translate(84.375 103.125)">
      <circle cx="0" cy="0" r="9.375" />
      <circle cx="0" cy="0" r="4.6875" />
    </g>
    <g transform="translate(103.125 103.125)">
      <circle cx="0" cy="0" r="9.375" />
      <circle cx="0" cy="0" r="4.6875" />
    </g>
    <g transform="translate(121.875 103.125)">
      <circle cx="0" cy="0" r="9.375" />
      <circle cx="0" cy="0" r="4.6875" />
    </g>
    <g transform="translate(140.625 103.125)">
      <circle cx="0" cy="0" r="9.375" />
      <circle cx="0" cy="0" r="4.6875" />
    </g>
    <g transform="translate(-140.625 121.875)">
      <circle cx="0" cy="0" r="9.375" />
      <circle cx="0" cy="0" r="4.6875" />
    </g>
    <g transform="translate(-121.875 121.875)">
      <circle cx="0" cy="0" r="9.375" />
      <circle cx="0" cy="0" r="4.6875" />
    </g>
    <g transform="translate(-103.125 121.875)">
      <circle cx="0" cy="0" r="9.375" />
      <circle cx="0" cy="0" r="4.6875" />
    </g>
    <g transform="translate(-84.375 121.875)">
      <circle cx="0" cy="0" r="9.375" />
      <circle cx="0" cy="0" r="4.6875" />
    </g>
    <g transform="translate(-65.625 121.875)">
      <circle cx="0" cy="0" r="9.375" />
      <circle cx="0" cy="0" r="4.6875" />
    </g>
    <g transform="translate(-46.875 121.875)">
      <circle cx="0" cy="0" r="9.375" />
      <circle cx="0" cy="0" r="4.6875" />
    </g>
    <g transform="translate(-28.125 121.875)">
      <circle cx="0" cy="0" r="9.375" />
      <circle cx="0" cy="0" r="4.6875" />
    </g>
    <g transform="translate(-9.375 121.875)">
      <circle cx="0" cy="0" r="9.375" />
      <circle cx="0" cy="0" r="4.6875" />
    </g>
    <g transform="translate(9.375 121.875)">
      <circle cx="0" cy="0" r="9.375" />
      <circle cx="0" cy="0" r="4.6875" />
    </g>
    <g transform="translate(28.125 121.875)">
      <circle cx="0" cy="0" r="9.375" />
      <circle cx="0" cy="0" r="4.6875" />
    </g>
    <g transform="translate(46.875 121.875)">
      <circle cx="0" cy="0" r="9.375" />
      <circle cx="0" cy="0" r="4.6875" />
    </g>
    <g transform="translate(65.625 121.875)">
      <circle cx="0" cy="0" r="9.375" />
      <circle cx="0" cy="0" r="4.6875" />
    </g>
    <g transform="translate(84.375 121.875)">
      <circle cx="0" cy="0" r="9.375" />
      <circle cx="0" cy="0" r="4.6875" />
    </g>
    <g transform="translate(103.125 121.875)">
      <circle cx="0" cy="0" r="9.375" />
      <circle cx="0" cy="0" r="4.6875" />
    </g>
    <g transform="translate(121.875 121.875)">
      <circle cx="0" cy="0" r="9.375" />
      <circle cx="0" cy="0" r="4.6875" />
    </g>
    <g transform="translate(140.625 121.875)">
      <circle cx="0" cy="0" r="9.375" />
      <circle cx="0" cy="0" r="4.6875" />
    </g>
    <g transform="translate(-140.625 140.625)">
      <circle cx="0" cy="0" r="9.375" />
      <circle cx="0" cy="0" r="4.6875" />
    </g>
    <g transform="translate(-121.875 140.625)">
      <circle cx="0" cy="0" r="9.375" />
      <circle cx="0" cy="0" r="4.6875" />
    </g>
    <g transform="translate(-103.125 140.625)">
      <circle cx="0" cy="0" r="9.375" />
      <circle cx="0" cy="0" r="4.6875" />
    </g>
    <g transform="translate(-84.375 140.625)">
      <circle cx="0" cy="0" r="9.375" />
      <circle cx="0" cy="0" r="4.6875" />
    </g>
    <g transform="translate(-65.625 140.625)">
      <circle cx="0" cy="0" r="9.375" />
      <circle cx="0" cy="0" r="4.6875" />
    </g>
    <g transform="translate(-46.875 140.625)">
      <circle cx="0" cy="0" r="9.375" />
      <circle cx="0" cy="0" r="4.6875" />
    </g>
    <g transform="translate(-28.125 140.625)">
      <circle cx="0" cy="0" r="9.375" />
      <circle cx="0" cy="0" r="4.6875" />
    </g>
    <g transform="translate(-9.375 140.625)">
      <circle cx="0" cy="0" r="9.375" />
      <circle cx="0" cy="0" r="4.6875" />
    </g>
    <g transform="translate(9.375 140.625)">
      <circle cx="0" cy="0" r="9.375" />
      <circle cx="0" cy="0" r="4.6875" />
    </g>
    <g transform="translate(28.125 140.625)">
      <circle cx="0" cy="0" r="9.375" />
      <circle cx="0" cy="0" r="4.6875" />
    </g>
    <g transform="translate(46.875 140.625)">
      <circle cx="0" cy="0" r="9.375" />
      <circle cx="0" cy="0" r="4.6875" />
    </g>
    <g transform="translate(65.625 140.625)">
      <circle cx="0" cy="0" r="9.375" />
      <circle cx="0" cy="0" r="4.6875" />
    </g>
    <g transform="translate(84.375 140.625)">
      <circle cx="0" cy="0" r="9.375" />
      <circle cx="0" cy="0" r="4.6875" />
    </g>
    <g transform="translate(103.125 140.625)">
      <circle cx="0" cy="0" r="9.375" />
      <circle cx="0" cy="0" r="4.6875" />
    </g>
    <g transform="translate(121.875 140.625)">
      <circle cx="0" cy="0" r="9.375" />
      <circle cx="0" cy="0" r="4.6875" />
    </g>
    <g transform="translate(140.625 140.625)">
      <circle cx="0" cy="0" r="9.375" />
      <circle cx="0" cy="0" r="4.6875" />
    </g>
  </g>
</g>
</svg>
