<svg width="300" height="300" viewBox="-150 -150 300 300" fill="none" stroke="black" xmlns="http://www.w3.org/2000/svg" xmlns:xlink="http://www.w3.org/1999/xlink">
<g transform="scale(1 -1)">
  <g>
    <rect x="-84.18106005789024" y="-84.18106005789024" width="168.36212011578047" height="168.36212011578047" />
    <rect x="-24.65621143716784" y="-24.65621143716784" width="49.31242287433568" height="49.31242287433568" />
    <rect x="-121.4797394900076" y="-121.4797394900076" width="242.9594789800152" height="242.9594789800152" />
    <rect x="-96.72066478714875" y="-96.72066478714875" width="193.4413295742975" height="193.4413295742975" />
    <rect x="-26.825811315217067" y="-26.825811315217067" width="53.65162263043413" height="53.65162263043413" />
    <rect x="-43.4480978565888" y="-43.4480978565888" width="86.8961957131776" height="86.8961957131776" />
    <rect x="-82.96088440644982" y="-82.96088440644982" width="165.92176881289964" height="165.92176881289964" />
    <rect x="-45.581378194549316" y="-45.581378194549316" width="91.16275638909863" height="91.16275638909863" />
    <rect x="-7.232368443325241" y="-7.232368443325241" width="14.464736886650481" height="14.464736886650481" />
    <rect x="-101.24213678685204" y="-101.24213678685204" width="202.4842735737041" height="202.4842735737041" />
    <rect x="-50.66327650130054" y="-50.66327650130054" width="101.32655300260107" height="101.32655300260107" />
    <rect x="-16.03155541194405" y="-16.03155541194405" width="32.0631108238881" height="32.0631108238881" />
    <rect x="-20.76811223060436" y="-20.76811223060436" width="41.53622446120872" height="41.53622446120872" />
    <rect x="-17.257064239514868" y="-17.257064239514868" width="34.514128479029736" height="34.514128479029736" />
    <rect x="-116.21111239396042" y="-116.21111239396042" width="232.42222478792084" height="232.42222478792084" />
  </g>
</g>
</svg>
