<svg width="300" height="300" viewBox="-150 -150 300 300" fill="none" stroke="black" xmlns="http://www.w3.org/2000/svg" xmlns:xlink="http://www.w3.org/1999/xlink">
<g transform="scale(1 -1)">
  <g transform="translate(-120.0 0)">
    <g transform="translate(0.0 0) scale(0.2 0.2)">
      <circle cx="0" cy="0" r="30.0" />
      <circle cx="0" cy="0" r="60.0" />
      <circle cx="0" cy="0" r="90.0" />
      <circle cx="0" cy="0" r="120.0" />
      <circle cx="0" cy="0" r="150.0" />
    </g>
    <g transform="translate(60.0 0) scale(0.2 0.2)">
      <circle cx="0" cy="0" r="37.5" />
      <circle cx="0" cy="0" r="75.0" />
      <circle cx="0" cy="0" r="112.5" />
      <circle cx="0" cy="0" r="150.0" />
    </g>
    <g transform="translate(120.0 0) scale(0.2 0.2)">
      <circle cx="0" cy="0" r="50.0" />
      <circle cx="0" cy="0" r="100.0" />
      <circle cx="0" cy="0" r="150.0" />
    </g>
    <g transform="translate(180.0 0) scale(0.2 0.2)">
      <circle cx="0" cy="0" r="75.0" />
      <circle cx="0" cy="0" r="150.0" />
    </g>
    <g transform="translate(240.0 0) scale(0.2 0.2)">
      <circle cx="0" cy="0" r="150.0" />
    </g>
  </g>
</g>
</svg>
