<svg width="300" height="300" viewBox="-150 -150 300 300" fill="none" stroke="black" xmlns="http://www.w3.org/2000/svg" xmlns:xlink="http://www.w3.org/1999/xlink">
<g transform="scale(1 -1)">
  <g>
    <circle cx="0" cy="0" r="10.42771135113173" />
    <circle cx="0" cy="0" r="149.21001569247002" />
    <circle cx="0" cy="0" r="10.080829546753394" />
    <circle cx="0" cy="0" r="53.32150261033841" />
    <circle cx="0" cy="0" r="104.22851765436288" />
    <circle cx="0" cy="0" r="11.039932247397772" />
    <circle cx="0" cy="0" r="38.017603369687286" />
    <circle cx="0" cy="0" r="82.76947178226654" />
    <circle cx="0" cy="0" r="73.53417192764593" />
    <circle cx="0" cy="0" r="20.78873327667704" />
    <circle cx="0" cy="0" r="117.93287280362887" />
    <circle cx="0" cy="0" r="83.93759261598257" />
    <circle cx="0" cy="0" r="95.2051269187838" />
    <circle cx="0" cy="0" r="118.03231093168972" />
    <circle cx="0" cy="0" r="38.54283825014859" />
    <circle cx="0" cy="0" r="42.80033354593535" />
    <circle cx="0" cy="0" r="139.5348201344961" />
    <circle cx="0" cy="0" r="42.17774312716387" />
    <circle cx="0" cy="0" r="74.98282517610431" />
    <circle cx="0" cy="0" r="23.07635742614028" />
    <circle cx="0" cy="0" r="7.402728689365362" />
    <circle cx="0" cy="0" r="41.536161088114696" />
    <circle cx="0" cy="0" r="60.1238249854458" />
    <circle cx="0" cy="0" r="44.83856007284992" />
    <circle cx="0" cy="0" r="43.21351437457769" />
    <circle cx="0" cy="0" r="125.47962690780727" />
    <circle cx="0" cy="0" r="8.609307852757848" />
    <circle cx="0" cy="0" r="104.28677068632794" />
    <circle cx="0" cy="0" r="40.60633755768587" />
    <circle cx="0" cy="0" r="91.62736015043933" />
  </g>
</g>
</svg>
