<svg width="300" height="300" viewBox="-150 -150 300 300" fill="none" stroke="black" xmlns="http://www.w3.org/2000/svg" xmlns:xlink="http://www.w3.org/1999/xlink">
<g transform="scale(1 -1)">
  <g>
    <g transform="translate(0 75) scale(1 0.5)">
      <g transform="translate(-75 0) scale(0.5 1)">
        <rect x="-140.0" y="-140.0" width="280" height="280" stroke-width="5" />
        <g transform="scale(0.8333333333333334 0.8333333333333334)">
          <circle cx="0" cy="0" r="47.193779677902185" />
          <circle cx="0" cy="0" r="83.0441463243762" />
          <circle cx="0" cy="0" r="59.535613285095366" />
          <circle cx="0" cy="0" r="91.28623145845656" />
          <circle cx="0" cy="0" r="32.32324389102309" />
          <circle cx="0" cy="0" r="89.42797746107665" />
          <circle cx="0" cy="0" r="0.356357580437186" />
          <circle cx="0" cy="0" r="124.22212673977387" />
          <circle cx="0" cy="0" r="83.00443072178048" />
          <circle cx="0" cy="0" r="4.711509145747833" />
        </g>
      </g>
      <g transform="translate(75 0) scale(0.5 1)">
        <rect x="-140.0" y="-140.0" width="280" height="280" stroke-width="5" />
        <g transform="scale(0.8333333333333334 0.8333333333333334)">
          <rect x="-27.194672636140893" y="-27.194672636140893" width="54.38934527228179" height="54.38934527228179" />
          <rect x="-84.14276297116405" y="-84.14276297116405" width="168.2855259423281" height="168.2855259423281" />
          <rect x="-57.486374025270514" y="-57.486374025270514" width="114.97274805054103" height="114.97274805054103" />
          <rect x="-82.24168313057723" y="-82.24168313057723" width="164.48336626115446" height="164.48336626115446" />
          <rect x="-77.54629095376143" y="-77.54629095376143" width="155.09258190752286" height="155.09258190752286" />
          <rect x="-102.43577810540518" y="-102.43577810540518" width="204.87155621081035" height="204.87155621081035" />
          <rect x="-66.19723533514112" y="-66.19723533514112" width="132.39447067028223" height="132.39447067028223" />
          <rect x="-88.90881210130453" y="-88.90881210130453" width="177.81762420260907" height="177.81762420260907" />
          <rect x="-45.92148821430478" y="-45.92148821430478" width="91.84297642860956" height="91.84297642860956" />
          <rect x="-97.79750614314952" y="-97.79750614314952" width="195.59501228629904" height="195.59501228629904" />
          <rect x="-65.89175594454076" y="-65.89175594454076" width="131.78351188908152" height="131.78351188908152" />
          <rect x="-46.60361556912814" y="-46.60361556912814" width="93.20723113825628" height="93.20723113825628" />
          <rect x="-10.153889954972017" y="-10.153889954972017" width="20.307779909944035" height="20.307779909944035" />
          <rect x="-73.79209915472585" y="-73.79209915472585" width="147.5841983094517" height="147.5841983094517" />
          <rect x="-35.16172007038568" y="-35.16172007038568" width="70.32344014077135" height="70.32344014077135" />
        </g>
      </g>
    </g>
    <g transform="translate(0 -75) scale(1 0.5)">
      <g transform="translate(-75 0) scale(0.5 1)">
        <rect x="-140.0" y="-140.0" width="280" height="280" stroke-width="5" />
        <g transform="scale(0.8333333333333334 0.8333333333333334)">
          <defs>
            <ellipse cx="0" cy="0" rx="125.0" ry="60.0" id="s-28-p3ld" />
          </defs>
          <g>
            <use xlink:href="#s-28-p3ld" />
            <g transform="rotate(22.5)">
              <use xlink:href="#s-28-p3ld" />
              <g transform="rotate(22.5)">
                <use xlink:href="#s-28-p3ld" />
                <g transform="rotate(22.5)">
                  <use xlink:href="#s-28-p3ld" />
                  <g transform="rotate(22.5)">
                    <use xlink:href="#s-28-p3ld" />
                    <g transform="rotate(22.5)">
                      <use xlink:href="#s-28-p3ld" />
                      <g transform="rotate(22.5)">
                        <use xlink:href="#s-28-p3ld" />
                        <use xlink:href="#s-28-p3ld" transform="rotate(22.5)" />
                      </g>
                    </g>
                  </g>
                </g>
              </g>
            </g>
          </g>
        </g>
      </g>
      <g transform="translate(75 0) scale(0.5 1)">
        <rect x="-140.0" y="-140.0" width="280" height="280" stroke-width="5" />
        <g transform="scale(0.8333333333333334 0.8333333333333334)">
          <g transform="translate(0 75) scale(1 0.5)">
            <g transform="translate(-75 0) scale(0.5 1)">
              <rect x="-26.9335740306616" y="-26.9335740306616" width="53.8671480613232" height="53.8671480613232" />
              <rect x="-77.82883464820307" y="-77.82883464820307" width="155.65766929640614" height="155.65766929640614" />
              <rect x="-65.21102048533147" y="-65.21102048533147" width="130.42204097066295" height="130.42204097066295" />
              <rect x="-65.78845390183379" y="-65.78845390183379" width="131.57690780366758" height="131.57690780366758" />
              <rect x="-85.61388342069776" y="-85.61388342069776" width="171.22776684139552" height="171.22776684139552" />
              <rect x="-27.51141456321217" y="-27.51141456321217" width="55.02282912642434" height="55.02282912642434" />
              <rect x="-15.398841055359089" y="-15.398841055359089" width="30.797682110718178" height="30.797682110718178" />
              <rect x="-62.56979930215815" y="-62.56979930215815" width="125.1395986043163" height="125.1395986043163" />
              <rect x="-26.525508939982693" y="-26.525508939982693" width="53.051017879965386" height="53.051017879965386" />
              <rect x="-44.93044557991538" y="-44.93044557991538" width="89.86089115983076" height="89.86089115983076" />
              <rect x="-29.73620234193869" y="-29.73620234193869" width="59.47240468387738" height="59.47240468387738" />
              <rect x="-123.28289757476644" y="-123.28289757476644" width="246.56579514953287" height="246.56579514953287" />
              <rect x="-115.83084925736742" y="-115.83084925736742" width="231.66169851473484" height="231.66169851473484" />
              <rect x="-55.19851022898466" y="-55.19851022898466" width="110.39702045796932" height="110.39702045796932" />
              <rect x="-44.02806838539962" y="-44.02806838539962" width="88.05613677079924" height="88.05613677079924" />
            </g>
            <g transform="translate(75 0) scale(0.5 1)">
              <rect x="-116.57626363479231" y="-116.57626363479231" width="233.15252726958462" height="233.15252726958462" />
              <rect x="-115.10090544547246" y="-115.10090544547246" width="230.20181089094493" height="230.20181089094493" />
              <rect x="-82.11710123486402" y="-82.11710123486402" width="164.23420246972805" height="164.23420246972805" />
              <rect x="-83.00677766818762" y="-83.00677766818762" width="166.01355533637525" height="166.01355533637525" />
              <rect x="-38.58622194301281" y="-38.58622194301281" width="77.17244388602562" height="77.17244388602562" />
              <rect x="-124.14498851240309" y="-124.14498851240309" width="248.28997702480618" height="248.28997702480618" />
              <rect x="-52.69433556278209" y="-52.69433556278209" width="105.38867112556419" height="105.38867112556419" />
              <rect x="-67.13425343715008" y="-67.13425343715008" width="134.26850687430016" height="134.26850687430016" />
              <rect x="-21.654854023531943" y="-21.654854023531943" width="43.309708047063886" height="43.309708047063886" />
              <rect x="-78.84604712761212" y="-78.84604712761212" width="157.69209425522425" height="157.69209425522425" />
              <rect x="-40.3831123772117" y="-40.3831123772117" width="80.7662247544234" height="80.7662247544234" />
              <rect x="-102.88461336993889" y="-102.88461336993889" width="205.76922673987778" height="205.76922673987778" />
              <rect x="-46.43276256508945" y="-46.43276256508945" width="92.8655251301789" height="92.8655251301789" />
              <rect x="-81.92913614293943" y="-81.92913614293943" width="163.85827228587885" height="163.85827228587885" />
              <rect x="-25.198208928976396" y="-25.198208928976396" width="50.39641785795279" height="50.39641785795279" />
            </g>
          </g>
          <g transform="translate(0 -75) scale(1 0.5)">
            <g transform="translate(-75 0) scale(0.5 1)">
              <rect x="-12.864265595861443" y="-12.864265595861443" width="25.728531191722887" height="25.728531191722887" />
              <rect x="-92.19310604502343" y="-92.19310604502343" width="184.38621209004685" height="184.38621209004685" />
              <rect x="-76.735844076108" y="-76.735844076108" width="153.471688152216" height="153.471688152216" />
              <rect x="-39.31761321484598" y="-39.31761321484598" width="78.63522642969195" height="78.63522642969195" />
              <rect x="-75.34807221110997" y="-75.34807221110997" width="150.69614442221993" height="150.69614442221993" />
              <rect x="-57.48141838726596" y="-57.48141838726596" width="114.96283677453192" height="114.96283677453192" />
              <rect x="-15.688191862477163" y="-15.688191862477163" width="31.376383724954326" height="31.376383724954326" />
              <rect x="-80.31950654034402" y="-80.31950654034402" width="160.63901308068804" height="160.63901308068804" />
              <rect x="-123.03888544808885" y="-123.03888544808885" width="246.0777708961777" height="246.0777708961777" />
              <rect x="-101.90251582247464" y="-101.90251582247464" width="203.80503164494928" height="203.80503164494928" />
              <rect x="-88.10716332883547" y="-88.10716332883547" width="176.21432665767094" height="176.21432665767094" />
              <rect x="-57.32072597738635" y="-57.32072597738635" width="114.6414519547727" height="114.6414519547727" />
              <rect x="-72.64155064975621" y="-72.64155064975621" width="145.28310129951242" height="145.28310129951242" />
              <rect x="-78.35207577944065" y="-78.35207577944065" width="156.7041515588813" height="156.7041515588813" />
              <rect x="-109.66951936228067" y="-109.66951936228067" width="219.33903872456133" height="219.33903872456133" />
            </g>
            <g transform="translate(75 0) scale(0.5 1)">
              <rect x="-17.23677694428359" y="-17.23677694428359" width="34.47355388856718" height="34.47355388856718" />
              <rect x="-52.44711544962778" y="-52.44711544962778" width="104.89423089925556" height="104.89423089925556" />
              <rect x="-99.50420858273418" y="-99.50420858273418" width="199.00841716546836" height="199.00841716546836" />
              <rect x="-12.08945933916522" y="-12.08945933916522" width="24.17891867833044" height="24.17891867833044" />
              <rect x="-65.27723771556234" y="-65.27723771556234" width="130.55447543112467" height="130.55447543112467" />
              <rect x="-101.2480083752786" y="-101.2480083752786" width="202.4960167505572" height="202.4960167505572" />
              <rect x="-108.82174874901165" y="-108.82174874901165" width="217.6434974980233" height="217.6434974980233" />
              <rect x="-88.7508210891945" y="-88.7508210891945" width="177.501642178389" height="177.501642178389" />
              <rect x="-106.3915199828878" y="-106.3915199828878" width="212.7830399657756" height="212.7830399657756" />
              <rect x="-88.73198731710312" y="-88.73198731710312" width="177.46397463420624" height="177.46397463420624" />
              <rect x="-50.370672387983845" y="-50.370672387983845" width="100.74134477596769" height="100.74134477596769" />
              <rect x="-106.79677635225494" y="-106.79677635225494" width="213.59355270450988" height="213.59355270450988" />
              <rect x="-33.845410495561374" y="-33.845410495561374" width="67.69082099112275" height="67.69082099112275" />
              <rect x="-57.57701077031889" y="-57.57701077031889" width="115.15402154063779" height="115.15402154063779" />
              <rect x="-22.162673767853622" y="-22.162673767853622" width="44.325347535707245" height="44.325347535707245" />
            </g>
          </g>
        </g>
      </g>
    </g>
  </g>
</g>
</svg>
