<svg width="300" height="300" viewBox="-150 -150 300 300" fill="none" stroke="black" xmlns="http://www.w3.org/2000/svg" xmlns:xlink="http://www.w3.org/1999/xlink">
<g transform="scale(1 -1)">
  <g>
    <g>
      <circle cx="-135.0" cy="-135.0" r="15.0" />
      <circle cx="-135.0" cy="-135.0" r="7.5" />
    </g>
    <g>
      <circle cx="-105.0" cy="-135.0" r="15.0" />
      <circle cx="-105.0" cy="-135.0" r="7.5" />
    </g>
    <g>
      <circle cx="-75.0" cy="-135.0" r="15.0" />
      <circle cx="-75.0" cy="-135.0" r="7.5" />
    </g>
    <g>
      <circle cx="-45.0" cy="-135.0" r="15.0" />
      <circle cx="-45.0" cy="-135.0" r="7.5" />
    </g>
    <g>
      <circle cx="-15.0" cy="-135.0" r="15.0" />
      <circle cx="-15.0" cy="-135.0" r="7.5" />
    </g>
    <g>
      <circle cx="15.0" cy="-135.0" r="15.0" />
      <circle cx="15.0" cy="-135.0" r="7.5" />
    </g>
    <g>
      <circle cx="45.0" cy="-135.0" r="15.0" />
      <circle cx="45.0" cy="-135.0" r="7.5" />
    </g>
    <g>
      <circle cx="75.0" cy="-135.0" r="15.0" />
      <circle cx="75.0" cy="-135.0" r="7.5" />
    </g>
    <g>
      <circle cx="105.0" cy="-135.0" r="15.0" />
      <circle cx="105.0" cy="-135.0" r="7.5" />
    </g>
    <g>
      <circle cx="135.0" cy="-135.0" r="15.0" />
      <circle cx="135.0" cy="-135.0" r="7.5" />
    </g>
    <g>
      <circle cx="-135.0" cy="-105.0" r="15.0" />
      <circle cx="-135.0" cy="-105.0" r="7.5" />
    </g>
    <g>
      <circle cx="-105.0" cy="-105.0" r="15.0" />
      <circle cx="-105.0" cy="-105.0" r="7.5" />
    </g>
    <g>
      <circle cx="-75.0" cy="-105.0" r="15.0" />
      <circle cx="-75.0" cy="-105.0" r="7.5" />
    </g>
    <g>
      <circle cx="-45.0" cy="-105.0" r="15.0" />
      <circle cx="-45.0" cy="-105.0" r="7.5" />
    </g>
    <g>
      <circle cx="-15.0" cy="-105.0" r="15.0" />
      <circle cx="-15.0" cy="-105.0" r="7.5" />
    </g>
    <g>
      <circle cx="15.0" cy="-105.0" r="15.0" />
      <circle cx="15.0" cy="-105.0" r="7.5" />
    </g>
    <g>
      <circle cx="45.0" cy="-105.0" r="15.0" />
      <circle cx="45.0" cy="-105.0" r="7.5" />
    </g>
    <g>
      <circle cx="75.0" cy="-105.0" r="15.0" />
      <circle cx="75.0" cy="-105.0" r="7.5" />
    </g>
    <g>
      <circle cx="105.0" cy="-105.0" r="15.0" />
      <circle cx="105.0" cy="-105.0" r="7.5" />
    </g>
    <g>
      <circle cx="135.0" cy="-105.0" r="15.0" />
      <circle cx="135.0" cy="-105.0" r="7.5" />
    </g>
    <g>
      <circle cx="-135.0" cy="-75.0" r="15.0" />
      <circle cx="-135.0" cy="-75.0" r="7.5" />
    </g>
    <g>
      <circle cx="-105.0" cy="-75.0" r="15.0" />
      <circle cx="-105.0" cy="-75.0" r="7.5" />
    </g>
    <g>
      <circle cx="-75.0" cy="-75.0" r="15.0" />
      <circle cx="-75.0" cy="-75.0" r="7.5" />
    </g>
    <g>
      <circle cx="-45.0" cy="-75.0" r="15.0" />
      <circle cx="-45.0" cy="-75.0" r="7.5" />
    </g>
    <g>
      <circle cx="-15.0" cy="-75.0" r="15.0" />
      <circle cx="-15.0" cy="-75.0" r="7.5" />
    </g>
    <g>
      <circle cx="15.0" cy="-75.0" r="15.0" />
      <circle cx="15.0" cy="-75.0" r="7.5" />
    </g>
    <g>
      <circle cx="45.0" cy="-75.0" r="15.0" />
      <circle cx="45.0" cy="-75.0" r="7.5" />
    </g>
    <g>
      <circle cx="75.0" cy="-75.0" r="15.0" />
      <circle cx="75.0" cy="-75.0" r="7.5" />
    </g>
    <g>
      <circle cx="105.0" cy="-75.0" r="15.0" />
      <circle cx="105.0" cy="-75.0" r="7.5" />
    </g>
    <g>
      <circle cx="135.0" cy="-75.0" r="15.0" />
      <circle cx="135.0" cy="-75.0" r="7.5" />
    </g>
    <g>
      <circle cx="-135.0" cy="-45.0" r="15.0" />
      <circle cx="-135.0" cy="-45.0" r="7.5" />
    </g>
    <g>
      <circle cx="-105.0" cy="-45.0" r="15.0" />
      <circle cx="-105.0" cy="-45.0" r="7.5" />
    </g>
    <g>
      <circle cx="-75.0" cy="-45.0" r="15.0" />
      <circle cx="-75.0" cy="-45.0" r="7.5" />
    </g>
    <g>
      <circle cx="-45.0" cy="-45.0" r="15.0" />
      <circle cx="-45.0" cy="-45.0" r="7.5" />
    </g>
    <g>
      <circle cx="-15.0" cy="-45.0" r="15.0" />
      <circle cx="-15.0" cy="-45.0" r="7.5" />
    </g>
    <g>
      <circle cx="15.0" cy="-45.0" r="15.0" />
      <circle cx="15.0" cy="-45.0" r="7.5" />
    </g>
    <g>
      <circle cx="45.0" cy="-45.0" r="15.0" />
      <circle cx="45.0" cy="-45.0" r="7.5" />
    </g>
    <g>
      <circle cx="75.0" cy="-45.0" r="15.0" />
      <circle cx="75.0" cy="-45.0" r="7.5" />
    </g>
    <g>
      <circle cx="105.0" cy="-45.0" r="15.0" />
      <circle cx="105.0" cy="-45.0" r="7.5" />
    </g>
    <g>
      <circle cx="135.0" cy="-45.0" r="15.0" />
      <circle cx="135.0" cy="-45.0" r="7.5" />
    </g>
    <g>
      <circle cx="-135.0" cy="-15.0" r="15.0" />
      <circle cx="-135.0" cy="-15.0" r="7.5" />
    </g>
    <g>
      <circle cx="-105.0" cy="-15.0" r="15.0" />
      <circle cx="-105.0" cy="-15.0" r="7.5" />
    </g>
    <g>
      <circle cx="-75.0" cy="-15.0" r="15.0" />
      <circle cx="-75.0" cy="-15.0" r="7.5" />
    </g>
    <g>
      <circle cx="-45.0" cy="-15.0" r="15.0" />
      <circle cx="-45.0" cy="-15.0" r="7.5" />
    </g>
    <g>
      <circle cx="-15.0" cy="-15.0" r="15.0" />
      <circle cx="-15.0" cy="-15.0" r="7.5" />
    </g>
    <g>
      <circle cx="15.0" cy="-15.0" r="15.0" />
      <circle cx="15.0" cy="-15.0" r="7.5" />
    </g>
    <g>
      <circle cx="45.0" cy="-15.0" r="15.0" />
      <circle cx="45.0" cy="-15.0" r="7.5" />
    </g>
    <g>
      <circle cx="75.0" cy="-15.0" r="15.0" />
      <circle cx="75.0" cy="-15.0" r="7.5" />
    </g>
    <g>
      <circle cx="105.0" cy="-15.0" r="15.0" />
      <circle cx="105.0" cy="-15.0" r="7.5" />
    </g>
    <g>
      <circle cx="135.0" cy="-15.0" r="15.0" />
      <circle cx="135.0" cy="-15.0" r="7.5" />
    </g>
    <g>
      <circle cx="-135.0" cy="15.0" r="15.0" />
      <circle cx="-135.0" cy="15.0" r="7.5" />
    </g>
    <g>
      <circle cx="-105.0" cy="15.0" r="15.0" />
      <circle cx="-105.0" cy="15.0" r="7.5" />
    </g>
    <g>
      <circle cx="-75.0" cy="15.0" r="15.0" />
      <circle cx="-75.0" cy="15.0" r="7.5" />
    </g>
    <g>
      <circle cx="-45.0" cy="15.0" r="15.0" />
      <circle cx="-45.0" cy="15.0" r="7.5" />
    </g>
    <g>
      <circle cx="-15.0" cy="15.0" r="15.0" />
      <circle cx="-15.0" cy="15.0" r="7.5" />
    </g>
    <g>
      <circle cx="15.0" cy="15.0" r="15.0" />
      <circle cx="15.0" cy="15.0" r="7.5" />
    </g>
    <g>
      <circle cx="45.0" cy="15.0" r="15.0" />
      <circle cx="45.0" cy="15.0" r="7.5" />
    </g>
    <g>
      <circle cx="75.0" cy="15.0" r="15.0" />
      <circle cx="75.0" cy="15.0" r="7.5" />
    </g>
    <g>
      <circle cx="105.0" cy="15.0" r="15.0" />
      <circle cx="105.0" cy="15.0" r="7.5" />
    </g>
    <g>
      <circle cx="135.0" cy="15.0" r="15.0" />
      <circle cx="135.0" cy="15.0" r="7.5" />
    </g>
    <g>
      <circle cx="-135.0" cy="45.0" r="15.0" />
      <circle cx="-135.0" cy="45.0" r="7.5" />
    </g>
    <g>
      <circle cx="-105.0" cy="45.0" r="15.0" />
      <circle cx="-105.0" cy="45.0" r="7.5" />
    </g>
    <g>
      <circle cx="-75.0" cy="45.0" r="15.0" />
      <circle cx="-75.0" cy="45.0" r="7.5" />
    </g>
    <g>
      <circle cx="-45.0" cy="45.0" r="15.0" />
      <circle cx="-45.0" cy="45.0" r="7.5" />
    </g>
    <g>
      <circle cx="-15.0" cy="45.0" r="15.0" />
      <circle cx="-15.0" cy="45.0" r="7.5" />
    </g>
    <g>
      <circle cx="15.0" cy="45.0" r="15.0" />
      <circle cx="15.0" cy="45.0" r="7.5" />
    </g>
    <g>
      <circle cx="45.0" cy="45.0" r="15.0" />
      <circle cx="45.0" cy="45.0" r="7.5" />
    </g>
    <g>
      <circle cx="75.0" cy="45.0" r="15.0" />
      <circle cx="75.0" cy="45.0" r="7.5" />
    </g>
    <g>
      <circle cx="105.0" cy="45.0" r="15.0" />
      <circle cx="105.0" cy="45.0" r="7.5" />
    </g>
    <g>
      <circle cx="135.0" cy="45.0" r="15.0" />
      <circle cx="135.0" cy="45.0" r="7.5" />
    </g>
    <g>
      <circle cx="-135.0" cy="75.0" r="15.0" />
      <circle cx="-135.0" cy="75.0" r="7.5" />
    </g>
    <g>
      <circle cx="-105.0" cy="75.0" r="15.0" />
      <circle cx="-105.0" cy="75.0" r="7.5" />
    </g>
    <g>
      <circle cx="-75.0" cy="75.0" r="15.0" />
      <circle cx="-75.0" cy="75.0" r="7.5" />
    </g>
    <g>
      <circle cx="-45.0" cy="75.0" r="15.0" />
      <circle cx="-45.0" cy="75.0" r="7.5" />
    </g>
    <g>
      <circle cx="-15.0" cy="75.0" r="15.0" />
      <circle cx="-15.0" cy="75.0" r="7.5" />
    </g>
    <g>
      <circle cx="15.0" cy="75.0" r="15.0" />
      <circle cx="15.0" cy="75.0" r="7.5" />
    </g>
    <g>
      <circle cx="45.0" cy="75.0" r="15.0" />
      <circle cx="45.0" cy="75.0" r="7.5" />
    </g>
    <g>
      <circle cx="75.0" cy="75.0" r="15.0" />
      <circle cx="75.0" cy="75.0" r="7.5" />
    </g>
    <g>
      <circle cx="105.0" cy="75.0" r="15.0" />
      <circle cx="105.0" cy="75.0" r="7.5" />
    </g>
    <g>
      <circle cx="135.0" cy="75.0" r="15.0" />
      <circle cx="135.0" cy="75.0" r="7.5" />
    </g>
    <g>
      <circle cx="-135.0" cy="105.0" r="15.0" />
      <circle cx="-135.0" cy="105.0" r="7.5" />
    </g>
    <g>
      <circle cx="-105.0" cy="105.0" r="15.0" />
      <circle cx="-105.0" cy="105.0" r="7.5" />
    </g>
    <g>
      <circle cx="-75.0" cy="105.0" r="15.0" />
      <circle cx="-75.0" cy="105.0" r="7.5" />
    </g>
    <g>
      <circle cx="-45.0" cy="105.0" r="15.0" />
      <circle cx="-45.0" cy="105.0" r="7.5" />
    </g>
    <g>
      <circle cx="-15.0" cy="105.0" r="15.0" />
      <circle cx="-15.0" cy="105.0" r="7.5" />
    </g>
    <g>
      <circle cx="15.0" cy="105.0" r="15.0" />
      <circle cx="15.0" cy="105.0" r="7.5" />
    </g>
    <g>
      <circle cx="45.0" cy="105.0" r="15.0" />
      <circle cx="45.0" cy="105.0" r="7.5" />
    </g>
    <g>
      <circle cx="75.0" cy="105.0" r="15.0" />
      <circle cx="75.0" cy="105.0" r="7.5" />
    </g>
    <g>
      <circle cx="105.0" cy="105.0" r="15.0" />
      <circle cx="105.0" cy="105.0" r="7.5" />
    </g>
    <g>
      <circle cx="135.0" cy="105.0" r="15.0" />
      <circle cx="135.0" cy="105.0" r="7.5" />
    </g>
    <g>
      <circle cx="-135.0" cy="135.0" r="15.0" />
      <circle cx="-135.0" cy="135.0" r="7.5" />
    </g>
    <g>
      <circle cx="-105.0" cy="135.0" r="15.0" />
      <circle cx="-105.0" cy="135.0" r="7.5" />
    </g>
    <g>
      <circle cx="-75.0" cy="135.0" r="15.0" />
      <circle cx="-75.0" cy="135.0" r="7.5" />
    </g>
    <g>
      <circle cx="-45.0" cy="135.0" r="15.0" />
      <circle cx="-45.0" cy="135.0" r="7.5" />
    </g>
    <g>
      <circle cx="-15.0" cy="135.0" r="15.0" />
      <circle cx="-15.0" cy="135.0" r="7.5" />
    </g>
    <g>
      <circle cx="15.0" cy="135.0" r="15.0" />
      <circle cx="15.0" cy="135.0" r="7.5" />
    </g>
    <g>
      <circle cx="45.0" cy="135.0" r="15.0" />
      <circle cx="45.0" cy="135.0" r="7.5" />
    </g>
    <g>
      <circle cx="75.0" cy="135.0" r="15.0" />
      <circle cx="75.0" cy="135.0" r="7.5" />
    </g>
    <g>
      <circle cx="105.0" cy="135.0" r="15.0" />
      <circle cx="105.0" cy="135.0" r="7.5" />
    </g>
    <g>
      <circle cx="135.0" cy="135.0" r="15.0" />
      <circle cx="135.0" cy="135.0" r="7.5" />
    </g>
  </g>
</g>
</svg>
