<svg width="300" height="300" viewBox="-150 -150 300 300" fill="none" stroke="black" xmlns="http://www.w3.org/2000/svg" xmlns:xlink="http://www.w3.org/1999/xlink">
<g transform="scale(1 -1)">
  <g>
    <g transform="translate(-120.0 -120.0)">
      <rect x="-5.479992039375733" y="-5.479992039375733" width="10.959984078751466" height="10.959984078751466" />
      <rect x="-18.280479111958005" y="-18.280479111958005" width="36.56095822391601" height="36.56095822391601" />
      <rect x="-18.844554192967227" y="-18.844554192967227" width="37.68910838593445" height="37.68910838593445" />
      <rect x="-23.941276250614457" y="-23.941276250614457" width="47.882552501228915" height="47.882552501228915" />
      <rect x="-26.257963886515014" y="-26.257963886515014" width="52.51592777303003" height="52.51592777303003" />
      <rect x="-21.318695056853578" y="-21.318695056853578" width="42.637390113707156" height="42.637390113707156" />
      <rect x="-24.161058509095305" y="-24.161058509095305" width="48.32211701819061" height="48.32211701819061" />
      <rect x="-16.12053484983508" y="-16.12053484983508" width="32.24106969967016" height="32.24106969967016" />
      <rect x="-14.933430865075643" y="-14.933430865075643" width="29.866861730151285" height="29.866861730151285" />
      <rect x="-14.508893875360787" y="-14.508893875360787" width="29.017787750721574" height="29.017787750721574" />
    </g>
    <g transform="translate(-60.0 -120.0)">
      <rect x="-24.722593006417473" y="-24.722593006417473" width="49.445186012834945" height="49.445186012834945" />
      <rect x="-10.898353789040579" y="-10.898353789040579" width="21.796707578081158" height="21.796707578081158" />
      <rect x="-14.758469326873737" y="-14.758469326873737" width="29.516938653747474" height="29.516938653747474" />
      <rect x="-18.709335260425544" y="-18.709335260425544" width="37.41867052085109" height="37.41867052085109" />
      <rect x="-4.385557941617214" y="-4.385557941617214" width="8.771115883234428" height="8.771115883234428" />
      <rect x="-26.67544440357824" y="-26.67544440357824" width="53.35088880715648" height="53.35088880715648" />
      <rect x="-13.15630943712246" y="-13.15630943712246" width="26.31261887424492" height="26.31261887424492" />
      <rect x="-10.267221520385899" y="-10.267221520385899" width="20.534443040771798" height="20.534443040771798" />
      <rect x="-26.450479968924814" y="-26.450479968924814" width="52.90095993784963" height="52.90095993784963" />
      <rect x="-10.681247159956275" y="-10.681247159956275" width="21.36249431991255" height="21.36249431991255" />
    </g>
    <g transform="translate(0.0 -120.0)">
      <rect x="-16.813846024878245" y="-16.813846024878245" width="33.62769204975649" height="33.62769204975649" />
      <rect x="-12.047328064330301" y="-12.047328064330301" width="24.094656128660603" height="24.094656128660603" />
      <rect x="-0.5053280119859638" y="-0.5053280119859638" width="1.0106560239719276" height="1.0106560239719276" />
      <rect x="-17.975858286876413" y="-17.975858286876413" width="35.951716573752826" height="35.951716573752826" />
      <rect x="-28.882579328668385" y="-28.882579328668385" width="57.76515865733677" height="57.76515865733677" />
      <rect x="-0.012489634835228802" y="-0.012489634835228802" width="0.024979269670457604" height="0.024979269670457604" />
      <rect x="-11.126549626750325" y="-11.126549626750325" width="22.25309925350065" height="22.25309925350065" />
      <rect x="-14.237024382556022" y="-14.237024382556022" width="28.474048765112045" height="28.474048765112045" />
      <rect x="-20.84975387725431" y="-20.84975387725431" width="41.69950775450862" height="41.69950775450862" />
      <rect x="-13.82063952427331" y="-13.82063952427331" width="27.64127904854662" height="27.64127904854662" />
    </g>
    <g transform="translate(60.0 -120.0)">
      <rect x="-2.7892427528396024" y="-2.7892427528396024" width="5.578485505679205" height="5.578485505679205" />
      <rect x="-4.604624193626032" y="-4.604624193626032" width="9.209248387252064" height="9.209248387252064" />
      <rect x="-5.519396071910261" y="-5.519396071910261" width="11.038792143820523" height="11.038792143820523" />
      <rect x="-3.2463910204835047" y="-3.2463910204835047" width="6.492782040967009" height="6.492782040967009" />
      <rect x="-25.9054880130256" y="-25.9054880130256" width="51.8109760260512" height="51.8109760260512" />
      <rect x="-5.260753351887723" y="-5.260753351887723" width="10.521506703775446" height="10.521506703775446" />
      <rect x="-22.32261704664637" y="-22.32261704664637" width="44.64523409329274" height="44.64523409329274" />
      <rect x="-25.18642189079253" y="-25.18642189079253" width="50.37284378158506" height="50.37284378158506" />
      <rect x="-5.1808648157617885" y="-5.1808648157617885" width="10.361729631523577" height="10.361729631523577" />
      <rect x="-20.7800579632351" y="-20.7800579632351" width="41.5601159264702" height="41.5601159264702" />
    </g>
    <g transform="translate(120.0 -120.0)">
      <rect x="-2.817842703571637" y="-2.817842703571637" width="5.635685407143274" height="5.635685407143274" />
      <rect x="-10.919535807631517" y="-10.919535807631517" width="21.839071615263034" height="21.839071615263034" />
      <rect x="-25.661595733707813" y="-25.661595733707813" width="51.323191467415626" height="51.323191467415626" />
      <rect x="-15.77201974916748" y="-15.77201974916748" width="31.54403949833496" height="31.54403949833496" />
      <rect x="-4.611152944621649" y="-4.611152944621649" width="9.222305889243298" height="9.222305889243298" />
      <rect x="-3.151803700723279" y="-3.151803700723279" width="6.303607401446558" height="6.303607401446558" />
      <rect x="-16.085396304890747" y="-16.085396304890747" width="32.17079260978149" height="32.17079260978149" />
      <rect x="-17.437323370312566" y="-17.437323370312566" width="34.87464674062513" height="34.87464674062513" />
      <rect x="-25.53350080643691" y="-25.53350080643691" width="51.06700161287382" height="51.06700161287382" />
      <rect x="-22.19083301561804" y="-22.19083301561804" width="44.38166603123608" height="44.38166603123608" />
    </g>
    <g transform="translate(-120.0 -60.0)">
      <rect x="-4.722116894071559" y="-4.722116894071559" width="9.444233788143118" height="9.444233788143118" />
      <rect x="-1.4899486171312393" y="-1.4899486171312393" width="2.9798972342624785" height="2.9798972342624785" />
      <rect x="-14.335961951186686" y="-14.335961951186686" width="28.671923902373372" height="28.671923902373372" />
      <rect x="-13.456274316598277" y="-13.456274316598277" width="26.912548633196554" height="26.912548633196554" />
      <rect x="-11.368190825891935" y="-11.368190825891935" width="22.73638165178387" height="22.73638165178387" />
      <rect x="-10.664955135078104" y="-10.664955135078104" width="21.32991027015621" height="21.32991027015621" />
      <rect x="-18.716514163455194" y="-18.716514163455194" width="37.43302832691039" height="37.43302832691039" />
      <rect x="-11.022232440594838" y="-11.022232440594838" width="22.044464881189676" height="22.044464881189676" />
      <rect x="-7.229929836562783" y="-7.229929836562783" width="14.459859673125566" height="14.459859673125566" />
      <rect x="-8.650088712224825" y="-8.650088712224825" width="17.30017742444965" height="17.30017742444965" />
    </g>
    <g transform="translate(-60.0 -60.0)">
      <rect x="-3.6169468129945215" y="-3.6169468129945215" width="7.233893625989043" height="7.233893625989043" />
      <rect x="-20.157707955702215" y="-20.157707955702215" width="40.31541591140443" height="40.31541591140443" />
      <rect x="-19.712242507460516" y="-19.712242507460516" width="39.42448501492103" height="39.42448501492103" />
      <rect x="-17.615039620142465" y="-17.615039620142465" width="35.23007924028493" height="35.23007924028493" />
      <rect x="-8.874800525815532" y="-8.874800525815532" width="17.749601051631064" height="17.749601051631064" />
      <rect x="-5.454005722036596" y="-5.454005722036596" width="10.908011444073193" height="10.908011444073193" />
      <rect x="-16.004495978681213" y="-16.004495978681213" width="32.008991957362426" height="32.008991957362426" />
      <rect x="-5.909142915928427" y="-5.909142915928427" width="11.818285831856855" height="11.818285831856855" />
      <rect x="-7.814894323756483" y="-7.814894323756483" width="15.629788647512965" height="15.629788647512965" />
      <rect x="-25.402399010392426" y="-25.402399010392426" width="50.80479802078485" height="50.80479802078485" />
    </g>
    <g transform="translate(0.0 -60.0)">
      <rect x="-26.32433684134894" y="-26.32433684134894" width="52.64867368269788" height="52.64867368269788" />
      <rect x="-17.392880843739043" y="-17.392880843739043" width="34.785761687478086" height="34.785761687478086" />
      <rect x="-15.416801526196316" y="-15.416801526196316" width="30.833603052392633" height="30.833603052392633" />
      <rect x="-7.726011219793549" y="-7.726011219793549" width="15.452022439587099" height="15.452022439587099" />
      <rect x="-3.950198785197684" y="-3.950198785197684" width="7.900397570395368" height="7.900397570395368" />
      <rect x="-25.27277143300362" y="-25.27277143300362" width="50.54554286600724" height="50.54554286600724" />
      <rect x="-13.613268576218104" y="-13.613268576218104" width="27.226537152436208" height="27.226537152436208" />
      <rect x="-18.113801163042083" y="-18.113801163042083" width="36.22760232608417" height="36.22760232608417" />
      <rect x="-12.522415589687437" y="-12.522415589687437" width="25.044831179374874" height="25.044831179374874" />
      <rect x="-12.385257234763818" y="-12.385257234763818" width="24.770514469527637" height="24.770514469527637" />
    </g>
    <g transform="translate(60.0 -60.0)">
      <rect x="-18.902616575457124" y="-18.902616575457124" width="37.80523315091425" height="37.80523315091425" />
      <rect x="-18.62155807825374" y="-18.62155807825374" width="37.24311615650748" height="37.24311615650748" />
      <rect x="-10.200161468002417" y="-10.200161468002417" width="20.400322936004834" height="20.400322936004834" />
      <rect x="-21.07350734872357" y="-21.07350734872357" width="42.14701469744714" height="42.14701469744714" />
      <rect x="-21.034649472818188" y="-21.034649472818188" width="42.069298945636376" height="42.069298945636376" />
      <rect x="-20.52421260715367" y="-20.52421260715367" width="41.04842521430734" height="41.04842521430734" />
      <rect x="-11.440911111130488" y="-11.440911111130488" width="22.881822222260976" height="22.881822222260976" />
      <rect x="-16.196478476349718" y="-16.196478476349718" width="32.392956952699436" height="32.392956952699436" />
      <rect x="-20.593232562030575" y="-20.593232562030575" width="41.18646512406115" height="41.18646512406115" />
      <rect x="-20.720923966128197" y="-20.720923966128197" width="41.441847932256394" height="41.441847932256394" />
    </g>
    <g transform="translate(120.0 -60.0)">
      <rect x="-0.54306946751561" y="-0.54306946751561" width="1.08613893503122" height="1.08613893503122" />
      <rect x="-6.708859354142996" y="-6.708859354142996" width="13.417718708285992" height="13.417718708285992" />
      <rect x="-15.515235013865928" y="-15.515235013865928" width="31.030470027731855" height="31.030470027731855" />
      <rect x="-21.704755859169286" y="-21.704755859169286" width="43.40951171833857" height="43.40951171833857" />
      <rect x="-29.787472879901628" y="-29.787472879901628" width="59.574945759803256" height="59.574945759803256" />
      <rect x="-4.185406092218168" y="-4.185406092218168" width="8.370812184436335" height="8.370812184436335" />
      <rect x="-10.171013509473246" y="-10.171013509473246" width="20.342027018946492" height="20.342027018946492" />
      <rect x="-11.433157774475035" y="-11.433157774475035" width="22.86631554895007" height="22.86631554895007" />
      <rect x="-16.13156794133718" y="-16.13156794133718" width="32.26313588267436" height="32.26313588267436" />
      <rect x="-17.074878737185262" y="-17.074878737185262" width="34.149757474370524" height="34.149757474370524" />
    </g>
    <g transform="translate(-120.0 0.0)">
      <rect x="-29.03956512141164" y="-29.03956512141164" width="58.07913024282328" height="58.07913024282328" />
      <rect x="-11.883712572010946" y="-11.883712572010946" width="23.767425144021892" height="23.767425144021892" />
      <rect x="-27.92729470199776" y="-27.92729470199776" width="55.85458940399552" height="55.85458940399552" />
      <rect x="-18.34844826803447" y="-18.34844826803447" width="36.69689653606894" height="36.69689653606894" />
      <rect x="-8.143378830608942" y="-8.143378830608942" width="16.286757661217884" height="16.286757661217884" />
      <rect x="-22.291630971087354" y="-22.291630971087354" width="44.58326194217471" height="44.58326194217471" />
      <rect x="-28.69886419766394" y="-28.69886419766394" width="57.39772839532788" height="57.39772839532788" />
      <rect x="-8.59921263656187" y="-8.59921263656187" width="17.19842527312374" height="17.19842527312374" />
      <rect x="-23.867229667875524" y="-23.867229667875524" width="47.73445933575105" height="47.73445933575105" />
      <rect x="-18.10665787395804" y="-18.10665787395804" width="36.21331574791608" height="36.21331574791608" />
    </g>
    <g transform="translate(-60.0 0.0)">
      <rect x="-23.710587019414202" y="-23.710587019414202" width="47.421174038828404" height="47.421174038828404" />
      <rect x="-6.230744659489931" y="-6.230744659489931" width="12.461489318979861" height="12.461489318979861" />
      <rect x="-16.265124760410757" y="-16.265124760410757" width="32.53024952082151" height="32.53024952082151" />
      <rect x="-5.553153993000496" y="-5.553153993000496" width="11.106307986000992" height="11.106307986000992" />
      <rect x="-15.274815716204097" y="-15.274815716204097" width="30.549631432408194" height="30.549631432408194" />
      <rect x="-2.992266732433677" y="-2.992266732433677" width="5.984533464867354" height="5.984533464867354" />
      <rect x="-8.519408019456566" y="-8.519408019456566" width="17.038816038913133" height="17.038816038913133" />
      <rect x="-19.871370363264834" y="-19.871370363264834" width="39.74274072652967" height="39.74274072652967" />
      <rect x="-3.840123594277942" y="-3.840123594277942" width="7.680247188555884" height="7.680247188555884" />
      <rect x="-18.791553228206492" y="-18.791553228206492" width="37.583106456412985" height="37.583106456412985" />
    </g>
    <g transform="translate(0.0 0.0)">
      <rect x="-26.181432917932728" y="-26.181432917932728" width="52.362865835865456" height="52.362865835865456" />
      <rect x="-25.569418690572746" y="-25.569418690572746" width="51.13883738114549" height="51.13883738114549" />
      <rect x="-14.207707844955541" y="-14.207707844955541" width="28.415415689911082" height="28.415415689911082" />
      <rect x="-26.63967859587175" y="-26.63967859587175" width="53.2793571917435" height="53.2793571917435" />
      <rect x="-20.257822240098847" y="-20.257822240098847" width="40.51564448019769" height="40.51564448019769" />
      <rect x="-18.340293891007153" y="-18.340293891007153" width="36.68058778201431" height="36.68058778201431" />
      <rect x="-25.772405884869542" y="-25.772405884869542" width="51.544811769739084" height="51.544811769739084" />
      <rect x="-25.122034504872534" y="-25.122034504872534" width="50.24406900974507" height="50.24406900974507" />
      <rect x="-26.897695005221163" y="-26.897695005221163" width="53.795390010442325" height="53.795390010442325" />
      <rect x="-17.424773878935945" y="-17.424773878935945" width="34.84954775787189" height="34.84954775787189" />
    </g>
    <g transform="translate(60.0 0.0)">
      <rect x="-20.61750633999266" y="-20.61750633999266" width="41.23501267998532" height="41.23501267998532" />
      <rect x="-14.426299842466346" y="-14.426299842466346" width="28.85259968493269" height="28.85259968493269" />
      <rect x="-22.554412842612418" y="-22.554412842612418" width="45.108825685224836" height="45.108825685224836" />
      <rect x="-27.600281026627265" y="-27.600281026627265" width="55.20056205325453" height="55.20056205325453" />
      <rect x="-6.991586783625562" y="-6.991586783625562" width="13.983173567251123" height="13.983173567251123" />
      <rect x="-9.518583724622232" y="-9.518583724622232" width="19.037167449244464" height="19.037167449244464" />
      <rect x="-12.264220042868082" y="-12.264220042868082" width="24.528440085736165" height="24.528440085736165" />
      <rect x="-9.787534248240474" y="-9.787534248240474" width="19.57506849648095" height="19.57506849648095" />
      <rect x="-13.18972957436657" y="-13.18972957436657" width="26.37945914873314" height="26.37945914873314" />
      <rect x="-14.15261384500824" y="-14.15261384500824" width="28.30522769001648" height="28.30522769001648" />
    </g>
    <g transform="translate(120.0 0.0)">
      <rect x="-5.681675854938798" y="-5.681675854938798" width="11.363351709877596" height="11.363351709877596" />
      <rect x="-21.07906835402487" y="-21.07906835402487" width="42.15813670804974" height="42.15813670804974" />
      <rect x="-16.98187620838659" y="-16.98187620838659" width="33.96375241677318" height="33.96375241677318" />
      <rect x="-24.536628664190797" y="-24.536628664190797" width="49.073257328381594" height="49.073257328381594" />
      <rect x="-2.825548699288457" y="-2.825548699288457" width="5.651097398576914" height="5.651097398576914" />
      <rect x="-21.282541319590546" y="-21.282541319590546" width="42.56508263918109" height="42.56508263918109" />
      <rect x="-6.304442894620227" y="-6.304442894620227" width="12.608885789240453" height="12.608885789240453" />
      <rect x="-10.694484299153684" y="-10.694484299153684" width="21.38896859830737" height="21.38896859830737" />
      <rect x="-19.35468131644365" y="-19.35468131644365" width="38.7093626328873" height="38.7093626328873" />
      <rect x="-0.7011903029355859" y="-0.7011903029355859" width="1.4023806058711719" height="1.4023806058711719" />
    </g>
    <g transform="translate(-120.0 60.0)">
      <rect x="-7.00448001123566" y="-7.00448001123566" width="14.00896002247132" height="14.00896002247132" />
      <rect x="-21.83301844579619" y="-21.83301844579619" width="43.66603689159238" height="43.66603689159238" />
      <rect x="-2.9850857043712944" y="-2.9850857043712944" width="5.970171408742589" height="5.970171408742589" />
      <rect x="-21.50491498883414" y="-21.50491498883414" width="43.00982997766828" height="43.00982997766828" />
      <rect x="-19.73083061946172" y="-19.73083061946172" width="39.46166123892344" height="39.46166123892344" />
      <rect x="-10.370210264314256" y="-10.370210264314256" width="20.740420528628512" height="20.740420528628512" />
      <rect x="-21.897195154801533" y="-21.897195154801533" width="43.79439030960307" height="43.79439030960307" />
      <rect x="-16.011343333521364" y="-16.011343333521364" width="32.02268666704273" height="32.02268666704273" />
      <rect x="-10.684563143495398" y="-10.684563143495398" width="21.369126286990795" height="21.369126286990795" />
      <rect x="-27.828716706676826" y="-27.828716706676826" width="55.65743341335365" height="55.65743341335365" />
    </g>
    <g transform="translate(-60.0 60.0)">
      <rect x="-17.222161276080065" y="-17.222161276080065" width="34.44432255216013" height="34.44432255216013" />
      <rect x="-14.029457946428455" y="-14.029457946428455" width="28.05891589285691" height="28.05891589285691" />
      <rect x="-1.0773989031759224" y="-1.0773989031759224" width="2.1547978063518447" height="2.1547978063518447" />
      <rect x="-29.37871691062571" y="-29.37871691062571" width="58.75743382125142" height="58.75743382125142" />
      <rect x="-12.73048304510099" y="-12.73048304510099" width="25.46096609020198" height="25.46096609020198" />
      <rect x="-16.758912399271882" y="-16.758912399271882" width="33.517824798543764" height="33.517824798543764" />
      <rect x="-4.536225487589234" y="-4.536225487589234" width="9.072450975178468" height="9.072450975178468" />
      <rect x="-9.25996467172107" y="-9.25996467172107" width="18.51992934344214" height="18.51992934344214" />
      <rect x="-10.702779870826491" y="-10.702779870826491" width="21.405559741652983" height="21.405559741652983" />
      <rect x="-8.092268042632078" y="-8.092268042632078" width="16.184536085264156" height="16.184536085264156" />
    </g>
    <g transform="translate(0.0 60.0)">
      <rect x="-24.750749588806265" y="-24.750749588806265" width="49.50149917761253" height="49.50149917761253" />
      <rect x="-26.018957094210563" y="-26.018957094210563" width="52.03791418842113" height="52.03791418842113" />
      <rect x="-29.09811507255965" y="-29.09811507255965" width="58.1962301451193" height="58.1962301451193" />
      <rect x="-19.262429045195347" y="-19.262429045195347" width="38.524858090390694" height="38.524858090390694" />
      <rect x="-5.386827351588506" y="-5.386827351588506" width="10.773654703177012" height="10.773654703177012" />
      <rect x="-27.313246848474623" y="-27.313246848474623" width="54.62649369694925" height="54.62649369694925" />
      <rect x="-6.040365906989889" y="-6.040365906989889" width="12.080731813979778" height="12.080731813979778" />
      <rect x="-2.5629003376936197" y="-2.5629003376936197" width="5.125800675387239" height="5.125800675387239" />
      <rect x="-15.285924585305413" y="-15.285924585305413" width="30.571849170610825" height="30.571849170610825" />
      <rect x="-25.17472617845286" y="-25.17472617845286" width="50.34945235690572" height="50.34945235690572" />
    </g>
    <g transform="translate(60.0 60.0)">
      <rect x="-29.83438329896241" y="-29.83438329896241" width="59.66876659792482" height="59.66876659792482" />
      <rect x="-19.937366828684564" y="-19.937366828684564" width="39.87473365736913" height="39.87473365736913" />
      <rect x="-23.652270061436123" y="-23.652270061436123" width="47.30454012287225" height="47.30454012287225" />
      <rect x="-21.397846310152286" y="-21.397846310152286" width="42.79569262030457" height="42.79569262030457" />
      <rect x="-23.031400644778984" y="-23.031400644778984" width="46.06280128955797" height="46.06280128955797" />
      <rect x="-26.544680346402203" y="-26.544680346402203" width="53.089360692804405" height="53.089360692804405" />
      <rect x="-5.559151606934431" y="-5.559151606934431" width="11.118303213868861" height="11.118303213868861" />
      <rect x="-2.230949012210214" y="-2.230949012210214" width="4.461898024420428" height="4.461898024420428" />
      <rect x="-25.863681649789754" y="-25.863681649789754" width="51.72736329957951" height="51.72736329957951" />
      <rect x="-16.422865918083073" y="-16.422865918083073" width="32.845731836166145" height="32.845731836166145" />
    </g>
    <g transform="translate(120.0 60.0)">
      <rect x="-26.193726066429406" y="-26.193726066429406" width="52.38745213285881" height="52.38745213285881" />
      <rect x="-25.04398476795484" y="-25.04398476795484" width="50.08796953590968" height="50.08796953590968" />
      <rect x="-12.95512128772368" y="-12.95512128772368" width="25.91024257544736" height="25.91024257544736" />
      <rect x="-12.204485091158054" y="-12.204485091158054" width="24.408970182316107" height="24.408970182316107" />
      <rect x="-22.27131690674249" y="-22.27131690674249" width="44.54263381348498" height="44.54263381348498" />
      <rect x="-7.892610585930949" y="-7.892610585930949" width="15.785221171861899" height="15.785221171861899" />
      <rect x="-5.566190289697649" y="-5.566190289697649" width="11.132380579395297" height="11.132380579395297" />
      <rect x="-18.886287779428695" y="-18.886287779428695" width="37.77257555885739" height="37.77257555885739" />
      <rect x="-23.667621727681578" y="-23.667621727681578" width="47.335243455363155" height="47.335243455363155" />
      <rect x="-20.68927669256908" y="-20.68927669256908" width="41.37855338513816" height="41.37855338513816" />
    </g>
    <g transform="translate(-120.0 120.0)">
      <rect x="-25.154183791831066" y="-25.154183791831066" width="50.30836758366213" height="50.30836758366213" />
      <rect x="-24.963250508556776" y="-24.963250508556776" width="49.92650101711355" height="49.92650101711355" />
      <rect x="-7.1654645582956284" y="-7.1654645582956284" width="14.330929116591257" height="14.330929116591257" />
      <rect x="-1.0908397898398248" y="-1.0908397898398248" width="2.1816795796796495" height="2.1816795796796495" />
      <rect x="-15.076751842968088" y="-15.076751842968088" width="30.153503685936176" height="30.153503685936176" />
      <rect x="-28.76289054226625" y="-28.76289054226625" width="57.5257810845325" height="57.5257810845325" />
      <rect x="-15.930670410534338" y="-15.930670410534338" width="31.861340821068676" height="31.861340821068676" />
      <rect x="-29.06265731537826" y="-29.06265731537826" width="58.12531463075652" height="58.12531463075652" />
      <rect x="-6.2591573643481695" y="-6.2591573643481695" width="12.518314728696339" height="12.518314728696339" />
      <rect x="-17.945872726575466" y="-17.945872726575466" width="35.89174545315093" height="35.89174545315093" />
    </g>
    <g transform="translate(-60.0 120.0)">
      <rect x="-18.13058767704408" y="-18.13058767704408" width="36.26117535408816" height="36.26117535408816" />
      <rect x="-15.678923777073571" y="-15.678923777073571" width="31.357847554147142" height="31.357847554147142" />
      <rect x="-27.222699615347047" y="-27.222699615347047" width="54.44539923069409" height="54.44539923069409" />
      <rect x="-7.099796328968507" y="-7.099796328968507" width="14.199592657937014" height="14.199592657937014" />
      <rect x="-25.179761300202056" y="-25.179761300202056" width="50.35952260040411" height="50.35952260040411" />
      <rect x="-17.750390438602388" y="-17.750390438602388" width="35.500780877204775" height="35.500780877204775" />
      <rect x="-19.14196597372567" y="-19.14196597372567" width="38.28393194745134" height="38.28393194745134" />
      <rect x="-16.524776356359176" y="-16.524776356359176" width="33.04955271271835" height="33.04955271271835" />
      <rect x="-6.809316793642125" y="-6.809316793642125" width="13.61863358728425" height="13.61863358728425" />
      <rect x="-17.828666714278896" y="-17.828666714278896" width="35.65733342855779" height="35.65733342855779" />
    </g>
    <g transform="translate(0.0 120.0)">
      <rect x="-16.837939859880102" y="-16.837939859880102" width="33.675879719760204" height="33.675879719760204" />
      <rect x="-9.06400173108015" y="-9.06400173108015" width="18.1280034621603" height="18.1280034621603" />
      <rect x="-10.965118006164401" y="-10.965118006164401" width="21.930236012328802" height="21.930236012328802" />
      <rect x="-7.96738797810654" y="-7.96738797810654" width="15.93477595621308" height="15.93477595621308" />
      <rect x="-19.23937496804094" y="-19.23937496804094" width="38.47874993608188" height="38.47874993608188" />
      <rect x="-3.5114013259912893" y="-3.5114013259912893" width="7.022802651982579" height="7.022802651982579" />
      <rect x="-28.581165014855433" y="-28.581165014855433" width="57.162330029710866" height="57.162330029710866" />
      <rect x="-8.523886073670807" y="-8.523886073670807" width="17.047772147341615" height="17.047772147341615" />
      <rect x="-19.488507075250613" y="-19.488507075250613" width="38.977014150501226" height="38.977014150501226" />
      <rect x="-6.4044222194905345" y="-6.4044222194905345" width="12.808844438981069" height="12.808844438981069" />
    </g>
    <g transform="translate(60.0 120.0)">
      <rect x="-16.4948152995586" y="-16.4948152995586" width="32.9896305991172" height="32.9896305991172" />
      <rect x="-10.115276998588431" y="-10.115276998588431" width="20.230553997176862" height="20.230553997176862" />
      <rect x="-22.28746538375808" y="-22.28746538375808" width="44.57493076751616" height="44.57493076751616" />
      <rect x="-19.957417830338187" y="-19.957417830338187" width="39.914835660676374" height="39.914835660676374" />
      <rect x="-13.121854909778486" y="-13.121854909778486" width="26.243709819556972" height="26.243709819556972" />
      <rect x="-29.418126948928506" y="-29.418126948928506" width="58.83625389785701" height="58.83625389785701" />
      <rect x="-4.95718057621252" y="-4.95718057621252" width="9.91436115242504" height="9.91436115242504" />
      <rect x="-23.037608395315505" y="-23.037608395315505" width="46.07521679063101" height="46.07521679063101" />
      <rect x="-27.86430259784825" y="-27.86430259784825" width="55.7286051956965" height="55.7286051956965" />
      <rect x="-12.423833909222692" y="-12.423833909222692" width="24.847667818445384" height="24.847667818445384" />
    </g>
    <g transform="translate(120.0 120.0)">
      <rect x="-1.4552201088833827" y="-1.4552201088833827" width="2.9104402177667654" height="2.9104402177667654" />
      <rect x="-22.717142121317217" y="-22.717142121317217" width="45.43428424263443" height="45.43428424263443" />
      <rect x="-4.970154711703904" y="-4.970154711703904" width="9.940309423407808" height="9.940309423407808" />
      <rect x="-22.95845843311315" y="-22.95845843311315" width="45.9169168662263" height="45.9169168662263" />
      <rect x="-20.2465169907148" y="-20.2465169907148" width="40.4930339814296" height="40.4930339814296" />
      <rect x="-20.26578873394362" y="-20.26578873394362" width="40.53157746788724" height="40.53157746788724" />
      <rect x="-20.587716562941925" y="-20.587716562941925" width="41.17543312588385" height="41.17543312588385" />
      <rect x="-13.030388769538732" y="-13.030388769538732" width="26.060777539077463" height="26.060777539077463" />
      <rect x="-15.861592801498578" y="-15.861592801498578" width="31.723185602997155" height="31.723185602997155" />
      <rect x="-13.703363069578554" y="-13.703363069578554" width="27.406726139157108" height="27.406726139157108" />
    </g>
  </g>
</g>
</svg>
