<svg width="300" height="300" viewBox="-150 -150 300 300" fill="none" stroke="black" xmlns="http://www.w3.org/2000/svg" xmlns:xlink="http://www.w3.org/1999/xlink">
<g transform="scale(1 -1)">
  <g>
    <circle cx="-133.33333333333334" cy="-133.33333333333334" r="16.666666666666668" />
    <circle cx="-100.0" cy="-133.33333333333334" r="16.666666666666668" />
    <circle cx="-66.66666666666666" cy="-133.33333333333334" r="16.666666666666668" />
    <circle cx="-33.33333333333332" cy="-133.33333333333334" r="16.666666666666668" />
    <circle cx="1.4210854715202004e-14" cy="-133.33333333333334" r="16.666666666666668" />
    <circle cx="33.33333333333335" cy="-133.33333333333334" r="16.666666666666668" />
    <circle cx="66.66666666666669" cy="-133.33333333333334" r="16.666666666666668" />
    <circle cx="100.00000000000003" cy="-133.33333333333334" r="16.666666666666668" />
    <circle cx="133.33333333333337" cy="-133.33333333333334" r="16.666666666666668" />
    <circle cx="-133.33333333333334" cy="-100.0" r="16.666666666666668" />
    <circle cx="-100.0" cy="-100.0" r="16.666666666666668" />
    <circle cx="-66.66666666666666" cy="-100.0" r="16.666666666666668" />
    <circle cx="-33.33333333333332" cy="-100.0" r="16.666666666666668" />
    <circle cx="1.4210854715202004e-14" cy="-100.0" r="16.666666666666668" />
    <circle cx="33.33333333333335" cy="-100.0" r="16.666666666666668" />
    <circle cx="66.66666666666669" cy="-100.0" r="16.666666666666668" />
    <circle cx="100.00000000000003" cy="-100.0" r="16.666666666666668" />
    <circle cx="133.33333333333337" cy="-100.0" r="16.666666666666668" />
    <circle cx="-133.33333333333334" cy="-66.66666666666666" r="16.666666666666668" />
    <circle cx="-100.0" cy="-66.66666666666666" r="16.666666666666668" />
    <circle cx="-66.66666666666666" cy="-66.66666666666666" r="16.666666666666668" />
    <circle cx="-33.33333333333332" cy="-66.66666666666666" r="16.666666666666668" />
    <circle cx="1.4210854715202004e-14" cy="-66.66666666666666" r="16.666666666666668" />
    <circle cx="33.33333333333335" cy="-66.66666666666666" r="16.666666666666668" />
    <circle cx="66.66666666666669" cy="-66.66666666666666" r="16.666666666666668" />
    <circle cx="100.00000000000003" cy="-66.66666666666666" r="16.666666666666668" />
    <circle cx="133.33333333333337" cy="-66.66666666666666" r="16.666666666666668" />
    <circle cx="-133.33333333333334" cy="-33.33333333333332" r="16.666666666666668" />
    <circle cx="-100.0" cy="-33.33333333333332" r="16.666666666666668" />
    <circle cx="-66.66666666666666" cy="-33.33333333333332" r="16.666666666666668" />
    <circle cx="-33.33333333333332" cy="-33.33333333333332" r="16.666666666666668" />
    <circle cx="1.4210854715202004e-14" cy="-33.33333333333332" r="16.666666666666668" />
    <circle cx="33.33333333333335" cy="-33.33333333333332" r="16.666666666666668" />
    <circle cx="66.66666666666669" cy="-33.33333333333332" r="16.666666666666668" />
    <circle cx="100.00000000000003" cy="-33.33333333333332" r="16.666666666666668" />
    <circle cx="133.33333333333337" cy="-33.33333333333332" r="16.666666666666668" />
    <circle cx="-133.33333333333334" cy="1.4210854715202004e-14" r="16.666666666666668" />
    <circle cx="-100.0" cy="1.4210854715202004e-14" r="16.666666666666668" />
    <circle cx="-66.66666666666666" cy="1.4210854715202004e-14" r="16.666666666666668" />
    <circle cx="-33.33333333333332" cy="1.4210854715202004e-14" r="16.666666666666668" />
    <circle cx="1.4210854715202004e-14" cy="1.4210854715202004e-14" r="16.666666666666668" />
    <circle cx="33.33333333333335" cy="1.4210854715202004e-14" r="16.666666666666668" />
    <circle cx="66.66666666666669" cy="1.4210854715202004e-14" r="16.666666666666668" />
    <circle cx="100.00000000000003" cy="1.4210854715202004e-14" r="16.666666666666668" />
    <circle cx="133.33333333333337" cy="1.4210854715202004e-14" r="16.666666666666668" />
    <circle cx="-133.33333333333334" cy="33.33333333333335" r="16.666666666666668" />
    <circle cx="-100.0" cy="33.33333333333335" r="16.666666666666668" />
    <circle cx="-66.66666666666666" cy="33.33333333333335" r="16.666666666666668" />
    <circle cx="-33.33333333333332" cy="33.33333333333335" r="16.666666666666668" />
    <circle cx="1.4210854715202004e-14" cy="33.33333333333335" r="16.666666666666668" />
    <circle cx="33.33333333333335" cy="33.33333333333335" r="16.666666666666668" />
    <circle cx="66.66666666666669" cy="33.33333333333335" r="16.666666666666668" />
    <circle cx="100.00000000000003" cy="33.33333333333335" r="16.666666666666668" />
    <circle cx="133.33333333333337" cy="33.33333333333335" r="16.666666666666668" />
    <circle cx="-133.33333333333334" cy="66.66666666666669" r="16.666666666666668" />
    <circle cx="-100.0" cy="66.66666666666669" r="16.666666666666668" />
    <circle cx="-66.66666666666666" cy="66.66666666666669" r="16.666666666666668" />
    <circle cx="-33.33333333333332" cy="66.66666666666669" r="16.666666666666668" />
    <circle cx="1.4210854715202004e-14" cy="66.66666666666669" r="16.666666666666668" />
    <circle cx="33.33333333333335" cy="66.66666666666669" r="16.666666666666668" />
    <circle cx="66.66666666666669" cy="66.66666666666669" r="16.666666666666668" />
    <circle cx="100.00000000000003" cy="66.66666666666669" r="16.666666666666668" />
    <circle cx="133.33333333333337" cy="66.66666666666669" r="16.666666666666668" />
    <circle cx="-133.33333333333334" cy="100.00000000000003" r="16.666666666666668" />
    <circle cx="-100.0" cy="100.00000000000003" r="16.666666666666668" />
    <circle cx="-66.66666666666666" cy="100.00000000000003" r="16.666666666666668" />
    <circle cx="-33.33333333333332" cy="100.00000000000003" r="16.666666666666668" />
    <circle cx="1.4210854715202004e-14" cy="100.00000000000003" r="16.666666666666668" />
    <circle cx="33.33333333333335" cy="100.00000000000003" r="16.666666666666668" />
    <circle cx="66.66666666666669" cy="100.00000000000003" r="16.666666666666668" />
    <circle cx="100.00000000000003" cy="100.00000000000003" r="16.666666666666668" />
    <circle cx="133.33333333333337" cy="100.00000000000003" r="16.666666666666668" />
    <circle cx="-133.33333333333334" cy="133.33333333333337" r="16.666666666666668" />
    <circle cx="-100.0" cy="133.33333333333337" r="16.666666666666668" />
    <circle cx="-66.66666666666666" cy="133.33333333333337" r="16.666666666666668" />
    <circle cx="-33.33333333333332" cy="133.33333333333337" r="16.666666666666668" />
    <circle cx="1.4210854715202004e-14" cy="133.33333333333337" r="16.666666666666668" />
    <circle cx="33.33333333333335" cy="133.33333333333337" r="16.666666666666668" />
    <circle cx="66.66666666666669" cy="133.33333333333337" r="16.666666666666668" />
    <circle cx="100.00000000000003" cy="133.33333333333337" r="16.666666666666668" />
    <circle cx="133.33333333333337" cy="133.33333333333337" r="16.666666666666668" />
  </g>
</g>
</svg>
