<svg width="300" height="300" viewBox="-150 -150 300 300" fill="none" stroke="black" xmlns="http://www.w3.org/2000/svg" xmlns:xlink="http://www.w3.org/1999/xlink">
<g transform="scale(1 -1)">
  <g>
    <circle cx="0" cy="0" r="5.0" />
    <circle cx="0" cy="0" r="10.0" />
    <circle cx="0" cy="0" r="15.0" />
    <circle cx="0" cy="0" r="20.0" />
    <circle cx="0" cy="0" r="25.0" />
    <circle cx="0" cy="0" r="30.0" />
    <circle cx="0" cy="0" r="35.0" />
    <circle cx="0" cy="0" r="40.0" />
    <circle cx="0" cy="0" r="45.0" />
    <circle cx="0" cy="0" r="50.0" />
    <circle cx="0" cy="0" r="55.0" />
    <circle cx="0" cy="0" r="60.0" />
    <circle cx="0" cy="0" r="65.0" />
    <circle cx="0" cy="0" r="70.0" />
    <circle cx="0" cy="0" r="75.0" />
    <circle cx="0" cy="0" r="80.0" />
    <circle cx="0" cy="0" r="85.0" />
    <circle cx="0" cy="0" r="90.0" />
    <circle cx="0" cy="0" r="95.0" />
    <circle cx="0" cy="0" r="100.0" />
  </g>
</g>
</svg>
