<svg width="300" height="300" viewBox="-150 -150 300 300" fill="none" stroke="black" xmlns="http://www.w3.org/2000/svg" xmlns:xlink="http://www.w3.org/1999/xlink">
<g transform="scale(1 -1)">
  <g>
    <g transform="translate(0 75) scale(1 0.5)">
      <g transform="translate(-75 0) scale(0.5 1)">
        <g transform="translate(0 75) scale(1 0.5)">
          <circle cx="0" cy="0" r="100" transform="translate(-75 0) scale(0.5 1)" />
          <circle cx="0" cy="0" r="100" transform="translate(75 0) scale(0.5 1)" />
        </g>
        <g transform="translate(0 -75) scale(1 0.5)">
          <circle cx="0" cy="0" r="100" transform="translate(-75 0) scale(0.5 1)" />
          <circle cx="0" cy="0" r="100" transform="translate(75 0) scale(0.5 1)" />
        </g>
      </g>
      <g transform="translate(75 0) scale(0.5 1)">
        <g transform="translate(0 75) scale(1 0.5)">
          <circle cx="0" cy="0" r="100" transform="translate(-75 0) scale(0.5 1)" />
          <circle cx="0" cy="0" r="100" transform="translate(75 0) scale(0.5 1)" />
        </g>
        <g transform="translate(0 -75) scale(1 0.5)">
          <circle cx="0" cy="0" r="100" transform="translate(-75 0) scale(0.5 1)" />
          <circle cx="0" cy="0" r="100" transform="translate(75 0) scale(0.5 1)" />
        </g>
      </g>
    </g>
    <g transform="translate(0 -75) scale(1 0.5)">
      <g transform="translate(-75 0) scale(0.5 1)">
        <g transform="translate(0 75) scale(1 0.5)">
          <circle cx="0" cy="0" r="100" transform="translate(-75 0) scale(0.5 1)" />
          <circle cx="0" cy="0" r="100" transform="translate(75 0) scale(0.5 1)" />
        </g>
        <g transform="translate(0 -75) scale(1 0.5)">
          <circle cx="0" cy="0" r="100" transform="translate(-75 0) scale(0.5 1)" />
          <circle cx="0" cy="0" r="100" transform="translate(75 0) scale(0.5 1)" />
        </g>
      </g>
      <g transform="translate(75 0) scale(0.5 1)">
        <g transform="translate(0 75) scale(1 0.5)">
          <circle cx="0" cy="0" r="100" transform="translate(-75 0) scale(0.5 1)" />
          <circle cx="0" cy="0" r="100" transform="translate(75 0) scale(0.5 1)" />
        </g>
        <g transform="translate(0 -75) scale(1 0.5)">
          <circle cx="0" cy="0" r="100" transform="translate(-75 0) scale(0.5 1)" />
          <circle cx="0" cy="0" r="100" transform="translate(75 0) scale(0.5 1)" />
        </g>
      </g>
    </g>
  </g>
</g>
</svg>
