<svg width="300" height="300" viewBox="-150 -150 300 300" fill="none" stroke="black" xmlns="http://www.w3.org/2000/svg" xmlns:xlink="http://www.w3.org/1999/xlink">
<g transform="scale(1 -1)">
  <g>
    <g transform="translate(0 75) scale(1 0.5)">
      <g transform="translate(-75 0) scale(0.5 1)">
        <rect x="-140.0" y="-140.0" width="280" height="280" stroke-width="5" />
        <g transform="scale(0.8333333333333334 0.8333333333333334)">
          <circle cx="0" cy="0" r="21.649455746176702" />
          <circle cx="0" cy="0" r="82.45000391626208" />
          <circle cx="0" cy="0" r="57.355213648200426" />
          <circle cx="0" cy="0" r="42.51935420542641" />
          <circle cx="0" cy="0" r="77.5765362412942" />
          <circle cx="0" cy="0" r="36.0300200789444" />
          <circle cx="0" cy="0" r="107.6476001614173" />
          <circle cx="0" cy="0" r="62.38380177582703" />
          <circle cx="0" cy="0" r="55.6297768697958" />
          <circle cx="0" cy="0" r="65.98521481402975" />
        </g>
      </g>
      <g transform="translate(75 0) scale(0.5 1)">
        <rect x="-140.0" y="-140.0" width="280" height="280" stroke-width="5" />
        <g transform="scale(0.8333333333333334 0.8333333333333334)">
          <rect x="-37.13975669169428" y="-37.13975669169428" width="74.27951338338856" height="74.27951338338856" />
          <rect x="-41.76302793738251" y="-41.76302793738251" width="83.52605587476502" height="83.52605587476502" />
          <rect x="-89.92070467502413" y="-89.92070467502413" width="179.84140935004825" height="179.84140935004825" />
          <rect x="-29.08006463278935" y="-29.08006463278935" width="58.1601292655787" height="58.1601292655787" />
          <rect x="-63.44746614458488" y="-63.44746614458488" width="126.89493228916976" height="126.89493228916976" />
          <rect x="-15.108867490909923" y="-15.108867490909923" width="30.217734981819845" height="30.217734981819845" />
          <rect x="-29.759795493330284" y="-29.759795493330284" width="59.51959098666057" height="59.51959098666057" />
          <rect x="-78.95864190641858" y="-78.95864190641858" width="157.91728381283716" height="157.91728381283716" />
          <rect x="-15.258037446678696" y="-15.258037446678696" width="30.51607489335739" height="30.51607489335739" />
          <rect x="-23.802486887315567" y="-23.802486887315567" width="47.604973774631134" height="47.604973774631134" />
          <rect x="-11.10278672469564" y="-11.10278672469564" width="22.20557344939128" height="22.20557344939128" />
          <rect x="-36.757501682415416" y="-36.757501682415416" width="73.51500336483083" height="73.51500336483083" />
          <rect x="-82.42972363010877" y="-82.42972363010877" width="164.85944726021754" height="164.85944726021754" />
          <rect x="-84.19673407076002" y="-84.19673407076002" width="168.39346814152003" height="168.39346814152003" />
          <rect x="-68.74623900351443" y="-68.74623900351443" width="137.49247800702886" height="137.49247800702886" />
        </g>
      </g>
    </g>
    <g transform="translate(0 -75) scale(1 0.5)">
      <g transform="translate(-75 0) scale(0.5 1)">
        <rect x="-140.0" y="-140.0" width="280" height="280" stroke-width="5" />
        <g transform="scale(0.8333333333333334 0.8333333333333334)">
          <defs>
            <ellipse cx="0" cy="0" rx="125.0" ry="60.0" id="s-8-16nX" />
          </defs>
          <g>
            <use xlink:href="#s-8-16nX" />
            <g transform="rotate(30.0)">
              <use xlink:href="#s-8-16nX" />
              <g transform="rotate(30.0)">
                <use xlink:href="#s-8-16nX" />
                <g transform="rotate(30.0)">
                  <use xlink:href="#s-8-16nX" />
                  <g transform="rotate(30.0)">
                    <use xlink:href="#s-8-16nX" />
                    <use xlink:href="#s-8-16nX" transform="rotate(30.0)" />
                  </g>
                </g>
              </g>
            </g>
          </g>
        </g>
      </g>
      <g transform="translate(75 0) scale(0.5 1)">
        <rect x="-140.0" y="-140.0" width="280" height="280" stroke-width="5" />
        <g transform="scale(0.8333333333333334 0.8333333333333334)">
          <g transform="translate(0 75) scale(1 0.5)">
            <g transform="translate(-75 0) scale(0.5 1)">
              <rect x="-26.108942399006754" y="-26.108942399006754" width="52.21788479801351" height="52.21788479801351" />
              <rect x="-123.76293632003505" y="-123.76293632003505" width="247.5258726400701" height="247.5258726400701" />
              <rect x="-59.21535731990907" y="-59.21535731990907" width="118.43071463981813" height="118.43071463981813" />
              <rect x="-5.495101239845549" y="-5.495101239845549" width="10.990202479691098" height="10.990202479691098" />
              <rect x="-10.36882311061356" y="-10.36882311061356" width="20.73764622122712" height="20.73764622122712" />
              <rect x="-58.902072310929185" y="-58.902072310929185" width="117.80414462185837" height="117.80414462185837" />
              <rect x="-63.64869008822896" y="-63.64869008822896" width="127.29738017645792" height="127.29738017645792" />
              <rect x="-71.48336956623179" y="-71.48336956623179" width="142.96673913246357" height="142.96673913246357" />
              <rect x="-63.51436152130903" y="-63.51436152130903" width="127.02872304261805" height="127.02872304261805" />
              <rect x="-7.541118162186458" y="-7.541118162186458" width="15.082236324372916" height="15.082236324372916" />
              <rect x="-82.1528118351499" y="-82.1528118351499" width="164.3056236702998" height="164.3056236702998" />
              <rect x="-121.5736925960884" y="-121.5736925960884" width="243.1473851921768" height="243.1473851921768" />
              <rect x="-21.770331506991674" y="-21.770331506991674" width="43.54066301398335" height="43.54066301398335" />
              <rect x="-100.08183299364728" y="-100.08183299364728" width="200.16366598729456" height="200.16366598729456" />
              <rect x="-40.24372534626594" y="-40.24372534626594" width="80.48745069253188" height="80.48745069253188" />
            </g>
            <g transform="translate(75 0) scale(0.5 1)">
              <rect x="-39.724919311110135" y="-39.724919311110135" width="79.44983862222027" height="79.44983862222027" />
              <rect x="-116.56513364815943" y="-116.56513364815943" width="233.13026729631886" height="233.13026729631886" />
              <rect x="-71.89533767436541" y="-71.89533767436541" width="143.79067534873082" height="143.79067534873082" />
              <rect x="-66.24903186064167" y="-66.24903186064167" width="132.49806372128333" height="132.49806372128333" />
              <rect x="-3.6254117761468088" y="-3.6254117761468088" width="7.2508235522936175" height="7.2508235522936175" />
              <rect x="-17.46641828741449" y="-17.46641828741449" width="34.93283657482898" height="34.93283657482898" />
              <rect x="-74.75310423604837" y="-74.75310423604837" width="149.50620847209674" height="149.50620847209674" />
              <rect x="-54.24600036999973" y="-54.24600036999973" width="108.49200073999945" height="108.49200073999945" />
              <rect x="-28.851320558394608" y="-28.851320558394608" width="57.702641116789216" height="57.702641116789216" />
              <rect x="-17.592905387526613" y="-17.592905387526613" width="35.18581077505323" height="35.18581077505323" />
              <rect x="-47.62905608339641" y="-47.62905608339641" width="95.25811216679281" height="95.25811216679281" />
              <rect x="-113.08120319871689" y="-113.08120319871689" width="226.16240639743378" height="226.16240639743378" />
              <rect x="-81.82333452773588" y="-81.82333452773588" width="163.64666905547176" height="163.64666905547176" />
              <rect x="-23.134067107297152" y="-23.134067107297152" width="46.268134214594305" height="46.268134214594305" />
              <rect x="-81.26391266282855" y="-81.26391266282855" width="162.5278253256571" height="162.5278253256571" />
            </g>
          </g>
          <g transform="translate(0 -75) scale(1 0.5)">
            <g transform="translate(-75 0) scale(0.5 1)">
              <rect x="-48.016296585327495" y="-48.016296585327495" width="96.03259317065499" height="96.03259317065499" />
              <rect x="-75.03525444606713" y="-75.03525444606713" width="150.07050889213426" height="150.07050889213426" />
              <rect x="-27.350454698420858" y="-27.350454698420858" width="54.700909396841716" height="54.700909396841716" />
              <rect x="-33.13977447134622" y="-33.13977447134622" width="66.27954894269244" height="66.27954894269244" />
              <rect x="-26.383419944930083" y="-26.383419944930083" width="52.766839889860165" height="52.766839889860165" />
              <rect x="-111.90926735265685" y="-111.90926735265685" width="223.8185347053137" height="223.8185347053137" />
              <rect x="-13.1041333205138" y="-13.1041333205138" width="26.2082666410276" height="26.2082666410276" />
              <rect x="-50.28893932384697" y="-50.28893932384697" width="100.57787864769394" height="100.57787864769394" />
              <rect x="-32.71627039228857" y="-32.71627039228857" width="65.43254078457714" height="65.43254078457714" />
              <rect x="-114.7303831374221" y="-114.7303831374221" width="229.4607662748442" height="229.4607662748442" />
              <rect x="-123.69126611215914" y="-123.69126611215914" width="247.38253222431828" height="247.38253222431828" />
              <rect x="-66.13317981438317" y="-66.13317981438317" width="132.26635962876634" height="132.26635962876634" />
              <rect x="-27.5604036817209" y="-27.5604036817209" width="55.1208073634418" height="55.1208073634418" />
              <rect x="-39.318989337531114" y="-39.318989337531114" width="78.63797867506223" height="78.63797867506223" />
              <rect x="-54.38805496909649" y="-54.38805496909649" width="108.77610993819297" height="108.77610993819297" />
            </g>
            <g transform="translate(75 0) scale(0.5 1)">
              <rect x="-82.75068297456409" y="-82.75068297456409" width="165.50136594912817" height="165.50136594912817" />
              <rect x="-93.47375485903329" y="-93.47375485903329" width="186.94750971806658" height="186.94750971806658" />
              <rect x="-34.87831131359952" y="-34.87831131359952" width="69.75662262719904" height="69.75662262719904" />
              <rect x="-37.57330619550711" y="-37.57330619550711" width="75.14661239101422" height="75.14661239101422" />
              <rect x="-44.49184995857103" y="-44.49184995857103" width="88.98369991714206" height="88.98369991714206" />
              <rect x="-100.14590887781885" y="-100.14590887781885" width="200.2918177556377" height="200.2918177556377" />
              <rect x="-36.734827492951" y="-36.734827492951" width="73.469654985902" height="73.469654985902" />
              <rect x="-120.05516162971597" y="-120.05516162971597" width="240.11032325943194" height="240.11032325943194" />
              <rect x="-53.715076620553205" y="-53.715076620553205" width="107.43015324110641" height="107.43015324110641" />
              <rect x="-24.291453009732024" y="-24.291453009732024" width="48.58290601946405" height="48.58290601946405" />
              <rect x="-72.11594319162161" y="-72.11594319162161" width="144.23188638324322" height="144.23188638324322" />
              <rect x="-115.57348532596319" y="-115.57348532596319" width="231.14697065192638" height="231.14697065192638" />
              <rect x="-51.45402105688189" y="-51.45402105688189" width="102.90804211376378" height="102.90804211376378" />
              <rect x="-55.676453785582666" y="-55.676453785582666" width="111.35290757116533" height="111.35290757116533" />
              <rect x="-18.93675407859269" y="-18.93675407859269" width="37.87350815718538" height="37.87350815718538" />
            </g>
          </g>
        </g>
      </g>
    </g>
  </g>
</g>
</svg>
