<svg width="300" height="300" viewBox="-150 -150 300 300" fill="none" stroke="black" xmlns="http://www.w3.org/2000/svg" xmlns:xlink="http://www.w3.org/1999/xlink">
<g transform="scale(1 -1)">
  <g>
    <circle cx="0" cy="0" r="139.4980181025236" />
    <circle cx="0" cy="0" r="86.1753198708567" />
    <circle cx="0" cy="0" r="14.043938605395445" />
    <circle cx="0" cy="0" r="18.598366920431992" />
    <circle cx="0" cy="0" r="145.09096891139302" />
    <circle cx="0" cy="0" r="135.88719091479592" />
    <circle cx="0" cy="0" r="46.180605262639254" />
    <circle cx="0" cy="0" r="71.74052264956428" />
    <circle cx="0" cy="0" r="129.54218565936068" />
    <circle cx="0" cy="0" r="124.25007138409339" />
    <circle cx="0" cy="0" r="41.66447419331493" />
    <circle cx="0" cy="0" r="149.40146468427187" />
    <circle cx="0" cy="0" r="143.02239153724207" />
    <circle cx="0" cy="0" r="22.988790854858454" />
    <circle cx="0" cy="0" r="135.56884520085458" />
    <circle cx="0" cy="0" r="87.99706442721286" />
    <circle cx="0" cy="0" r="144.1104127750088" />
    <circle cx="0" cy="0" r="72.86147729212558" />
    <circle cx="0" cy="0" r="18.000271687216905" />
    <circle cx="0" cy="0" r="130.65075348655685" />
    <circle cx="0" cy="0" r="32.40008016144481" />
    <circle cx="0" cy="0" r="113.35625499079663" />
    <circle cx="0" cy="0" r="114.41032428901165" />
    <circle cx="0" cy="0" r="142.65145668876283" />
    <circle cx="0" cy="0" r="146.3730990418052" />
    <circle cx="0" cy="0" r="55.677499614623216" />
    <circle cx="0" cy="0" r="20.375357803439915" />
    <circle cx="0" cy="0" r="37.94827274064038" />
    <circle cx="0" cy="0" r="67.86597145312626" />
    <circle cx="0" cy="0" r="13.226924797124862" />
  </g>
</g>
</svg>
