<svg width="300" height="300" viewBox="-150 -150 300 300" fill="none" stroke="black" xmlns="http://www.w3.org/2000/svg" xmlns:xlink="http://www.w3.org/1999/xlink">
<g transform="scale(1 -1)">
  <g>
    <g transform="translate(0 75) scale(1 0.5)">
      <g transform="translate(-75 0) scale(0.5 1)">
        <rect x="-140.0" y="-140.0" width="280" height="280" stroke-width="5" />
        <g transform="scale(0.8333333333333334 0.8333333333333334)">
          <circle cx="0" cy="0" r="88.25414201394197" />
          <circle cx="0" cy="0" r="93.43360870387889" />
          <circle cx="0" cy="0" r="40.395806624077295" />
          <circle cx="0" cy="0" r="66.87849079622141" />
          <circle cx="0" cy="0" r="115.26112429439038" />
          <circle cx="0" cy="0" r="107.61870012877188" />
          <circle cx="0" cy="0" r="30.943340059542606" />
          <circle cx="0" cy="0" r="110.04742888231726" />
          <circle cx="0" cy="0" r="4.663139322226284" />
          <circle cx="0" cy="0" r="64.18954443921253" />
        </g>
      </g>
      <g transform="translate(75 0) scale(0.5 1)">
        <rect x="-140.0" y="-140.0" width="280" height="280" stroke-width="5" />
        <g transform="scale(0.8333333333333334 0.8333333333333334)">
          <rect x="-42.1832489994676" y="-42.1832489994676" width="84.3664979989352" height="84.3664979989352" />
          <rect x="-113.04540086718416" y="-113.04540086718416" width="226.0908017343683" height="226.0908017343683" />
          <rect x="-90.07546319169036" y="-90.07546319169036" width="180.15092638338072" height="180.15092638338072" />
          <rect x="-83.45130428882179" y="-83.45130428882179" width="166.90260857764358" height="166.90260857764358" />
          <rect x="-37.51004615907634" y="-37.51004615907634" width="75.02009231815268" height="75.02009231815268" />
          <rect x="-101.25651024289186" y="-101.25651024289186" width="202.51302048578373" height="202.51302048578373" />
          <rect x="-24.210992231364678" y="-24.210992231364678" width="48.421984462729355" height="48.421984462729355" />
          <rect x="-17.232629015613025" y="-17.232629015613025" width="34.46525803122605" height="34.46525803122605" />
          <rect x="-46.93754304841069" y="-46.93754304841069" width="93.87508609682138" height="93.87508609682138" />
          <rect x="-44.78191881902423" y="-44.78191881902423" width="89.56383763804845" height="89.56383763804845" />
          <rect x="-29.075913917636697" y="-29.075913917636697" width="58.151827835273394" height="58.151827835273394" />
          <rect x="-3.6348312598144803" y="-3.6348312598144803" width="7.269662519628961" height="7.269662519628961" />
          <rect x="-57.056554308767815" y="-57.056554308767815" width="114.11310861753563" height="114.11310861753563" />
          <rect x="-113.99523552107476" y="-113.99523552107476" width="227.99047104214952" height="227.99047104214952" />
          <rect x="-115.59230297313908" y="-115.59230297313908" width="231.18460594627817" height="231.18460594627817" />
        </g>
      </g>
    </g>
    <g transform="translate(0 -75) scale(1 0.5)">
      <g transform="translate(-75 0) scale(0.5 1)">
        <rect x="-140.0" y="-140.0" width="280" height="280" stroke-width="5" />
        <g transform="scale(0.8333333333333334 0.8333333333333334)">
          <defs>
            <ellipse cx="0" cy="0" rx="125.0" ry="60.0" id="s-8-y77I" />
          </defs>
          <g>
            <use xlink:href="#s-8-y77I" />
            <g transform="rotate(60.0)">
              <use xlink:href="#s-8-y77I" />
              <use xlink:href="#s-8-y77I" transform="rotate(60.0)" />
            </g>
          </g>
        </g>
      </g>
      <g transform="translate(75 0) scale(0.5 1)">
        <rect x="-140.0" y="-140.0" width="280" height="280" stroke-width="5" />
        <g transform="scale(0.8333333333333334 0.8333333333333334)">
          <g transform="translate(0 75) scale(1 0.5)">
            <g transform="translate(-75 0) scale(0.5 1)">
              <rect x="-97.48958107302931" y="-97.48958107302931" width="194.97916214605863" height="194.97916214605863" />
              <rect x="-49.28559968963705" y="-49.28559968963705" width="98.5711993792741" height="98.5711993792741" />
              <rect x="-108.34311846349246" y="-108.34311846349246" width="216.68623692698492" height="216.68623692698492" />
              <rect x="-31.89161519305643" y="-31.89161519305643" width="63.78323038611286" height="63.78323038611286" />
              <rect x="-97.91795645609274" y="-97.91795645609274" width="195.83591291218548" height="195.83591291218548" />
              <rect x="-33.65100057760739" y="-33.65100057760739" width="67.30200115521478" height="67.30200115521478" />
              <rect x="-14.791778252147239" y="-14.791778252147239" width="29.583556504294478" height="29.583556504294478" />
              <rect x="-39.50655496310607" y="-39.50655496310607" width="79.01310992621214" height="79.01310992621214" />
              <rect x="-86.11769831567692" y="-86.11769831567692" width="172.23539663135384" height="172.23539663135384" />
              <rect x="-23.020041306448746" y="-23.020041306448746" width="46.04008261289749" height="46.04008261289749" />
              <rect x="-78.6968485249678" y="-78.6968485249678" width="157.3936970499356" height="157.3936970499356" />
              <rect x="-19.29108592684589" y="-19.29108592684589" width="38.58217185369178" height="38.58217185369178" />
              <rect x="-72.27927598311372" y="-72.27927598311372" width="144.55855196622744" height="144.55855196622744" />
              <rect x="-23.719881217049778" y="-23.719881217049778" width="47.439762434099556" height="47.439762434099556" />
              <rect x="-113.01396853590917" y="-113.01396853590917" width="226.02793707181834" height="226.02793707181834" />
            </g>
            <g transform="translate(75 0) scale(0.5 1)">
              <rect x="-70.55440486026623" y="-70.55440486026623" width="141.10880972053246" height="141.10880972053246" />
              <rect x="-44.16181731120072" y="-44.16181731120072" width="88.32363462240144" height="88.32363462240144" />
              <rect x="-122.03310903027042" y="-122.03310903027042" width="244.06621806054085" height="244.06621806054085" />
              <rect x="-5.532043508278184" y="-5.532043508278184" width="11.064087016556368" height="11.064087016556368" />
              <rect x="-37.84753528761014" y="-37.84753528761014" width="75.69507057522029" height="75.69507057522029" />
              <rect x="-106.0778833761892" y="-106.0778833761892" width="212.1557667523784" height="212.1557667523784" />
              <rect x="-25.533768258953344" y="-25.533768258953344" width="51.06753651790669" height="51.06753651790669" />
              <rect x="-0.979827392234775" y="-0.979827392234775" width="1.95965478446955" height="1.95965478446955" />
              <rect x="-14.926976412126258" y="-14.926976412126258" width="29.853952824252517" height="29.853952824252517" />
              <rect x="-19.30372022822381" y="-19.30372022822381" width="38.60744045644762" height="38.60744045644762" />
              <rect x="-9.667628067621962" y="-9.667628067621962" width="19.335256135243924" height="19.335256135243924" />
              <rect x="-14.097010551033588" y="-14.097010551033588" width="28.194021102067175" height="28.194021102067175" />
              <rect x="-74.92832811196442" y="-74.92832811196442" width="149.85665622392884" height="149.85665622392884" />
              <rect x="-34.27802015966694" y="-34.27802015966694" width="68.55604031933387" height="68.55604031933387" />
              <rect x="-99.2930372156811" y="-99.2930372156811" width="198.5860744313622" height="198.5860744313622" />
            </g>
          </g>
          <g transform="translate(0 -75) scale(1 0.5)">
            <g transform="translate(-75 0) scale(0.5 1)">
              <rect x="-17.93214732576645" y="-17.93214732576645" width="35.8642946515329" height="35.8642946515329" />
              <rect x="-24.28147313493871" y="-24.28147313493871" width="48.56294626987742" height="48.56294626987742" />
              <rect x="-37.90589501792796" y="-37.90589501792796" width="75.81179003585592" height="75.81179003585592" />
              <rect x="-57.50293031558983" y="-57.50293031558983" width="115.00586063117966" height="115.00586063117966" />
              <rect x="-48.914254790872874" y="-48.914254790872874" width="97.82850958174575" height="97.82850958174575" />
              <rect x="-95.73697017818037" y="-95.73697017818037" width="191.47394035636074" height="191.47394035636074" />
              <rect x="-100.54956417559563" y="-100.54956417559563" width="201.09912835119127" height="201.09912835119127" />
              <rect x="-66.01718897566224" y="-66.01718897566224" width="132.03437795132447" height="132.03437795132447" />
              <rect x="-95.25327109092294" y="-95.25327109092294" width="190.50654218184587" height="190.50654218184587" />
              <rect x="-97.56917803758498" y="-97.56917803758498" width="195.13835607516995" height="195.13835607516995" />
              <rect x="-104.91319494873358" y="-104.91319494873358" width="209.82638989746715" height="209.82638989746715" />
              <rect x="-34.54707944609655" y="-34.54707944609655" width="69.0941588921931" height="69.0941588921931" />
              <rect x="-124.69903185527258" y="-124.69903185527258" width="249.39806371054516" height="249.39806371054516" />
              <rect x="-109.48599999227527" y="-109.48599999227527" width="218.97199998455054" height="218.97199998455054" />
              <rect x="-91.91114082950777" y="-91.91114082950777" width="183.82228165901554" height="183.82228165901554" />
            </g>
            <g transform="translate(75 0) scale(0.5 1)">
              <rect x="-42.412533106547244" y="-42.412533106547244" width="84.82506621309449" height="84.82506621309449" />
              <rect x="-121.7031360134778" y="-121.7031360134778" width="243.4062720269556" height="243.4062720269556" />
              <rect x="-79.66073608030088" y="-79.66073608030088" width="159.32147216060176" height="159.32147216060176" />
              <rect x="-115.66926373676345" y="-115.66926373676345" width="231.3385274735269" height="231.3385274735269" />
              <rect x="-45.25124578841491" y="-45.25124578841491" width="90.50249157682983" height="90.50249157682983" />
              <rect x="-37.6609201377499" y="-37.6609201377499" width="75.3218402754998" height="75.3218402754998" />
              <rect x="-23.303776549754172" y="-23.303776549754172" width="46.607553099508344" height="46.607553099508344" />
              <rect x="-40.24820870398982" y="-40.24820870398982" width="80.49641740797964" height="80.49641740797964" />
              <rect x="-72.26481456169523" y="-72.26481456169523" width="144.52962912339046" height="144.52962912339046" />
              <rect x="-17.091058821184056" y="-17.091058821184056" width="34.18211764236811" height="34.18211764236811" />
              <rect x="-114.03049389549102" y="-114.03049389549102" width="228.06098779098204" height="228.06098779098204" />
              <rect x="-43.17056864090736" y="-43.17056864090736" width="86.34113728181472" height="86.34113728181472" />
              <rect x="-98.40987105610624" y="-98.40987105610624" width="196.81974211221248" height="196.81974211221248" />
              <rect x="-95.6250423990666" y="-95.6250423990666" width="191.2500847981332" height="191.2500847981332" />
              <rect x="-79.78211317385204" y="-79.78211317385204" width="159.56422634770408" height="159.56422634770408" />
            </g>
          </g>
        </g>
      </g>
    </g>
  </g>
</g>
</svg>
