<svg width="300" height="300" viewBox="-150 -150 300 300" fill="none" stroke="black" xmlns="http://www.w3.org/2000/svg" xmlns:xlink="http://www.w3.org/1999/xlink">
<g transform="scale(1 -1)">
  <g>
    <g transform="translate(-120.0 -120.0)">
      <circle cx="0" cy="0" r="6.0" />
      <circle cx="0" cy="0" r="12.0" />
      <circle cx="0" cy="0" r="18.0" />
      <circle cx="0" cy="0" r="24.0" />
      <circle cx="0" cy="0" r="30.0" />
    </g>
    <g transform="translate(-60.0 -120.0)">
      <circle cx="0" cy="0" r="5.0" />
      <circle cx="0" cy="0" r="10.0" />
      <circle cx="0" cy="0" r="15.0" />
      <circle cx="0" cy="0" r="20.0" />
      <circle cx="0" cy="0" r="25.0" />
      <circle cx="0" cy="0" r="30.0" />
    </g>
    <g transform="translate(0.0 -120.0)">
      <circle cx="0" cy="0" r="4.285714285714286" />
      <circle cx="0" cy="0" r="8.571428571428571" />
      <circle cx="0" cy="0" r="12.857142857142858" />
      <circle cx="0" cy="0" r="17.142857142857142" />
      <circle cx="0" cy="0" r="21.428571428571427" />
      <circle cx="0" cy="0" r="25.714285714285715" />
      <circle cx="0" cy="0" r="30.0" />
    </g>
    <g transform="translate(60.0 -120.0)">
      <circle cx="0" cy="0" r="3.75" />
      <circle cx="0" cy="0" r="7.5" />
      <circle cx="0" cy="0" r="11.25" />
      <circle cx="0" cy="0" r="15.0" />
      <circle cx="0" cy="0" r="18.75" />
      <circle cx="0" cy="0" r="22.5" />
      <circle cx="0" cy="0" r="26.25" />
      <circle cx="0" cy="0" r="30.0" />
    </g>
    <g transform="translate(120.0 -120.0)">
      <circle cx="0" cy="0" r="3.3333333333333335" />
      <circle cx="0" cy="0" r="6.666666666666667" />
      <circle cx="0" cy="0" r="10.0" />
      <circle cx="0" cy="0" r="13.333333333333334" />
      <circle cx="0" cy="0" r="16.666666666666668" />
      <circle cx="0" cy="0" r="20.0" />
      <circle cx="0" cy="0" r="23.333333333333336" />
      <circle cx="0" cy="0" r="26.666666666666668" />
      <circle cx="0" cy="0" r="30.0" />
    </g>
    <g transform="translate(-120.0 -60.0)">
      <circle cx="0" cy="0" r="7.5" />
      <circle cx="0" cy="0" r="15.0" />
      <circle cx="0" cy="0" r="22.5" />
      <circle cx="0" cy="0" r="30.0" />
    </g>
    <g transform="translate(-60.0 -60.0)">
      <circle cx="0" cy="0" r="6.0" />
      <circle cx="0" cy="0" r="12.0" />
      <circle cx="0" cy="0" r="18.0" />
      <circle cx="0" cy="0" r="24.0" />
      <circle cx="0" cy="0" r="30.0" />
    </g>
    <g transform="translate(0.0 -60.0)">
      <circle cx="0" cy="0" r="5.0" />
      <circle cx="0" cy="0" r="10.0" />
      <circle cx="0" cy="0" r="15.0" />
      <circle cx="0" cy="0" r="20.0" />
      <circle cx="0" cy="0" r="25.0" />
      <circle cx="0" cy="0" r="30.0" />
    </g>
    <g transform="translate(60.0 -60.0)">
      <circle cx="0" cy="0" r="4.285714285714286" />
      <circle cx="0" cy="0" r="8.571428571428571" />
      <circle cx="0" cy="0" r="12.857142857142858" />
      <circle cx="0" cy="0" r="17.142857142857142" />
      <circle cx="0" cy="0" r="21.428571428571427" />
      <circle cx="0" cy="0" r="25.714285714285715" />
      <circle cx="0" cy="0" r="30.0" />
    </g>
    <g transform="translate(120.0 -60.0)">
      <circle cx="0" cy="0" r="3.75" />
      <circle cx="0" cy="0" r="7.5" />
      <circle cx="0" cy="0" r="11.25" />
      <circle cx="0" cy="0" r="15.0" />
      <circle cx="0" cy="0" r="18.75" />
      <circle cx="0" cy="0" r="22.5" />
      <circle cx="0" cy="0" r="26.25" />
      <circle cx="0" cy="0" r="30.0" />
    </g>
    <g transform="translate(-120.0 0.0)">
      <circle cx="0" cy="0" r="10.0" />
      <circle cx="0" cy="0" r="20.0" />
      <circle cx="0" cy="0" r="30.0" />
    </g>
    <g transform="translate(-60.0 0.0)">
      <circle cx="0" cy="0" r="7.5" />
      <circle cx="0" cy="0" r="15.0" />
      <circle cx="0" cy="0" r="22.5" />
      <circle cx="0" cy="0" r="30.0" />
    </g>
    <g transform="translate(0.0 0.0)">
      <circle cx="0" cy="0" r="6.0" />
      <circle cx="0" cy="0" r="12.0" />
      <circle cx="0" cy="0" r="18.0" />
      <circle cx="0" cy="0" r="24.0" />
      <circle cx="0" cy="0" r="30.0" />
    </g>
    <g transform="translate(60.0 0.0)">
      <circle cx="0" cy="0" r="5.0" />
      <circle cx="0" cy="0" r="10.0" />
      <circle cx="0" cy="0" r="15.0" />
      <circle cx="0" cy="0" r="20.0" />
      <circle cx="0" cy="0" r="25.0" />
      <circle cx="0" cy="0" r="30.0" />
    </g>
    <g transform="translate(120.0 0.0)">
      <circle cx="0" cy="0" r="4.285714285714286" />
      <circle cx="0" cy="0" r="8.571428571428571" />
      <circle cx="0" cy="0" r="12.857142857142858" />
      <circle cx="0" cy="0" r="17.142857142857142" />
      <circle cx="0" cy="0" r="21.428571428571427" />
      <circle cx="0" cy="0" r="25.714285714285715" />
      <circle cx="0" cy="0" r="30.0" />
    </g>
    <g transform="translate(-120.0 60.0)">
      <circle cx="0" cy="0" r="15.0" />
      <circle cx="0" cy="0" r="30.0" />
    </g>
    <g transform="translate(-60.0 60.0)">
      <circle cx="0" cy="0" r="10.0" />
      <circle cx="0" cy="0" r="20.0" />
      <circle cx="0" cy="0" r="30.0" />
    </g>
    <g transform="translate(0.0 60.0)">
      <circle cx="0" cy="0" r="7.5" />
      <circle cx="0" cy="0" r="15.0" />
      <circle cx="0" cy="0" r="22.5" />
      <circle cx="0" cy="0" r="30.0" />
    </g>
    <g transform="translate(60.0 60.0)">
      <circle cx="0" cy="0" r="6.0" />
      <circle cx="0" cy="0" r="12.0" />
      <circle cx="0" cy="0" r="18.0" />
      <circle cx="0" cy="0" r="24.0" />
      <circle cx="0" cy="0" r="30.0" />
    </g>
    <g transform="translate(120.0 60.0)">
      <circle cx="0" cy="0" r="5.0" />
      <circle cx="0" cy="0" r="10.0" />
      <circle cx="0" cy="0" r="15.0" />
      <circle cx="0" cy="0" r="20.0" />
      <circle cx="0" cy="0" r="25.0" />
      <circle cx="0" cy="0" r="30.0" />
    </g>
    <g transform="translate(-120.0 120.0)">
      <circle cx="0" cy="0" r="30.0" />
    </g>
    <g transform="translate(-60.0 120.0)">
      <circle cx="0" cy="0" r="15.0" />
      <circle cx="0" cy="0" r="30.0" />
    </g>
    <g transform="translate(0.0 120.0)">
      <circle cx="0" cy="0" r="10.0" />
      <circle cx="0" cy="0" r="20.0" />
      <circle cx="0" cy="0" r="30.0" />
    </g>
    <g transform="translate(60.0 120.0)">
      <circle cx="0" cy="0" r="7.5" />
      <circle cx="0" cy="0" r="15.0" />
      <circle cx="0" cy="0" r="22.5" />
      <circle cx="0" cy="0" r="30.0" />
    </g>
    <g transform="translate(120.0 120.0)">
      <circle cx="0" cy="0" r="6.0" />
      <circle cx="0" cy="0" r="12.0" />
      <circle cx="0" cy="0" r="18.0" />
      <circle cx="0" cy="0" r="24.0" />
      <circle cx="0" cy="0" r="30.0" />
    </g>
  </g>
</g>
</svg>

