<svg width="300" height="300" viewBox="-150 -150 300 300" fill="none" stroke="black" xmlns="http://www.w3.org/2000/svg" xmlns:xlink="http://www.w3.org/1999/xlink">
<g transform="scale(1 -1)">
  <g>
    <circle cx="0" cy="0" r="25.0" transform="translate(-125.0 -125.0)" />
    <circle cx="0" cy="0" r="25.0" transform="translate(-75.0 -125.0)" />
    <circle cx="0" cy="0" r="25.0" transform="translate(-25.0 -125.0)" />
    <circle cx="0" cy="0" r="25.0" transform="translate(25.0 -125.0)" />
    <circle cx="0" cy="0" r="25.0" transform="translate(75.0 -125.0)" />
    <circle cx="0" cy="0" r="25.0" transform="translate(125.0 -125.0)" />
    <circle cx="0" cy="0" r="25.0" transform="translate(-125.0 -75.0)" />
    <circle cx="0" cy="0" r="25.0" transform="translate(-75.0 -75.0)" />
    <circle cx="0" cy="0" r="25.0" transform="translate(-25.0 -75.0)" />
    <circle cx="0" cy="0" r="25.0" transform="translate(25.0 -75.0)" />
    <circle cx="0" cy="0" r="25.0" transform="translate(75.0 -75.0)" />
    <circle cx="0" cy="0" r="25.0" transform="translate(-125.0 -25.0)" />
    <circle cx="0" cy="0" r="25.0" transform="translate(-75.0 -25.0)" />
    <circle cx="0" cy="0" r="25.0" transform="translate(-25.0 -25.0)" />
    <circle cx="0" cy="0" r="25.0" transform="translate(25.0 -25.0)" />
    <circle cx="0" cy="0" r="25.0" transform="translate(-125.0 25.0)" />
    <circle cx="0" cy="0" r="25.0" transform="translate(-75.0 25.0)" />
    <circle cx="0" cy="0" r="25.0" transform="translate(-25.0 25.0)" />
    <circle cx="0" cy="0" r="25.0" transform="translate(-125.0 75.0)" />
    <circle cx="0" cy="0" r="25.0" transform="translate(-75.0 75.0)" />
    <circle cx="0" cy="0" r="25.0" transform="translate(-125.0 125.0)" />
  </g>
</g>
</svg>

