<svg width="300" height="300" viewBox="-150 -150 300 300" fill="none" stroke="black" xmlns="http://www.w3.org/2000/svg" xmlns:xlink="http://www.w3.org/1999/xlink">
<g transform="scale(1 -1)">
  <g transform="translate(-112.5 -112.5)">
    <g transform="translate(0.0 0.0) scale(0.5 0.5)">
      <circle cx="0" cy="0" r="18.75" />
      <circle cx="0" cy="0" r="37.5" />
      <circle cx="0" cy="0" r="56.25" />
      <circle cx="0" cy="0" r="75.0" />
    </g>
    <g transform="translate(0.0 75.0) scale(0.5 0.5)">
      <circle cx="0" cy="0" r="25.0" />
      <circle cx="0" cy="0" r="50.0" />
      <circle cx="0" cy="0" r="75.0" />
    </g>
    <g transform="translate(0.0 150.0) scale(0.5 0.5)">
      <circle cx="0" cy="0" r="37.5" />
      <circle cx="0" cy="0" r="75.0" />
    </g>
    <g transform="translate(0.0 225.0) scale(0.5 0.5)">
      <circle cx="0" cy="0" r="75.0" />
    </g>
    <g transform="translate(75.0 0.0) scale(0.5 0.5)">
      <circle cx="0" cy="0" r="15.0" />
      <circle cx="0" cy="0" r="30.0" />
      <circle cx="0" cy="0" r="45.0" />
      <circle cx="0" cy="0" r="60.0" />
      <circle cx="0" cy="0" r="75.0" />
    </g>
    <g transform="translate(75.0 75.0) scale(0.5 0.5)">
      <circle cx="0" cy="0" r="18.75" />
      <circle cx="0" cy="0" r="37.5" />
      <circle cx="0" cy="0" r="56.25" />
      <circle cx="0" cy="0" r="75.0" />
    </g>
    <g transform="translate(75.0 150.0) scale(0.5 0.5)">
      <circle cx="0" cy="0" r="25.0" />
      <circle cx="0" cy="0" r="50.0" />
      <circle cx="0" cy="0" r="75.0" />
    </g>
    <g transform="translate(75.0 225.0) scale(0.5 0.5)">
      <circle cx="0" cy="0" r="37.5" />
      <circle cx="0" cy="0" r="75.0" />
    </g>
    <g transform="translate(150.0 0.0) scale(0.5 0.5)">
      <circle cx="0" cy="0" r="12.5" />
      <circle cx="0" cy="0" r="25.0" />
      <circle cx="0" cy="0" r="37.5" />
      <circle cx="0" cy="0" r="50.0" />
      <circle cx="0" cy="0" r="62.5" />
      <circle cx="0" cy="0" r="75.0" />
    </g>
    <g transform="translate(150.0 75.0) scale(0.5 0.5)">
      <circle cx="0" cy="0" r="15.0" />
      <circle cx="0" cy="0" r="30.0" />
      <circle cx="0" cy="0" r="45.0" />
      <circle cx="0" cy="0" r="60.0" />
      <circle cx="0" cy="0" r="75.0" />
    </g>
    <g transform="translate(150.0 150.0) scale(0.5 0.5)">
      <circle cx="0" cy="0" r="18.75" />
      <circle cx="0" cy="0" r="37.5" />
      <circle cx="0" cy="0" r="56.25" />
      <circle cx="0" cy="0" r="75.0" />
    </g>
    <g transform="translate(150.0 225.0) scale(0.5 0.5)">
      <circle cx="0" cy="0" r="25.0" />
      <circle cx="0" cy="0" r="50.0" />
      <circle cx="0" cy="0" r="75.0" />
    </g>
    <g transform="translate(225.0 0.0) scale(0.5 0.5)">
      <circle cx="0" cy="0" r="10.714285714285714" />
      <circle cx="0" cy="0" r="21.428571428571427" />
      <circle cx="0" cy="0" r="32.14285714285714" />
      <circle cx="0" cy="0" r="42.857142857142854" />
      <circle cx="0" cy="0" r="53.57142857142857" />
      <circle cx="0" cy="0" r="64.28571428571428" />
      <circle cx="0" cy="0" r="75.0" />
    </g>
    <g transform="translate(225.0 75.0) scale(0.5 0.5)">
      <circle cx="0" cy="0" r="12.5" />
      <circle cx="0" cy="0" r="25.0" />
      <circle cx="0" cy="0" r="37.5" />
      <circle cx="0" cy="0" r="50.0" />
      <circle cx="0" cy="0" r="62.5" />
      <circle cx="0" cy="0" r="75.0" />
    </g>
    <g transform="translate(225.0 150.0) scale(0.5 0.5)">
      <circle cx="0" cy="0" r="15.0" />
      <circle cx="0" cy="0" r="30.0" />
      <circle cx="0" cy="0" r="45.0" />
      <circle cx="0" cy="0" r="60.0" />
      <circle cx="0" cy="0" r="75.0" />
    </g>
    <g transform="translate(225.0 225.0) scale(0.5 0.5)">
      <circle cx="0" cy="0" r="18.75" />
      <circle cx="0" cy="0" r="37.5" />
      <circle cx="0" cy="0" r="56.25" />
      <circle cx="0" cy="0" r="75.0" />
    </g>
  </g>
</g>
</svg>

