<svg width="300" height="300" viewBox="-150 -150 300 300" fill="none" stroke="black" xmlns="http://www.w3.org/2000/svg" xmlns:xlink="http://www.w3.org/1999/xlink">
<g transform="scale(1 -1)">
  <g>
    <rect x="-2.9411764705882355" y="-2.9411764705882355" width="5.882352941176471" height="5.882352941176471" />
    <rect x="-5.882352941176471" y="-5.882352941176471" width="11.764705882352942" height="11.764705882352942" />
    <rect x="-8.823529411764707" y="-8.823529411764707" width="17.647058823529413" height="17.647058823529413" />
    <rect x="-11.764705882352942" y="-11.764705882352942" width="23.529411764705884" height="23.529411764705884" />
    <rect x="-14.705882352941178" y="-14.705882352941178" width="29.411764705882355" height="29.411764705882355" />
    <rect x="-17.647058823529413" y="-17.647058823529413" width="35.294117647058826" height="35.294117647058826" />
    <rect x="-20.58823529411765" y="-20.58823529411765" width="41.1764705882353" height="41.1764705882353" />
    <rect x="-23.529411764705884" y="-23.529411764705884" width="47.05882352941177" height="47.05882352941177" />
    <rect x="-26.47058823529412" y="-26.47058823529412" width="52.94117647058824" height="52.94117647058824" />
    <rect x="-29.411764705882355" y="-29.411764705882355" width="58.82352941176471" height="58.82352941176471" />
    <rect x="-32.352941176470594" y="-32.352941176470594" width="64.70588235294119" height="64.70588235294119" />
    <rect x="-35.294117647058826" y="-35.294117647058826" width="70.58823529411765" height="70.58823529411765" />
    <rect x="-38.23529411764706" y="-38.23529411764706" width="76.47058823529412" height="76.47058823529412" />
    <rect x="-41.1764705882353" y="-41.1764705882353" width="82.3529411764706" height="82.3529411764706" />
    <rect x="-44.117647058823536" y="-44.117647058823536" width="88.23529411764707" height="88.23529411764707" />
    <rect x="-47.05882352941177" y="-47.05882352941177" width="94.11764705882354" height="94.11764705882354" />
    <rect x="-50.0" y="-50.0" width="100.0" height="100.0" />
    <rect x="-52.94117647058824" y="-52.94117647058824" width="105.88235294117648" height="105.88235294117648" />
    <rect x="-55.88235294117648" y="-55.88235294117648" width="111.76470588235296" height="111.76470588235296" />
    <rect x="-58.82352941176471" y="-58.82352941176471" width="117.64705882352942" height="117.64705882352942" />
    <rect x="-61.76470588235294" y="-61.76470588235294" width="123.52941176470588" height="123.52941176470588" />
    <rect x="-64.70588235294119" y="-64.70588235294119" width="129.41176470588238" height="129.41176470588238" />
    <rect x="-67.64705882352942" y="-67.64705882352942" width="135.29411764705884" height="135.29411764705884" />
    <rect x="-70.58823529411765" y="-70.58823529411765" width="141.1764705882353" height="141.1764705882353" />
    <rect x="-73.52941176470588" y="-73.52941176470588" width="147.05882352941177" height="147.05882352941177" />
    <rect x="-76.47058823529412" y="-76.47058823529412" width="152.94117647058823" height="152.94117647058823" />
    <rect x="-79.41176470588236" y="-79.41176470588236" width="158.82352941176472" height="158.82352941176472" />
    <rect x="-82.3529411764706" y="-82.3529411764706" width="164.7058823529412" height="164.7058823529412" />
    <rect x="-85.29411764705883" y="-85.29411764705883" width="170.58823529411765" height="170.58823529411765" />
    <rect x="-88.23529411764707" y="-88.23529411764707" width="176.47058823529414" height="176.47058823529414" />
    <rect x="-91.1764705882353" y="-91.1764705882353" width="182.3529411764706" height="182.3529411764706" />
    <rect x="-94.11764705882354" y="-94.11764705882354" width="188.23529411764707" height="188.23529411764707" />
    <rect x="-97.05882352941177" y="-97.05882352941177" width="194.11764705882354" height="194.11764705882354" />
    <rect x="-100.0" y="-100.0" width="200.0" height="200.0" />
  </g>
</g>
</svg>
