<svg width="300" height="300" viewBox="-150 -150 300 300" fill="none" stroke="black" xmlns="http://www.w3.org/2000/svg" xmlns:xlink="http://www.w3.org/1999/xlink">
<g transform="scale(1 -1)">
  <g>
    <g transform="translate(-137.5 -137.5)">
      <circle cx="0" cy="0" r="12.5" />
    </g>
    <g transform="translate(-112.5 -137.5)">
      <circle cx="0" cy="0" r="6.25" />
      <circle cx="0" cy="0" r="12.5" />
    </g>
    <g transform="translate(-87.5 -137.5)">
      <circle cx="0" cy="0" r="4.166666666666667" />
      <circle cx="0" cy="0" r="8.333333333333334" />
      <circle cx="0" cy="0" r="12.5" />
    </g>
    <g transform="translate(-62.5 -137.5)">
      <circle cx="0" cy="0" r="12.5" />
    </g>
    <g transform="translate(-37.5 -137.5)">
      <circle cx="0" cy="0" r="6.25" />
      <circle cx="0" cy="0" r="12.5" />
    </g>
    <g transform="translate(-12.5 -137.5)">
      <circle cx="0" cy="0" r="4.166666666666667" />
      <circle cx="0" cy="0" r="8.333333333333334" />
      <circle cx="0" cy="0" r="12.5" />
    </g>
    <g transform="translate(12.5 -137.5)">
      <circle cx="0" cy="0" r="12.5" />
    </g>
    <g transform="translate(37.5 -137.5)">
      <circle cx="0" cy="0" r="6.25" />
      <circle cx="0" cy="0" r="12.5" />
    </g>
    <g transform="translate(62.5 -137.5)">
      <circle cx="0" cy="0" r="4.166666666666667" />
      <circle cx="0" cy="0" r="8.333333333333334" />
      <circle cx="0" cy="0" r="12.5" />
    </g>
    <g transform="translate(87.5 -137.5)">
      <circle cx="0" cy="0" r="12.5" />
    </g>
    <g transform="translate(112.5 -137.5)">
      <circle cx="0" cy="0" r="6.25" />
      <circle cx="0" cy="0" r="12.5" />
    </g>
    <g transform="translate(137.5 -137.5)">
      <circle cx="0" cy="0" r="4.166666666666667" />
      <circle cx="0" cy="0" r="8.333333333333334" />
      <circle cx="0" cy="0" r="12.5" />
    </g>
    <g transform="translate(-137.5 -112.5)">
      <circle cx="0" cy="0" r="12.5" />
    </g>
    <g transform="translate(-112.5 -112.5)">
      <circle cx="0" cy="0" r="6.25" />
      <circle cx="0" cy="0" r="12.5" />
    </g>
    <g transform="translate(-87.5 -112.5)">
      <circle cx="0" cy="0" r="4.166666666666667" />
      <circle cx="0" cy="0" r="8.333333333333334" />
      <circle cx="0" cy="0" r="12.5" />
    </g>
    <g transform="translate(-62.5 -112.5)">
      <circle cx="0" cy="0" r="12.5" />
    </g>
    <g transform="translate(-37.5 -112.5)">
      <circle cx="0" cy="0" r="6.25" />
      <circle cx="0" cy="0" r="12.5" />
    </g>
    <g transform="translate(-12.5 -112.5)">
      <circle cx="0" cy="0" r="4.166666666666667" />
      <circle cx="0" cy="0" r="8.333333333333334" />
      <circle cx="0" cy="0" r="12.5" />
    </g>
    <g transform="translate(12.5 -112.5)">
      <circle cx="0" cy="0" r="12.5" />
    </g>
    <g transform="translate(37.5 -112.5)">
      <circle cx="0" cy="0" r="6.25" />
      <circle cx="0" cy="0" r="12.5" />
    </g>
    <g transform="translate(62.5 -112.5)">
      <circle cx="0" cy="0" r="4.166666666666667" />
      <circle cx="0" cy="0" r="8.333333333333334" />
      <circle cx="0" cy="0" r="12.5" />
    </g>
    <g transform="translate(87.5 -112.5)">
      <circle cx="0" cy="0" r="12.5" />
    </g>
    <g transform="translate(112.5 -112.5)">
      <circle cx="0" cy="0" r="6.25" />
      <circle cx="0" cy="0" r="12.5" />
    </g>
    <g transform="translate(137.5 -112.5)">
      <circle cx="0" cy="0" r="4.166666666666667" />
      <circle cx="0" cy="0" r="8.333333333333334" />
      <circle cx="0" cy="0" r="12.5" />
    </g>
    <g transform="translate(-137.5 -87.5)">
      <circle cx="0" cy="0" r="12.5" />
    </g>
    <g transform="translate(-112.5 -87.5)">
      <circle cx="0" cy="0" r="6.25" />
      <circle cx="0" cy="0" r="12.5" />
    </g>
    <g transform="translate(-87.5 -87.5)">
      <circle cx="0" cy="0" r="4.166666666666667" />
      <circle cx="0" cy="0" r="8.333333333333334" />
      <circle cx="0" cy="0" r="12.5" />
    </g>
    <g transform="translate(-62.5 -87.5)">
      <circle cx="0" cy="0" r="12.5" />
    </g>
    <g transform="translate(-37.5 -87.5)">
      <circle cx="0" cy="0" r="6.25" />
      <circle cx="0" cy="0" r="12.5" />
    </g>
    <g transform="translate(-12.5 -87.5)">
      <circle cx="0" cy="0" r="4.166666666666667" />
      <circle cx="0" cy="0" r="8.333333333333334" />
      <circle cx="0" cy="0" r="12.5" />
    </g>
    <g transform="translate(12.5 -87.5)">
      <circle cx="0" cy="0" r="12.5" />
    </g>
    <g transform="translate(37.5 -87.5)">
      <circle cx="0" cy="0" r="6.25" />
      <circle cx="0" cy="0" r="12.5" />
    </g>
    <g transform="translate(62.5 -87.5)">
      <circle cx="0" cy="0" r="4.166666666666667" />
      <circle cx="0" cy="0" r="8.333333333333334" />
      <circle cx="0" cy="0" r="12.5" />
    </g>
    <g transform="translate(87.5 -87.5)">
      <circle cx="0" cy="0" r="12.5" />
    </g>
    <g transform="translate(112.5 -87.5)">
      <circle cx="0" cy="0" r="6.25" />
      <circle cx="0" cy="0" r="12.5" />
    </g>
    <g transform="translate(137.5 -87.5)">
      <circle cx="0" cy="0" r="4.166666666666667" />
      <circle cx="0" cy="0" r="8.333333333333334" />
      <circle cx="0" cy="0" r="12.5" />
    </g>
    <g transform="translate(-137.5 -62.5)">
      <circle cx="0" cy="0" r="12.5" />
    </g>
    <g transform="translate(-112.5 -62.5)">
      <circle cx="0" cy="0" r="6.25" />
      <circle cx="0" cy="0" r="12.5" />
    </g>
    <g transform="translate(-87.5 -62.5)">
      <circle cx="0" cy="0" r="4.166666666666667" />
      <circle cx="0" cy="0" r="8.333333333333334" />
      <circle cx="0" cy="0" r="12.5" />
    </g>
    <g transform="translate(-62.5 -62.5)">
      <circle cx="0" cy="0" r="12.5" />
    </g>
    <g transform="translate(-37.5 -62.5)">
      <circle cx="0" cy="0" r="6.25" />
      <circle cx="0" cy="0" r="12.5" />
    </g>
    <g transform="translate(-12.5 -62.5)">
      <circle cx="0" cy="0" r="4.166666666666667" />
      <circle cx="0" cy="0" r="8.333333333333334" />
      <circle cx="0" cy="0" r="12.5" />
    </g>
    <g transform="translate(12.5 -62.5)">
      <circle cx="0" cy="0" r="12.5" />
    </g>
    <g transform="translate(37.5 -62.5)">
      <circle cx="0" cy="0" r="6.25" />
      <circle cx="0" cy="0" r="12.5" />
    </g>
    <g transform="translate(62.5 -62.5)">
      <circle cx="0" cy="0" r="4.166666666666667" />
      <circle cx="0" cy="0" r="8.333333333333334" />
      <circle cx="0" cy="0" r="12.5" />
    </g>
    <g transform="translate(87.5 -62.5)">
      <circle cx="0" cy="0" r="12.5" />
    </g>
    <g transform="translate(112.5 -62.5)">
      <circle cx="0" cy="0" r="6.25" />
      <circle cx="0" cy="0" r="12.5" />
    </g>
    <g transform="translate(137.5 -62.5)">
      <circle cx="0" cy="0" r="4.166666666666667" />
      <circle cx="0" cy="0" r="8.333333333333334" />
      <circle cx="0" cy="0" r="12.5" />
    </g>
    <g transform="translate(-137.5 -37.5)">
      <circle cx="0" cy="0" r="12.5" />
    </g>
    <g transform="translate(-112.5 -37.5)">
      <circle cx="0" cy="0" r="6.25" />
      <circle cx="0" cy="0" r="12.5" />
    </g>
    <g transform="translate(-87.5 -37.5)">
      <circle cx="0" cy="0" r="4.166666666666667" />
      <circle cx="0" cy="0" r="8.333333333333334" />
      <circle cx="0" cy="0" r="12.5" />
    </g>
    <g transform="translate(-62.5 -37.5)">
      <circle cx="0" cy="0" r="12.5" />
    </g>
    <g transform="translate(-37.5 -37.5)">
      <circle cx="0" cy="0" r="6.25" />
      <circle cx="0" cy="0" r="12.5" />
    </g>
    <g transform="translate(-12.5 -37.5)">
      <circle cx="0" cy="0" r="4.166666666666667" />
      <circle cx="0" cy="0" r="8.333333333333334" />
      <circle cx="0" cy="0" r="12.5" />
    </g>
    <g transform="translate(12.5 -37.5)">
      <circle cx="0" cy="0" r="12.5" />
    </g>
    <g transform="translate(37.5 -37.5)">
      <circle cx="0" cy="0" r="6.25" />
      <circle cx="0" cy="0" r="12.5" />
    </g>
    <g transform="translate(62.5 -37.5)">
      <circle cx="0" cy="0" r="4.166666666666667" />
      <circle cx="0" cy="0" r="8.333333333333334" />
      <circle cx="0" cy="0" r="12.5" />
    </g>
    <g transform="translate(87.5 -37.5)">
      <circle cx="0" cy="0" r="12.5" />
    </g>
    <g transform="translate(112.5 -37.5)">
      <circle cx="0" cy="0" r="6.25" />
      <circle cx="0" cy="0" r="12.5" />
    </g>
    <g transform="translate(137.5 -37.5)">
      <circle cx="0" cy="0" r="4.166666666666667" />
      <circle cx="0" cy="0" r="8.333333333333334" />
      <circle cx="0" cy="0" r="12.5" />
    </g>
    <g transform="translate(-137.5 -12.5)">
      <circle cx="0" cy="0" r="12.5" />
    </g>
    <g transform="translate(-112.5 -12.5)">
      <circle cx="0" cy="0" r="6.25" />
      <circle cx="0" cy="0" r="12.5" />
    </g>
    <g transform="translate(-87.5 -12.5)">
      <circle cx="0" cy="0" r="4.166666666666667" />
      <circle cx="0" cy="0" r="8.333333333333334" />
      <circle cx="0" cy="0" r="12.5" />
    </g>
    <g transform="translate(-62.5 -12.5)">
      <circle cx="0" cy="0" r="12.5" />
    </g>
    <g transform="translate(-37.5 -12.5)">
      <circle cx="0" cy="0" r="6.25" />
      <circle cx="0" cy="0" r="12.5" />
    </g>
    <g transform="translate(-12.5 -12.5)">
      <circle cx="0" cy="0" r="4.166666666666667" />
      <circle cx="0" cy="0" r="8.333333333333334" />
      <circle cx="0" cy="0" r="12.5" />
    </g>
    <g transform="translate(12.5 -12.5)">
      <circle cx="0" cy="0" r="12.5" />
    </g>
    <g transform="translate(37.5 -12.5)">
      <circle cx="0" cy="0" r="6.25" />
      <circle cx="0" cy="0" r="12.5" />
    </g>
    <g transform="translate(62.5 -12.5)">
      <circle cx="0" cy="0" r="4.166666666666667" />
      <circle cx="0" cy="0" r="8.333333333333334" />
      <circle cx="0" cy="0" r="12.5" />
    </g>
    <g transform="translate(87.5 -12.5)">
      <circle cx="0" cy="0" r="12.5" />
    </g>
    <g transform="translate(112.5 -12.5)">
      <circle cx="0" cy="0" r="6.25" />
      <circle cx="0" cy="0" r="12.5" />
    </g>
    <g transform="translate(137.5 -12.5)">
      <circle cx="0" cy="0" r="4.166666666666667" />
      <circle cx="0" cy="0" r="8.333333333333334" />
      <circle cx="0" cy="0" r="12.5" />
    </g>
    <g transform="translate(-137.5 12.5)">
      <circle cx="0" cy="0" r="12.5" />
    </g>
    <g transform="translate(-112.5 12.5)">
      <circle cx="0" cy="0" r="6.25" />
      <circle cx="0" cy="0" r="12.5" />
    </g>
    <g transform="translate(-87.5 12.5)">
      <circle cx="0" cy="0" r="4.166666666666667" />
      <circle cx="0" cy="0" r="8.333333333333334" />
      <circle cx="0" cy="0" r="12.5" />
    </g>
    <g transform="translate(-62.5 12.5)">
      <circle cx="0" cy="0" r="12.5" />
    </g>
    <g transform="translate(-37.5 12.5)">
      <circle cx="0" cy="0" r="6.25" />
      <circle cx="0" cy="0" r="12.5" />
    </g>
    <g transform="translate(-12.5 12.5)">
      <circle cx="0" cy="0" r="4.166666666666667" />
      <circle cx="0" cy="0" r="8.333333333333334" />
      <circle cx="0" cy="0" r="12.5" />
    </g>
    <g transform="translate(12.5 12.5)">
      <circle cx="0" cy="0" r="12.5" />
    </g>
    <g transform="translate(37.5 12.5)">
      <circle cx="0" cy="0" r="6.25" />
      <circle cx="0" cy="0" r="12.5" />
    </g>
    <g transform="translate(62.5 12.5)">
      <circle cx="0" cy="0" r="4.166666666666667" />
      <circle cx="0" cy="0" r="8.333333333333334" />
      <circle cx="0" cy="0" r="12.5" />
    </g>
    <g transform="translate(87.5 12.5)">
      <circle cx="0" cy="0" r="12.5" />
    </g>
    <g transform="translate(112.5 12.5)">
      <circle cx="0" cy="0" r="6.25" />
      <circle cx="0" cy="0" r="12.5" />
    </g>
    <g transform="translate(137.5 12.5)">
      <circle cx="0" cy="0" r="4.166666666666667" />
      <circle cx="0" cy="0" r="8.333333333333334" />
      <circle cx="0" cy="0" r="12.5" />
    </g>
    <g transform="translate(-137.5 37.5)">
      <circle cx="0" cy="0" r="12.5" />
    </g>
    <g transform="translate(-112.5 37.5)">
      <circle cx="0" cy="0" r="6.25" />
      <circle cx="0" cy="0" r="12.5" />
    </g>
    <g transform="translate(-87.5 37.5)">
      <circle cx="0" cy="0" r="4.166666666666667" />
      <circle cx="0" cy="0" r="8.333333333333334" />
      <circle cx="0" cy="0" r="12.5" />
    </g>
    <g transform="translate(-62.5 37.5)">
      <circle cx="0" cy="0" r="12.5" />
    </g>
    <g transform="translate(-37.5 37.5)">
      <circle cx="0" cy="0" r="6.25" />
      <circle cx="0" cy="0" r="12.5" />
    </g>
    <g transform="translate(-12.5 37.5)">
      <circle cx="0" cy="0" r="4.166666666666667" />
      <circle cx="0" cy="0" r="8.333333333333334" />
      <circle cx="0" cy="0" r="12.5" />
    </g>
    <g transform="translate(12.5 37.5)">
      <circle cx="0" cy="0" r="12.5" />
    </g>
    <g transform="translate(37.5 37.5)">
      <circle cx="0" cy="0" r="6.25" />
      <circle cx="0" cy="0" r="12.5" />
    </g>
    <g transform="translate(62.5 37.5)">
      <circle cx="0" cy="0" r="4.166666666666667" />
      <circle cx="0" cy="0" r="8.333333333333334" />
      <circle cx="0" cy="0" r="12.5" />
    </g>
    <g transform="translate(87.5 37.5)">
      <circle cx="0" cy="0" r="12.5" />
    </g>
    <g transform="translate(112.5 37.5)">
      <circle cx="0" cy="0" r="6.25" />
      <circle cx="0" cy="0" r="12.5" />
    </g>
    <g transform="translate(137.5 37.5)">
      <circle cx="0" cy="0" r="4.166666666666667" />
      <circle cx="0" cy="0" r="8.333333333333334" />
      <circle cx="0" cy="0" r="12.5" />
    </g>
    <g transform="translate(-137.5 62.5)">
      <circle cx="0" cy="0" r="12.5" />
    </g>
    <g transform="translate(-112.5 62.5)">
      <circle cx="0" cy="0" r="6.25" />
      <circle cx="0" cy="0" r="12.5" />
    </g>
    <g transform="translate(-87.5 62.5)">
      <circle cx="0" cy="0" r="4.166666666666667" />
      <circle cx="0" cy="0" r="8.333333333333334" />
      <circle cx="0" cy="0" r="12.5" />
    </g>
    <g transform="translate(-62.5 62.5)">
      <circle cx="0" cy="0" r="12.5" />
    </g>
    <g transform="translate(-37.5 62.5)">
      <circle cx="0" cy="0" r="6.25" />
      <circle cx="0" cy="0" r="12.5" />
    </g>
    <g transform="translate(-12.5 62.5)">
      <circle cx="0" cy="0" r="4.166666666666667" />
      <circle cx="0" cy="0" r="8.333333333333334" />
      <circle cx="0" cy="0" r="12.5" />
    </g>
    <g transform="translate(12.5 62.5)">
      <circle cx="0" cy="0" r="12.5" />
    </g>
    <g transform="translate(37.5 62.5)">
      <circle cx="0" cy="0" r="6.25" />
      <circle cx="0" cy="0" r="12.5" />
    </g>
    <g transform="translate(62.5 62.5)">
      <circle cx="0" cy="0" r="4.166666666666667" />
      <circle cx="0" cy="0" r="8.333333333333334" />
      <circle cx="0" cy="0" r="12.5" />
    </g>
    <g transform="translate(87.5 62.5)">
      <circle cx="0" cy="0" r="12.5" />
    </g>
    <g transform="translate(112.5 62.5)">
      <circle cx="0" cy="0" r="6.25" />
      <circle cx="0" cy="0" r="12.5" />
    </g>
    <g transform="translate(137.5 62.5)">
      <circle cx="0" cy="0" r="4.166666666666667" />
      <circle cx="0" cy="0" r="8.333333333333334" />
      <circle cx="0" cy="0" r="12.5" />
    </g>
    <g transform="translate(-137.5 87.5)">
      <circle cx="0" cy="0" r="12.5" />
    </g>
    <g transform="translate(-112.5 87.5)">
      <circle cx="0" cy="0" r="6.25" />
      <circle cx="0" cy="0" r="12.5" />
    </g>
    <g transform="translate(-87.5 87.5)">
      <circle cx="0" cy="0" r="4.166666666666667" />
      <circle cx="0" cy="0" r="8.333333333333334" />
      <circle cx="0" cy="0" r="12.5" />
    </g>
    <g transform="translate(-62.5 87.5)">
      <circle cx="0" cy="0" r="12.5" />
    </g>
    <g transform="translate(-37.5 87.5)">
      <circle cx="0" cy="0" r="6.25" />
      <circle cx="0" cy="0" r="12.5" />
    </g>
    <g transform="translate(-12.5 87.5)">
      <circle cx="0" cy="0" r="4.166666666666667" />
      <circle cx="0" cy="0" r="8.333333333333334" />
      <circle cx="0" cy="0" r="12.5" />
    </g>
    <g transform="translate(12.5 87.5)">
      <circle cx="0" cy="0" r="12.5" />
    </g>
    <g transform="translate(37.5 87.5)">
      <circle cx="0" cy="0" r="6.25" />
      <circle cx="0" cy="0" r="12.5" />
    </g>
    <g transform="translate(62.5 87.5)">
      <circle cx="0" cy="0" r="4.166666666666667" />
      <circle cx="0" cy="0" r="8.333333333333334" />
      <circle cx="0" cy="0" r="12.5" />
    </g>
    <g transform="translate(87.5 87.5)">
      <circle cx="0" cy="0" r="12.5" />
    </g>
    <g transform="translate(112.5 87.5)">
      <circle cx="0" cy="0" r="6.25" />
      <circle cx="0" cy="0" r="12.5" />
    </g>
    <g transform="translate(137.5 87.5)">
      <circle cx="0" cy="0" r="4.166666666666667" />
      <circle cx="0" cy="0" r="8.333333333333334" />
      <circle cx="0" cy="0" r="12.5" />
    </g>
    <g transform="translate(-137.5 112.5)">
      <circle cx="0" cy="0" r="12.5" />
    </g>
    <g transform="translate(-112.5 112.5)">
      <circle cx="0" cy="0" r="6.25" />
      <circle cx="0" cy="0" r="12.5" />
    </g>
    <g transform="translate(-87.5 112.5)">
      <circle cx="0" cy="0" r="4.166666666666667" />
      <circle cx="0" cy="0" r="8.333333333333334" />
      <circle cx="0" cy="0" r="12.5" />
    </g>
    <g transform="translate(-62.5 112.5)">
      <circle cx="0" cy="0" r="12.5" />
    </g>
    <g transform="translate(-37.5 112.5)">
      <circle cx="0" cy="0" r="6.25" />
      <circle cx="0" cy="0" r="12.5" />
    </g>
    <g transform="translate(-12.5 112.5)">
      <circle cx="0" cy="0" r="4.166666666666667" />
      <circle cx="0" cy="0" r="8.333333333333334" />
      <circle cx="0" cy="0" r="12.5" />
    </g>
    <g transform="translate(12.5 112.5)">
      <circle cx="0" cy="0" r="12.5" />
    </g>
    <g transform="translate(37.5 112.5)">
      <circle cx="0" cy="0" r="6.25" />
      <circle cx="0" cy="0" r="12.5" />
    </g>
    <g transform="translate(62.5 112.5)">
      <circle cx="0" cy="0" r="4.166666666666667" />
      <circle cx="0" cy="0" r="8.333333333333334" />
      <circle cx="0" cy="0" r="12.5" />
    </g>
    <g transform="translate(87.5 112.5)">
      <circle cx="0" cy="0" r="12.5" />
    </g>
    <g transform="translate(112.5 112.5)">
      <circle cx="0" cy="0" r="6.25" />
      <circle cx="0" cy="0" r="12.5" />
    </g>
    <g transform="translate(137.5 112.5)">
      <circle cx="0" cy="0" r="4.166666666666667" />
      <circle cx="0" cy="0" r="8.333333333333334" />
      <circle cx="0" cy="0" r="12.5" />
    </g>
    <g transform="translate(-137.5 137.5)">
      <circle cx="0" cy="0" r="12.5" />
    </g>
    <g transform="translate(-112.5 137.5)">
      <circle cx="0" cy="0" r="6.25" />
      <circle cx="0" cy="0" r="12.5" />
    </g>
    <g transform="translate(-87.5 137.5)">
      <circle cx="0" cy="0" r="4.166666666666667" />
      <circle cx="0" cy="0" r="8.333333333333334" />
      <circle cx="0" cy="0" r="12.5" />
    </g>
    <g transform="translate(-62.5 137.5)">
      <circle cx="0" cy="0" r="12.5" />
    </g>
    <g transform="translate(-37.5 137.5)">
      <circle cx="0" cy="0" r="6.25" />
      <circle cx="0" cy="0" r="12.5" />
    </g>
    <g transform="translate(-12.5 137.5)">
      <circle cx="0" cy="0" r="4.166666666666667" />
      <circle cx="0" cy="0" r="8.333333333333334" />
      <circle cx="0" cy="0" r="12.5" />
    </g>
    <g transform="translate(12.5 137.5)">
      <circle cx="0" cy="0" r="12.5" />
    </g>
    <g transform="translate(37.5 137.5)">
      <circle cx="0" cy="0" r="6.25" />
      <circle cx="0" cy="0" r="12.5" />
    </g>
    <g transform="translate(62.5 137.5)">
      <circle cx="0" cy="0" r="4.166666666666667" />
      <circle cx="0" cy="0" r="8.333333333333334" />
      <circle cx="0" cy="0" r="12.5" />
    </g>
    <g transform="translate(87.5 137.5)">
      <circle cx="0" cy="0" r="12.5" />
    </g>
    <g transform="translate(112.5 137.5)">
      <circle cx="0" cy="0" r="6.25" />
      <circle cx="0" cy="0" r="12.5" />
    </g>
    <g transform="translate(137.5 137.5)">
      <circle cx="0" cy="0" r="4.166666666666667" />
      <circle cx="0" cy="0" r="8.333333333333334" />
      <circle cx="0" cy="0" r="12.5" />
    </g>
  </g>
</g>
</svg>
