<svg width="300" height="300" viewBox="-150 -150 300 300" fill="none" stroke="black" xmlns="http://www.w3.org/2000/svg" xmlns:xlink="http://www.w3.org/1999/xlink">
<g transform="scale(1 -1)">
  <g>
    <g transform="translate(0 75) scale(1 0.5)">
      <g transform="translate(-75 0) scale(0.5 1)">
        <g transform="translate(0 75) scale(1 0.5)">
          <g transform="translate(-75 0) scale(0.5 1)">
            <circle cx="0" cy="0" r="49.18348639096368" />
            <circle cx="0" cy="0" r="0.2827133336197468" />
            <circle cx="0" cy="0" r="0.7200230515412298" />
            <circle cx="0" cy="0" r="46.00796381105221" />
            <circle cx="0" cy="0" r="53.36173066533401" />
            <circle cx="0" cy="0" r="96.43177649710289" />
            <circle cx="0" cy="0" r="43.34501589922782" />
            <circle cx="0" cy="0" r="101.07943700555468" />
            <circle cx="0" cy="0" r="9.093833916201513" />
            <circle cx="0" cy="0" r="119.39998076430633" />
          </g>
          <g transform="translate(75 0) scale(0.5 1)">
            <circle cx="0" cy="0" r="86.1813605646415" />
            <circle cx="0" cy="0" r="110.51266512625322" />
            <circle cx="0" cy="0" r="68.40044295025578" />
            <circle cx="0" cy="0" r="109.53111154756436" />
            <circle cx="0" cy="0" r="22.810326721641225" />
            <circle cx="0" cy="0" r="58.29917411113288" />
            <circle cx="0" cy="0" r="2.7771316377050437" />
            <circle cx="0" cy="0" r="108.38135450055918" />
            <circle cx="0" cy="0" r="9.146420910551498" />
            <circle cx="0" cy="0" r="57.49106843029624" />
          </g>
        </g>
        <g transform="translate(0 -75) scale(1 0.5)">
          <g transform="translate(-75 0) scale(0.5 1)">
            <circle cx="0" cy="0" r="44.08609618326649" />
            <circle cx="0" cy="0" r="71.0642829362025" />
            <circle cx="0" cy="0" r="74.3418117103299" />
            <circle cx="0" cy="0" r="21.714930394908766" />
            <circle cx="0" cy="0" r="116.70020983949757" />
            <circle cx="0" cy="0" r="92.42988114687624" />
            <circle cx="0" cy="0" r="100.11311996183946" />
            <circle cx="0" cy="0" r="110.71254628896155" />
            <circle cx="0" cy="0" r="52.32790521442149" />
            <circle cx="0" cy="0" r="14.988549312114754" />
          </g>
          <g transform="translate(75 0) scale(0.5 1)">
            <circle cx="0" cy="0" r="96.12327366606128" />
            <circle cx="0" cy="0" r="32.45293369619673" />
            <circle cx="0" cy="0" r="77.56187462712568" />
            <circle cx="0" cy="0" r="119.99455860435819" />
            <circle cx="0" cy="0" r="98.62746987206708" />
            <circle cx="0" cy="0" r="51.11262534008315" />
            <circle cx="0" cy="0" r="31.1761421915112" />
            <circle cx="0" cy="0" r="108.56062204217935" />
            <circle cx="0" cy="0" r="17.235501737138073" />
            <circle cx="0" cy="0" r="72.2917736346535" />
          </g>
        </g>
      </g>
      <g transform="translate(75 0) scale(0.5 1)">
        <g transform="translate(0 75) scale(1 0.5)">
          <g transform="translate(-75 0) scale(0.5 1)">
            <circle cx="0" cy="0" r="122.93121473636336" />
            <circle cx="0" cy="0" r="27.928598264871887" />
            <circle cx="0" cy="0" r="21.06840038518326" />
            <circle cx="0" cy="0" r="101.99861740425683" />
            <circle cx="0" cy="0" r="45.21843871874541" />
            <circle cx="0" cy="0" r="115.21228763600722" />
            <circle cx="0" cy="0" r="98.14720943582266" />
            <circle cx="0" cy="0" r="56.39181376642832" />
            <circle cx="0" cy="0" r="82.52606900716877" />
            <circle cx="0" cy="0" r="97.34204792342327" />
          </g>
          <g transform="translate(75 0) scale(0.5 1)">
            <circle cx="0" cy="0" r="106.53089192480581" />
            <circle cx="0" cy="0" r="42.94931527168728" />
            <circle cx="0" cy="0" r="14.598828197552718" />
            <circle cx="0" cy="0" r="45.23460230774308" />
            <circle cx="0" cy="0" r="118.43497553715984" />
            <circle cx="0" cy="0" r="10.273544156401568" />
            <circle cx="0" cy="0" r="24.85130089131381" />
            <circle cx="0" cy="0" r="4.786460970156433" />
            <circle cx="0" cy="0" r="25.64930083681839" />
            <circle cx="0" cy="0" r="72.9196724366177" />
          </g>
        </g>
        <g transform="translate(0 -75) scale(1 0.5)">
          <g transform="translate(-75 0) scale(0.5 1)">
            <circle cx="0" cy="0" r="96.48031229709778" />
            <circle cx="0" cy="0" r="35.3138996497456" />
            <circle cx="0" cy="0" r="97.98287764010585" />
            <circle cx="0" cy="0" r="91.13749878561778" />
            <circle cx="0" cy="0" r="9.805532943680348" />
            <circle cx="0" cy="0" r="27.641632260416145" />
            <circle cx="0" cy="0" r="52.95225911526877" />
            <circle cx="0" cy="0" r="30.34640315701043" />
            <circle cx="0" cy="0" r="11.868855916454827" />
            <circle cx="0" cy="0" r="113.54228997362075" />
          </g>
          <g transform="translate(75 0) scale(0.5 1)">
            <circle cx="0" cy="0" r="85.2618763951502" />
            <circle cx="0" cy="0" r="5.466286738219667" />
            <circle cx="0" cy="0" r="60.36957250328055" />
            <circle cx="0" cy="0" r="123.08638409074267" />
            <circle cx="0" cy="0" r="75.18480031718765" />
            <circle cx="0" cy="0" r="25.81660549807653" />
            <circle cx="0" cy="0" r="106.22484221472176" />
            <circle cx="0" cy="0" r="56.342949712939294" />
            <circle cx="0" cy="0" r="59.7584187834538" />
            <circle cx="0" cy="0" r="99.54138230072789" />
          </g>
        </g>
      </g>
    </g>
    <g transform="translate(0 -75) scale(1 0.5)">
      <g transform="translate(-75 0) scale(0.5 1)">
        <g transform="translate(0 75) scale(1 0.5)">
          <g transform="translate(-75 0) scale(0.5 1)">
            <circle cx="0" cy="0" r="103.08796289746711" />
            <circle cx="0" cy="0" r="26.338253361101987" />
            <circle cx="0" cy="0" r="51.40756027756353" />
            <circle cx="0" cy="0" r="44.81559002738041" />
            <circle cx="0" cy="0" r="74.86982127321403" />
            <circle cx="0" cy="0" r="60.565378035358606" />
            <circle cx="0" cy="0" r="37.17005049038335" />
            <circle cx="0" cy="0" r="79.83354721772982" />
            <circle cx="0" cy="0" r="109.04395623340619" />
            <circle cx="0" cy="0" r="96.21592760716555" />
          </g>
          <g transform="translate(75 0) scale(0.5 1)">
            <circle cx="0" cy="0" r="65.9772687680032" />
            <circle cx="0" cy="0" r="119.50629953705027" />
            <circle cx="0" cy="0" r="65.89973935934826" />
            <circle cx="0" cy="0" r="93.13129328086761" />
            <circle cx="0" cy="0" r="65.5696850787955" />
            <circle cx="0" cy="0" r="4.4123863081427235" />
            <circle cx="0" cy="0" r="97.50168839946512" />
            <circle cx="0" cy="0" r="7.551268880827008" />
            <circle cx="0" cy="0" r="121.18145883820972" />
            <circle cx="0" cy="0" r="47.54657261827172" />
          </g>
        </g>
        <g transform="translate(0 -75) scale(1 0.5)">
          <g transform="translate(-75 0) scale(0.5 1)">
            <circle cx="0" cy="0" r="59.13792415894921" />
            <circle cx="0" cy="0" r="45.229373760134955" />
            <circle cx="0" cy="0" r="49.208090747258225" />
            <circle cx="0" cy="0" r="87.78111865916819" />
            <circle cx="0" cy="0" r="110.0834966487234" />
            <circle cx="0" cy="0" r="33.088891416109256" />
            <circle cx="0" cy="0" r="16.880021879022696" />
            <circle cx="0" cy="0" r="65.57320341838226" />
            <circle cx="0" cy="0" r="92.52372409621609" />
            <circle cx="0" cy="0" r="19.688087501410017" />
          </g>
          <g transform="translate(75 0) scale(0.5 1)">
            <circle cx="0" cy="0" r="13.849032957549829" />
            <circle cx="0" cy="0" r="88.8341157374805" />
            <circle cx="0" cy="0" r="61.52443177628437" />
            <circle cx="0" cy="0" r="108.96045587948606" />
            <circle cx="0" cy="0" r="13.740309237719684" />
            <circle cx="0" cy="0" r="10.444143287050512" />
            <circle cx="0" cy="0" r="16.76583414496663" />
            <circle cx="0" cy="0" r="86.2244402830638" />
            <circle cx="0" cy="0" r="0.8687975425931138" />
            <circle cx="0" cy="0" r="23.203519551953335" />
          </g>
        </g>
      </g>
      <g transform="translate(75 0) scale(0.5 1)">
        <g transform="translate(0 75) scale(1 0.5)">
          <g transform="translate(-75 0) scale(0.5 1)">
            <circle cx="0" cy="0" r="47.503859240689465" />
            <circle cx="0" cy="0" r="55.59506822079594" />
            <circle cx="0" cy="0" r="63.90410634726918" />
            <circle cx="0" cy="0" r="40.47882422455507" />
            <circle cx="0" cy="0" r="9.469347598609831" />
            <circle cx="0" cy="0" r="27.706745015899717" />
            <circle cx="0" cy="0" r="41.235231596030125" />
            <circle cx="0" cy="0" r="72.0886797583434" />
            <circle cx="0" cy="0" r="39.17082948511697" />
            <circle cx="0" cy="0" r="10.274294188929527" />
          </g>
          <g transform="translate(75 0) scale(0.5 1)">
            <circle cx="0" cy="0" r="21.180733888538846" />
            <circle cx="0" cy="0" r="119.66286885218001" />
            <circle cx="0" cy="0" r="75.74071838886977" />
            <circle cx="0" cy="0" r="52.672048178939484" />
            <circle cx="0" cy="0" r="63.79679524692665" />
            <circle cx="0" cy="0" r="48.51448848365142" />
            <circle cx="0" cy="0" r="46.371716310043176" />
            <circle cx="0" cy="0" r="15.324605808097095" />
            <circle cx="0" cy="0" r="47.95240983083715" />
            <circle cx="0" cy="0" r="20.579164527335685" />
          </g>
        </g>
        <g transform="translate(0 -75) scale(1 0.5)">
          <g transform="translate(-75 0) scale(0.5 1)">
            <circle cx="0" cy="0" r="0.7215521221647647" />
            <circle cx="0" cy="0" r="57.92027901944582" />
            <circle cx="0" cy="0" r="63.74672939892455" />
            <circle cx="0" cy="0" r="12.390412766473055" />
            <circle cx="0" cy="0" r="4.6866415001830255" />
            <circle cx="0" cy="0" r="16.297820211198548" />
            <circle cx="0" cy="0" r="48.16009875142427" />
            <circle cx="0" cy="0" r="97.52467403108541" />
            <circle cx="0" cy="0" r="1.751201444538164" />
            <circle cx="0" cy="0" r="65.22849797837573" />
          </g>
          <g transform="translate(75 0) scale(0.5 1)">
            <circle cx="0" cy="0" r="21.82325751817908" />
            <circle cx="0" cy="0" r="20.266859424568032" />
            <circle cx="0" cy="0" r="115.23928003738078" />
            <circle cx="0" cy="0" r="36.81066700610758" />
            <circle cx="0" cy="0" r="31.81023660251364" />
            <circle cx="0" cy="0" r="35.95472734908847" />
            <circle cx="0" cy="0" r="19.552834151239622" />
            <circle cx="0" cy="0" r="22.337061065384162" />
            <circle cx="0" cy="0" r="114.97063996958835" />
            <circle cx="0" cy="0" r="5.68509364203458" />
          </g>
        </g>
      </g>
    </g>
  </g>
</g>
</svg>
