<svg width="300" height="300" viewBox="-150 -150 300 300" fill="none" stroke="black" xmlns="http://www.w3.org/2000/svg" xmlns:xlink="http://www.w3.org/1999/xlink">
<g transform="scale(1 -1)">
  <g>
    <g transform="translate(0 75) scale(1 0.5)">
      <g transform="translate(-75 0) scale(0.5 1)">
        <rect x="-107.07827291170634" y="-107.07827291170634" width="214.15654582341267" height="214.15654582341267" />
        <rect x="-14.414749659899126" y="-14.414749659899126" width="28.829499319798252" height="28.829499319798252" />
        <rect x="-104.68914410690442" y="-104.68914410690442" width="209.37828821380884" height="209.37828821380884" />
        <rect x="-3.179414949643147" y="-3.179414949643147" width="6.358829899286294" height="6.358829899286294" />
        <rect x="-52.464528450339635" y="-52.464528450339635" width="104.92905690067927" height="104.92905690067927" />
        <rect x="-81.06069979459886" y="-81.06069979459886" width="162.12139958919772" height="162.12139958919772" />
        <rect x="-44.367280903385364" y="-44.367280903385364" width="88.73456180677073" height="88.73456180677073" />
        <rect x="-96.13376673415634" y="-96.13376673415634" width="192.26753346831268" height="192.26753346831268" />
        <rect x="-82.0746997986607" y="-82.0746997986607" width="164.1493995973214" height="164.1493995973214" />
        <rect x="-48.35535678708489" y="-48.35535678708489" width="96.71071357416977" height="96.71071357416977" />
        <rect x="-57.07661634627395" y="-57.07661634627395" width="114.1532326925479" height="114.1532326925479" />
        <rect x="-64.63679959603044" y="-64.63679959603044" width="129.27359919206089" height="129.27359919206089" />
        <rect x="-7.558320982013325" y="-7.558320982013325" width="15.11664196402665" height="15.11664196402665" />
        <rect x="-30.462677410788565" y="-30.462677410788565" width="60.92535482157713" height="60.92535482157713" />
        <rect x="-10.585597187121792" y="-10.585597187121792" width="21.171194374243584" height="21.171194374243584" />
      </g>
      <g transform="translate(75 0) scale(0.5 1)">
        <rect x="-23.65547493218009" y="-23.65547493218009" width="47.31094986436018" height="47.31094986436018" />
        <rect x="-85.92591522058282" y="-85.92591522058282" width="171.85183044116565" height="171.85183044116565" />
        <rect x="-79.41797938987932" y="-79.41797938987932" width="158.83595877975864" height="158.83595877975864" />
        <rect x="-26.889757476571337" y="-26.889757476571337" width="53.77951495314267" height="53.77951495314267" />
        <rect x="-101.28031828750974" y="-101.28031828750974" width="202.5606365750195" height="202.5606365750195" />
        <rect x="-111.8242932779466" y="-111.8242932779466" width="223.6485865558932" height="223.6485865558932" />
        <rect x="-6.0310487648417705" y="-6.0310487648417705" width="12.062097529683541" height="12.062097529683541" />
        <rect x="-0.24060492768154806" y="-0.24060492768154806" width="0.48120985536309613" height="0.48120985536309613" />
        <rect x="-115.46654170648509" y="-115.46654170648509" width="230.93308341297018" height="230.93308341297018" />
        <rect x="-82.68382091887308" y="-82.68382091887308" width="165.36764183774616" height="165.36764183774616" />
        <rect x="-22.1277664783696" y="-22.1277664783696" width="44.2555329567392" height="44.2555329567392" />
        <rect x="-57.622201390201774" y="-57.622201390201774" width="115.24440278040355" height="115.24440278040355" />
        <rect x="-124.59537493282552" y="-124.59537493282552" width="249.19074986565104" height="249.19074986565104" />
        <rect x="-95.09081672972732" y="-95.09081672972732" width="190.18163345945464" height="190.18163345945464" />
        <rect x="-100.95909067046567" y="-100.95909067046567" width="201.91818134093134" height="201.91818134093134" />
      </g>
    </g>
    <g transform="translate(0 -75) scale(1 0.5)">
      <g transform="translate(-75 0) scale(0.5 1)">
        <rect x="-70.47749821306158" y="-70.47749821306158" width="140.95499642612316" height="140.95499642612316" />
        <rect x="-95.86514277319905" y="-95.86514277319905" width="191.7302855463981" height="191.7302855463981" />
        <rect x="-6.938883901948661" y="-6.938883901948661" width="13.877767803897322" height="13.877767803897322" />
        <rect x="-15.970631931114434" y="-15.970631931114434" width="31.94126386222887" height="31.94126386222887" />
        <rect x="-16.91206083136025" y="-16.91206083136025" width="33.8241216627205" height="33.8241216627205" />
        <rect x="-99.01174585746345" y="-99.01174585746345" width="198.0234917149269" height="198.0234917149269" />
        <rect x="-40.530817080836904" y="-40.530817080836904" width="81.06163416167381" height="81.06163416167381" />
        <rect x="-96.81940859236205" y="-96.81940859236205" width="193.6388171847241" height="193.6388171847241" />
        <rect x="-67.3994248794524" y="-67.3994248794524" width="134.7988497589048" height="134.7988497589048" />
        <rect x="-111.39104665148908" y="-111.39104665148908" width="222.78209330297815" height="222.78209330297815" />
        <rect x="-29.911376940977856" y="-29.911376940977856" width="59.82275388195571" height="59.82275388195571" />
        <rect x="-114.49660769448373" y="-114.49660769448373" width="228.99321538896746" height="228.99321538896746" />
        <rect x="-109.35716832278598" y="-109.35716832278598" width="218.71433664557196" height="218.71433664557196" />
        <rect x="-123.56449944283277" y="-123.56449944283277" width="247.12899888566554" height="247.12899888566554" />
        <rect x="-7.19628717105164" y="-7.19628717105164" width="14.39257434210328" height="14.39257434210328" />
      </g>
      <g transform="translate(75 0) scale(0.5 1)">
        <rect x="-90.43576652399017" y="-90.43576652399017" width="180.87153304798034" height="180.87153304798034" />
        <rect x="-78.31857766073657" y="-78.31857766073657" width="156.63715532147313" height="156.63715532147313" />
        <rect x="-111.88644130917926" y="-111.88644130917926" width="223.77288261835852" height="223.77288261835852" />
        <rect x="-99.37877210796323" y="-99.37877210796323" width="198.75754421592646" height="198.75754421592646" />
        <rect x="-82.4484305297749" y="-82.4484305297749" width="164.8968610595498" height="164.8968610595498" />
        <rect x="-111.92984692437155" y="-111.92984692437155" width="223.8596938487431" height="223.8596938487431" />
        <rect x="-2.1872124201651606" y="-2.1872124201651606" width="4.374424840330321" height="4.374424840330321" />
        <rect x="-33.0244290876127" y="-33.0244290876127" width="66.0488581752254" height="66.0488581752254" />
        <rect x="-43.33534098505991" y="-43.33534098505991" width="86.67068197011982" height="86.67068197011982" />
        <rect x="-109.84038285271056" y="-109.84038285271056" width="219.68076570542112" height="219.68076570542112" />
        <rect x="-112.30678614829533" y="-112.30678614829533" width="224.61357229659066" height="224.61357229659066" />
        <rect x="-12.891120111019935" y="-12.891120111019935" width="25.78224022203987" height="25.78224022203987" />
        <rect x="-93.55617715677124" y="-93.55617715677124" width="187.11235431354248" height="187.11235431354248" />
        <rect x="-62.309042420531895" y="-62.309042420531895" width="124.61808484106379" height="124.61808484106379" />
        <rect x="-7.039402657045765" y="-7.039402657045765" width="14.07880531409153" height="14.07880531409153" />
      </g>
    </g>
  </g>
</g>
</svg>
