<svg width="300" height="300" viewBox="-150 -150 300 300" fill="none" stroke="black" xmlns="http://www.w3.org/2000/svg" xmlns:xlink="http://www.w3.org/1999/xlink">
<g transform="scale(1 -1)">
  <g>
    <rect x="-99.1344029437705" y="-99.1344029437705" width="198.268805887541" height="198.268805887541" />
    <rect x="-55.199382642017" y="-55.199382642017" width="110.398765284034" height="110.398765284034" />
    <rect x="-56.915256397210136" y="-56.915256397210136" width="113.83051279442027" height="113.83051279442027" />
    <rect x="-89.01211974646401" y="-89.01211974646401" width="178.02423949292802" height="178.02423949292802" />
    <rect x="-18.915595358658692" y="-18.915595358658692" width="37.831190717317384" height="37.831190717317384" />
    <rect x="-15.658035403079209" y="-15.658035403079209" width="31.316070806158418" height="31.316070806158418" />
    <rect x="-13.789912962842585" y="-13.789912962842585" width="27.57982592568517" height="27.57982592568517" />
    <rect x="-43.02693245244328" y="-43.02693245244328" width="86.05386490488657" height="86.05386490488657" />
    <rect x="-103.61448974058582" y="-103.61448974058582" width="207.22897948117165" height="207.22897948117165" />
    <rect x="-73.47593383605496" y="-73.47593383605496" width="146.95186767210993" height="146.95186767210993" />
    <rect x="-25.862368411906964" y="-25.862368411906964" width="51.72473682381393" height="51.72473682381393" />
    <rect x="-69.62379141928356" y="-69.62379141928356" width="139.24758283856713" height="139.24758283856713" />
    <rect x="-74.05569670444243" y="-74.05569670444243" width="148.11139340888485" height="148.11139340888485" />
    <rect x="-2.265491790703483" y="-2.265491790703483" width="4.530983581406966" height="4.530983581406966" />
    <rect x="-98.29567734286927" y="-98.29567734286927" width="196.59135468573854" height="196.59135468573854" />
  </g>
</g>
</svg>
