<svg width="300" height="300" viewBox="-150 -150 300 300" fill="none" stroke="black" xmlns="http://www.w3.org/2000/svg" xmlns:xlink="http://www.w3.org/1999/xlink">
<g transform="scale(1 -1)">
  <g>
    <g transform="translate(0 75) scale(1 0.5)">
      <g transform="translate(-75 0) scale(0.5 1)">
        <circle cx="0" cy="0" r="61.58916646133772" />
        <circle cx="0" cy="0" r="87.69342997957362" />
        <circle cx="0" cy="0" r="65.1721598669931" />
        <circle cx="0" cy="0" r="57.1753883520148" />
        <circle cx="0" cy="0" r="22.22865853755973" />
        <circle cx="0" cy="0" r="22.978080450634387" />
        <circle cx="0" cy="0" r="94.39515835794909" />
        <circle cx="0" cy="0" r="70.26050014555992" />
        <circle cx="0" cy="0" r="6.716462540971058" />
        <circle cx="0" cy="0" r="44.47061267175329" />
        <circle cx="0" cy="0" r="96.0885283813156" />
        <circle cx="0" cy="0" r="14.658611929042408" />
        <circle cx="0" cy="0" r="55.109622216714286" />
        <circle cx="0" cy="0" r="0.5218404326196247" />
        <circle cx="0" cy="0" r="41.15288695772069" />
        <circle cx="0" cy="0" r="45.29737338823367" />
        <circle cx="0" cy="0" r="42.799276195358274" />
        <circle cx="0" cy="0" r="70.87074355460476" />
        <circle cx="0" cy="0" r="93.87160696545533" />
        <circle cx="0" cy="0" r="72.4379988252179" />
        <circle cx="0" cy="0" r="73.36600287439448" />
        <circle cx="0" cy="0" r="59.69214506112381" />
        <circle cx="0" cy="0" r="8.67180339744672" />
        <circle cx="0" cy="0" r="13.468429549875749" />
        <circle cx="0" cy="0" r="26.806621430163634" />
      </g>
      <g transform="translate(75 0) scale(0.5 1)">
        <circle cx="0" cy="0" r="81.79637109802792" />
        <circle cx="0" cy="0" r="57.65674182432179" />
        <circle cx="0" cy="0" r="62.41348869236014" />
        <circle cx="0" cy="0" r="1.1480527706014598" />
        <circle cx="0" cy="0" r="64.86896306941922" />
        <circle cx="0" cy="0" r="15.939517504802026" />
        <circle cx="0" cy="0" r="41.08993341396571" />
        <circle cx="0" cy="0" r="73.39363565475048" />
        <circle cx="0" cy="0" r="26.39051178569163" />
        <circle cx="0" cy="0" r="89.82814721934673" />
        <circle cx="0" cy="0" r="88.89640141391057" />
        <circle cx="0" cy="0" r="64.36180280828265" />
        <circle cx="0" cy="0" r="82.40529118274966" />
        <circle cx="0" cy="0" r="48.53251988237268" />
        <circle cx="0" cy="0" r="22.17016895442503" />
        <circle cx="0" cy="0" r="32.946589373661226" />
        <circle cx="0" cy="0" r="68.86142379284423" />
        <circle cx="0" cy="0" r="42.826206608129404" />
        <circle cx="0" cy="0" r="77.83510582070606" />
        <circle cx="0" cy="0" r="45.3964962659761" />
        <circle cx="0" cy="0" r="16.610793039580464" />
        <circle cx="0" cy="0" r="56.66995776805582" />
        <circle cx="0" cy="0" r="29.54115266237396" />
        <circle cx="0" cy="0" r="28.22282335322075" />
        <circle cx="0" cy="0" r="84.81166076852197" />
      </g>
    </g>
    <g transform="translate(0 -75) scale(1 0.5)">
      <g transform="translate(-75 0) scale(0.5 1)">
        <circle cx="0" cy="0" r="32.27679257663287" />
        <circle cx="0" cy="0" r="47.48544955109908" />
        <circle cx="0" cy="0" r="91.11885759495505" />
        <circle cx="0" cy="0" r="28.200878440802736" />
        <circle cx="0" cy="0" r="47.81519478374124" />
        <circle cx="0" cy="0" r="32.800785468990526" />
        <circle cx="0" cy="0" r="93.1446871413028" />
        <circle cx="0" cy="0" r="78.24725991543222" />
        <circle cx="0" cy="0" r="2.4672840845715083" />
        <circle cx="0" cy="0" r="48.47149682077207" />
        <circle cx="0" cy="0" r="10.66323483583428" />
        <circle cx="0" cy="0" r="79.03306999568773" />
        <circle cx="0" cy="0" r="39.23484455515671" />
        <circle cx="0" cy="0" r="8.994027365819534" />
        <circle cx="0" cy="0" r="24.672296137560924" />
        <circle cx="0" cy="0" r="48.42376939261328" />
        <circle cx="0" cy="0" r="79.46131537115636" />
        <circle cx="0" cy="0" r="35.88319373203108" />
        <circle cx="0" cy="0" r="71.07777239395486" />
        <circle cx="0" cy="0" r="84.46969781531345" />
        <circle cx="0" cy="0" r="85.4718597323847" />
        <circle cx="0" cy="0" r="17.351534368230425" />
        <circle cx="0" cy="0" r="87.07157137458175" />
        <circle cx="0" cy="0" r="58.139288504421415" />
        <circle cx="0" cy="0" r="48.744314941237874" />
      </g>
      <g transform="translate(75 0) scale(0.5 1)">
        <circle cx="0" cy="0" r="62.552175933374855" />
        <circle cx="0" cy="0" r="69.03840971782684" />
        <circle cx="0" cy="0" r="58.46387556786351" />
        <circle cx="0" cy="0" r="72.54707272589948" />
        <circle cx="0" cy="0" r="56.868118730962266" />
        <circle cx="0" cy="0" r="29.25257437068155" />
        <circle cx="0" cy="0" r="2.2223056113872763" />
        <circle cx="0" cy="0" r="0.21970214709003955" />
        <circle cx="0" cy="0" r="70.96337906592242" />
        <circle cx="0" cy="0" r="19.536637565148496" />
        <circle cx="0" cy="0" r="45.369123517697396" />
        <circle cx="0" cy="0" r="74.52369394741784" />
        <circle cx="0" cy="0" r="36.47073287041251" />
        <circle cx="0" cy="0" r="91.8089823701038" />
        <circle cx="0" cy="0" r="0.453847108352734" />
        <circle cx="0" cy="0" r="36.895206561600055" />
        <circle cx="0" cy="0" r="9.267378360535627" />
        <circle cx="0" cy="0" r="63.12142909672024" />
        <circle cx="0" cy="0" r="32.582769062857" />
        <circle cx="0" cy="0" r="27.53457964549566" />
        <circle cx="0" cy="0" r="61.236075304000536" />
        <circle cx="0" cy="0" r="61.903946403878315" />
        <circle cx="0" cy="0" r="23.457333973432682" />
        <circle cx="0" cy="0" r="16.79966937259697" />
        <circle cx="0" cy="0" r="61.60667750645899" />
      </g>
    </g>
  </g>
</g>
</svg>
