<svg width="300" height="300" viewBox="-150 -150 300 300" fill="none" stroke="black" xmlns="http://www.w3.org/2000/svg" xmlns:xlink="http://www.w3.org/1999/xlink">
<g transform="scale(1 -1)">
  <g>
    <g transform="translate(0 75) scale(1 0.5)">
      <g transform="translate(-75 0) scale(0.5 1)">
        <g transform="translate(0 75) scale(1 0.5)">
          <g transform="translate(-75 0) scale(0.5 1)">
            <rect x="-5.981746789185519" y="-5.981746789185519" width="11.963493578371038" height="11.963493578371038" />
            <rect x="-88.06186318256015" y="-88.06186318256015" width="176.1237263651203" height="176.1237263651203" />
            <rect x="-8.148112587730377" y="-8.148112587730377" width="16.296225175460755" height="16.296225175460755" />
            <rect x="-22.812280172477244" y="-22.812280172477244" width="45.62456034495449" height="45.62456034495449" />
            <rect x="-116.04907785880388" y="-116.04907785880388" width="232.09815571760777" height="232.09815571760777" />
            <rect x="-9.064379391531249" y="-9.064379391531249" width="18.128758783062498" height="18.128758783062498" />
            <rect x="-28.960084664812673" y="-28.960084664812673" width="57.920169329625345" height="57.920169329625345" />
            <rect x="-112.49932672063704" y="-112.49932672063704" width="224.9986534412741" height="224.9986534412741" />
            <rect x="-52.36360763491839" y="-52.36360763491839" width="104.72721526983678" height="104.72721526983678" />
            <rect x="-79.00068931609646" y="-79.00068931609646" width="158.0013786321929" height="158.0013786321929" />
            <rect x="-26.528804958843605" y="-26.528804958843605" width="53.05760991768721" height="53.05760991768721" />
            <rect x="-5.171423179397324" y="-5.171423179397324" width="10.342846358794649" height="10.342846358794649" />
            <rect x="-116.14653345051961" y="-116.14653345051961" width="232.29306690103923" height="232.29306690103923" />
            <rect x="-40.43597409206065" y="-40.43597409206065" width="80.8719481841213" height="80.8719481841213" />
            <rect x="-50.25497615961436" y="-50.25497615961436" width="100.50995231922872" height="100.50995231922872" />
          </g>
          <g transform="translate(75 0) scale(0.5 1)">
            <rect x="-95.71269331701377" y="-95.71269331701377" width="191.42538663402755" height="191.42538663402755" />
            <rect x="-92.74045604621558" y="-92.74045604621558" width="185.48091209243117" height="185.48091209243117" />
            <rect x="-39.945780145582795" y="-39.945780145582795" width="79.89156029116559" height="79.89156029116559" />
            <rect x="-86.22818680406796" y="-86.22818680406796" width="172.45637360813592" height="172.45637360813592" />
            <rect x="-15.19587013012584" y="-15.19587013012584" width="30.39174026025168" height="30.39174026025168" />
            <rect x="-84.55870583920412" y="-84.55870583920412" width="169.11741167840825" height="169.11741167840825" />
            <rect x="-46.26631028208585" y="-46.26631028208585" width="92.5326205641717" height="92.5326205641717" />
            <rect x="-79.09166780475725" y="-79.09166780475725" width="158.1833356095145" height="158.1833356095145" />
            <rect x="-0.6871848050390567" y="-0.6871848050390567" width="1.3743696100781133" height="1.3743696100781133" />
            <rect x="-59.44381098851505" y="-59.44381098851505" width="118.8876219770301" height="118.8876219770301" />
            <rect x="-100.89365321900989" y="-100.89365321900989" width="201.78730643801978" height="201.78730643801978" />
            <rect x="-23.007628767614225" y="-23.007628767614225" width="46.01525753522845" height="46.01525753522845" />
            <rect x="-39.39992259547698" y="-39.39992259547698" width="78.79984519095396" height="78.79984519095396" />
            <rect x="-107.8661045821106" y="-107.8661045821106" width="215.7322091642212" height="215.7322091642212" />
            <rect x="-114.39351817572467" y="-114.39351817572467" width="228.78703635144933" height="228.78703635144933" />
          </g>
        </g>
        <g transform="translate(0 -75) scale(1 0.5)">
          <g transform="translate(-75 0) scale(0.5 1)">
            <rect x="-63.13440987477624" y="-63.13440987477624" width="126.26881974955248" height="126.26881974955248" />
            <rect x="-66.46130833313367" y="-66.46130833313367" width="132.92261666626734" height="132.92261666626734" />
            <rect x="-15.007921523110882" y="-15.007921523110882" width="30.015843046221764" height="30.015843046221764" />
            <rect x="-95.19053797133759" y="-95.19053797133759" width="190.38107594267518" height="190.38107594267518" />
            <rect x="-69.85043107058907" y="-69.85043107058907" width="139.70086214117813" height="139.70086214117813" />
            <rect x="-33.11349006143146" y="-33.11349006143146" width="66.22698012286293" height="66.22698012286293" />
            <rect x="-23.43262018351487" y="-23.43262018351487" width="46.86524036702974" height="46.86524036702974" />
            <rect x="-80.67821238327825" y="-80.67821238327825" width="161.3564247665565" height="161.3564247665565" />
            <rect x="-97.8160633652195" y="-97.8160633652195" width="195.632126730439" height="195.632126730439" />
            <rect x="-8.815922232624008" y="-8.815922232624008" width="17.631844465248015" height="17.631844465248015" />
            <rect x="-94.67607625493953" y="-94.67607625493953" width="189.35215250987906" height="189.35215250987906" />
            <rect x="-54.70925930602263" y="-54.70925930602263" width="109.41851861204526" height="109.41851861204526" />
            <rect x="-80.04431178564684" y="-80.04431178564684" width="160.08862357129368" height="160.08862357129368" />
            <rect x="-9.12780848377412" y="-9.12780848377412" width="18.25561696754824" height="18.25561696754824" />
            <rect x="-113.28693730259737" y="-113.28693730259737" width="226.57387460519473" height="226.57387460519473" />
          </g>
          <g transform="translate(75 0) scale(0.5 1)">
            <rect x="-5.399347698623297" y="-5.399347698623297" width="10.798695397246593" height="10.798695397246593" />
            <rect x="-65.90269688338348" y="-65.90269688338348" width="131.80539376676697" height="131.80539376676697" />
            <rect x="-121.68775451250946" y="-121.68775451250946" width="243.3755090250189" height="243.3755090250189" />
            <rect x="-5.080433789240516" y="-5.080433789240516" width="10.160867578481032" height="10.160867578481032" />
            <rect x="-61.66786535564923" y="-61.66786535564923" width="123.33573071129847" height="123.33573071129847" />
            <rect x="-33.824124280929595" y="-33.824124280929595" width="67.64824856185919" height="67.64824856185919" />
            <rect x="-52.36531519366741" y="-52.36531519366741" width="104.73063038733483" height="104.73063038733483" />
            <rect x="-89.37892130285569" y="-89.37892130285569" width="178.75784260571137" height="178.75784260571137" />
            <rect x="-58.73641550441292" y="-58.73641550441292" width="117.47283100882584" height="117.47283100882584" />
            <rect x="-85.46026790867015" y="-85.46026790867015" width="170.9205358173403" height="170.9205358173403" />
            <rect x="-99.31617763261917" y="-99.31617763261917" width="198.63235526523835" height="198.63235526523835" />
            <rect x="-26.532467148118258" y="-26.532467148118258" width="53.064934296236515" height="53.064934296236515" />
            <rect x="-104.48684955373396" y="-104.48684955373396" width="208.97369910746792" height="208.97369910746792" />
            <rect x="-124.26356624012564" y="-124.26356624012564" width="248.52713248025128" height="248.52713248025128" />
            <rect x="-33.76604917509411" y="-33.76604917509411" width="67.53209835018822" height="67.53209835018822" />
          </g>
        </g>
      </g>
      <g transform="translate(75 0) scale(0.5 1)">
        <g transform="translate(0 75) scale(1 0.5)">
          <g transform="translate(-75 0) scale(0.5 1)">
            <rect x="-42.4126764221843" y="-42.4126764221843" width="84.8253528443686" height="84.8253528443686" />
            <rect x="-115.20550437943766" y="-115.20550437943766" width="230.4110087588753" height="230.4110087588753" />
            <rect x="-111.18114147896578" y="-111.18114147896578" width="222.36228295793157" height="222.36228295793157" />
            <rect x="-84.93962166434949" y="-84.93962166434949" width="169.87924332869898" height="169.87924332869898" />
            <rect x="-10.26103329389022" y="-10.26103329389022" width="20.52206658778044" height="20.52206658778044" />
            <rect x="-36.05569158915997" y="-36.05569158915997" width="72.11138317831994" height="72.11138317831994" />
            <rect x="-49.15973662061701" y="-49.15973662061701" width="98.31947324123402" height="98.31947324123402" />
            <rect x="-66.65200179667008" y="-66.65200179667008" width="133.30400359334016" height="133.30400359334016" />
            <rect x="-121.70299464242895" y="-121.70299464242895" width="243.4059892848579" height="243.4059892848579" />
            <rect x="-21.928285313699295" y="-21.928285313699295" width="43.85657062739859" height="43.85657062739859" />
            <rect x="-4.201491661705053" y="-4.201491661705053" width="8.402983323410107" height="8.402983323410107" />
            <rect x="-55.96309860496232" y="-55.96309860496232" width="111.92619720992464" height="111.92619720992464" />
            <rect x="-29.870084986520787" y="-29.870084986520787" width="59.740169973041574" height="59.740169973041574" />
            <rect x="-48.23970090361801" y="-48.23970090361801" width="96.47940180723602" height="96.47940180723602" />
            <rect x="-123.68513783870796" y="-123.68513783870796" width="247.37027567741592" height="247.37027567741592" />
          </g>
          <g transform="translate(75 0) scale(0.5 1)">
            <rect x="-8.347953220882372" y="-8.347953220882372" width="16.695906441764745" height="16.695906441764745" />
            <rect x="-118.49419403786749" y="-118.49419403786749" width="236.98838807573497" height="236.98838807573497" />
            <rect x="-9.710355456546486" y="-9.710355456546486" width="19.42071091309297" height="19.42071091309297" />
            <rect x="-67.2381760615398" y="-67.2381760615398" width="134.4763521230796" height="134.4763521230796" />
            <rect x="-60.83876225991161" y="-60.83876225991161" width="121.67752451982322" height="121.67752451982322" />
            <rect x="-67.68376356411812" y="-67.68376356411812" width="135.36752712823625" height="135.36752712823625" />
            <rect x="-72.37741436300675" y="-72.37741436300675" width="144.7548287260135" height="144.7548287260135" />
            <rect x="-67.380271361984" y="-67.380271361984" width="134.760542723968" height="134.760542723968" />
            <rect x="-19.48056498627883" y="-19.48056498627883" width="38.96112997255766" height="38.96112997255766" />
            <rect x="-116.09217705057284" y="-116.09217705057284" width="232.1843541011457" height="232.1843541011457" />
            <rect x="-22.631678122838284" y="-22.631678122838284" width="45.26335624567657" height="45.26335624567657" />
            <rect x="-50.47633277426117" y="-50.47633277426117" width="100.95266554852233" height="100.95266554852233" />
            <rect x="-91.73647967832532" y="-91.73647967832532" width="183.47295935665065" height="183.47295935665065" />
            <rect x="-104.67404503113369" y="-104.67404503113369" width="209.34809006226737" height="209.34809006226737" />
            <rect x="-0.5492687236155758" y="-0.5492687236155758" width="1.0985374472311515" height="1.0985374472311515" />
          </g>
        </g>
        <g transform="translate(0 -75) scale(1 0.5)">
          <g transform="translate(-75 0) scale(0.5 1)">
            <rect x="-30.013638705199366" y="-30.013638705199366" width="60.02727741039873" height="60.02727741039873" />
            <rect x="-68.43722849747317" y="-68.43722849747317" width="136.87445699494634" height="136.87445699494634" />
            <rect x="-15.003486958481874" y="-15.003486958481874" width="30.006973916963748" height="30.006973916963748" />
            <rect x="-1.264738906316551" y="-1.264738906316551" width="2.529477812633102" height="2.529477812633102" />
            <rect x="-16.67280832304277" y="-16.67280832304277" width="33.34561664608554" height="33.34561664608554" />
            <rect x="-76.93317465172272" y="-76.93317465172272" width="153.86634930344545" height="153.86634930344545" />
            <rect x="-3.968862481996474" y="-3.968862481996474" width="7.937724963992948" height="7.937724963992948" />
            <rect x="-41.995498915480766" y="-41.995498915480766" width="83.99099783096153" height="83.99099783096153" />
            <rect x="-116.4869222124751" y="-116.4869222124751" width="232.9738444249502" height="232.9738444249502" />
            <rect x="-66.11472449523554" y="-66.11472449523554" width="132.22944899047107" height="132.22944899047107" />
            <rect x="-53.99109296922981" y="-53.99109296922981" width="107.98218593845962" height="107.98218593845962" />
            <rect x="-76.70346371060832" y="-76.70346371060832" width="153.40692742121664" height="153.40692742121664" />
            <rect x="-113.98552554036063" y="-113.98552554036063" width="227.97105108072125" height="227.97105108072125" />
            <rect x="-122.1002686147779" y="-122.1002686147779" width="244.2005372295558" height="244.2005372295558" />
            <rect x="-104.05841054162572" y="-104.05841054162572" width="208.11682108325144" height="208.11682108325144" />
          </g>
          <g transform="translate(75 0) scale(0.5 1)">
            <rect x="-113.19487149660503" y="-113.19487149660503" width="226.38974299321006" height="226.38974299321006" />
            <rect x="-82.02449704047088" y="-82.02449704047088" width="164.04899408094175" height="164.04899408094175" />
            <rect x="-61.177780891191524" y="-61.177780891191524" width="122.35556178238305" height="122.35556178238305" />
            <rect x="-35.494613002346156" y="-35.494613002346156" width="70.98922600469231" height="70.98922600469231" />
            <rect x="-69.49446846129955" y="-69.49446846129955" width="138.9889369225991" height="138.9889369225991" />
            <rect x="-43.50163980373203" y="-43.50163980373203" width="87.00327960746407" height="87.00327960746407" />
            <rect x="-50.615122185365124" y="-50.615122185365124" width="101.23024437073025" height="101.23024437073025" />
            <rect x="-88.95730666607903" y="-88.95730666607903" width="177.91461333215807" height="177.91461333215807" />
            <rect x="-55.274521008551986" y="-55.274521008551986" width="110.54904201710397" height="110.54904201710397" />
            <rect x="-3.4312368987274717" y="-3.4312368987274717" width="6.8624737974549435" height="6.8624737974549435" />
            <rect x="-83.11552488856856" y="-83.11552488856856" width="166.23104977713712" height="166.23104977713712" />
            <rect x="-56.56975995191599" y="-56.56975995191599" width="113.13951990383198" height="113.13951990383198" />
            <rect x="-80.09932661233849" y="-80.09932661233849" width="160.19865322467697" height="160.19865322467697" />
            <rect x="-112.66210322126871" y="-112.66210322126871" width="225.32420644253742" height="225.32420644253742" />
            <rect x="-86.59009755263835" y="-86.59009755263835" width="173.1801951052767" height="173.1801951052767" />
          </g>
        </g>
      </g>
    </g>
    <g transform="translate(0 -75) scale(1 0.5)">
      <g transform="translate(-75 0) scale(0.5 1)">
        <g transform="translate(0 75) scale(1 0.5)">
          <g transform="translate(-75 0) scale(0.5 1)">
            <rect x="-24.08069664102501" y="-24.08069664102501" width="48.16139328205002" height="48.16139328205002" />
            <rect x="-3.2530771169012596" y="-3.2530771169012596" width="6.506154233802519" height="6.506154233802519" />
            <rect x="-70.50555867008525" y="-70.50555867008525" width="141.0111173401705" height="141.0111173401705" />
            <rect x="-42.329095289522364" y="-42.329095289522364" width="84.65819057904473" height="84.65819057904473" />
            <rect x="-80.7086290640969" y="-80.7086290640969" width="161.4172581281938" height="161.4172581281938" />
            <rect x="-1.97732047700111" y="-1.97732047700111" width="3.95464095400222" height="3.95464095400222" />
            <rect x="-1.4789760965625147" y="-1.4789760965625147" width="2.9579521931250294" height="2.9579521931250294" />
            <rect x="-65.63787324101835" y="-65.63787324101835" width="131.2757464820367" height="131.2757464820367" />
            <rect x="-73.91702850707368" y="-73.91702850707368" width="147.83405701414736" height="147.83405701414736" />
            <rect x="-5.432633332173184" y="-5.432633332173184" width="10.865266664346368" height="10.865266664346368" />
            <rect x="-124.26029336763528" y="-124.26029336763528" width="248.52058673527057" height="248.52058673527057" />
            <rect x="-40.83118119860273" y="-40.83118119860273" width="81.66236239720546" height="81.66236239720546" />
            <rect x="-68.4894507191371" y="-68.4894507191371" width="136.9789014382742" height="136.9789014382742" />
            <rect x="-52.434599478815805" y="-52.434599478815805" width="104.86919895763161" height="104.86919895763161" />
            <rect x="-64.54343867074193" y="-64.54343867074193" width="129.08687734148387" height="129.08687734148387" />
          </g>
          <g transform="translate(75 0) scale(0.5 1)">
            <rect x="-61.99735272964084" y="-61.99735272964084" width="123.99470545928168" height="123.99470545928168" />
            <rect x="-57.87736469751892" y="-57.87736469751892" width="115.75472939503784" height="115.75472939503784" />
            <rect x="-106.95975889006169" y="-106.95975889006169" width="213.91951778012339" height="213.91951778012339" />
            <rect x="-40.755463460018156" y="-40.755463460018156" width="81.51092692003631" height="81.51092692003631" />
            <rect x="-106.76543506688003" y="-106.76543506688003" width="213.53087013376006" height="213.53087013376006" />
            <rect x="-79.76977182957842" y="-79.76977182957842" width="159.53954365915683" height="159.53954365915683" />
            <rect x="-29.20323833509228" y="-29.20323833509228" width="58.40647667018456" height="58.40647667018456" />
            <rect x="-103.48805412098413" y="-103.48805412098413" width="206.97610824196826" height="206.97610824196826" />
            <rect x="-53.84793045720916" y="-53.84793045720916" width="107.69586091441832" height="107.69586091441832" />
            <rect x="-37.97815520350927" y="-37.97815520350927" width="75.95631040701853" height="75.95631040701853" />
            <rect x="-42.91923695033224" y="-42.91923695033224" width="85.83847390066448" height="85.83847390066448" />
            <rect x="-111.96279804424343" y="-111.96279804424343" width="223.92559608848686" height="223.92559608848686" />
            <rect x="-32.3306498333278" y="-32.3306498333278" width="64.6612996666556" height="64.6612996666556" />
            <rect x="-78.7949040636" y="-78.7949040636" width="157.5898081272" height="157.5898081272" />
            <rect x="-102.56062870570541" y="-102.56062870570541" width="205.12125741141082" height="205.12125741141082" />
          </g>
        </g>
        <g transform="translate(0 -75) scale(1 0.5)">
          <g transform="translate(-75 0) scale(0.5 1)">
            <rect x="-108.7746078934285" y="-108.7746078934285" width="217.549215786857" height="217.549215786857" />
            <rect x="-48.399150401525525" y="-48.399150401525525" width="96.79830080305105" height="96.79830080305105" />
            <rect x="-116.03628889256535" y="-116.03628889256535" width="232.0725777851307" height="232.0725777851307" />
            <rect x="-103.62777580641216" y="-103.62777580641216" width="207.25555161282432" height="207.25555161282432" />
            <rect x="-105.08128258047527" y="-105.08128258047527" width="210.16256516095055" height="210.16256516095055" />
            <rect x="-121.46873400578076" y="-121.46873400578076" width="242.93746801156152" height="242.93746801156152" />
            <rect x="-108.9816610318435" y="-108.9816610318435" width="217.963322063687" height="217.963322063687" />
            <rect x="-88.38826212671015" y="-88.38826212671015" width="176.7765242534203" height="176.7765242534203" />
            <rect x="-36.632355188248646" y="-36.632355188248646" width="73.26471037649729" height="73.26471037649729" />
            <rect x="-120.93166751897029" y="-120.93166751897029" width="241.86333503794057" height="241.86333503794057" />
            <rect x="-124.33450664969975" y="-124.33450664969975" width="248.6690132993995" height="248.6690132993995" />
            <rect x="-55.89532348570701" y="-55.89532348570701" width="111.79064697141402" height="111.79064697141402" />
            <rect x="-72.89904847294092" y="-72.89904847294092" width="145.79809694588184" height="145.79809694588184" />
            <rect x="-84.15090603358259" y="-84.15090603358259" width="168.30181206716517" height="168.30181206716517" />
            <rect x="-17.501434041457195" y="-17.501434041457195" width="35.00286808291439" height="35.00286808291439" />
          </g>
          <g transform="translate(75 0) scale(0.5 1)">
            <rect x="-90.28548314648292" y="-90.28548314648292" width="180.57096629296584" height="180.57096629296584" />
            <rect x="-16.58421360131454" y="-16.58421360131454" width="33.16842720262908" height="33.16842720262908" />
            <rect x="-65.85484725230512" y="-65.85484725230512" width="131.70969450461024" height="131.70969450461024" />
            <rect x="-32.60959431850254" y="-32.60959431850254" width="65.21918863700508" height="65.21918863700508" />
            <rect x="-103.64902626152671" y="-103.64902626152671" width="207.29805252305343" height="207.29805252305343" />
            <rect x="-51.01253226762627" y="-51.01253226762627" width="102.02506453525254" height="102.02506453525254" />
            <rect x="-105.08195129525507" y="-105.08195129525507" width="210.16390259051013" height="210.16390259051013" />
            <rect x="-116.91587132652467" y="-116.91587132652467" width="233.83174265304933" height="233.83174265304933" />
            <rect x="-76.17062433312546" y="-76.17062433312546" width="152.34124866625092" height="152.34124866625092" />
            <rect x="-112.03383373993032" y="-112.03383373993032" width="224.06766747986063" height="224.06766747986063" />
            <rect x="-93.11418488753262" y="-93.11418488753262" width="186.22836977506523" height="186.22836977506523" />
            <rect x="-121.5203331859804" y="-121.5203331859804" width="243.0406663719608" height="243.0406663719608" />
            <rect x="-22.448287014252443" y="-22.448287014252443" width="44.89657402850489" height="44.89657402850489" />
            <rect x="-0.8716052548293218" y="-0.8716052548293218" width="1.7432105096586437" height="1.7432105096586437" />
            <rect x="-62.59116182115497" y="-62.59116182115497" width="125.18232364230994" height="125.18232364230994" />
          </g>
        </g>
      </g>
      <g transform="translate(75 0) scale(0.5 1)">
        <g transform="translate(0 75) scale(1 0.5)">
          <g transform="translate(-75 0) scale(0.5 1)">
            <rect x="-64.13862320331698" y="-64.13862320331698" width="128.27724640663396" height="128.27724640663396" />
            <rect x="-98.7517006027422" y="-98.7517006027422" width="197.5034012054844" height="197.5034012054844" />
            <rect x="-7.905446597213539" y="-7.905446597213539" width="15.810893194427077" height="15.810893194427077" />
            <rect x="-110.20923598357705" y="-110.20923598357705" width="220.4184719671541" height="220.4184719671541" />
            <rect x="-106.61546464488626" y="-106.61546464488626" width="213.23092928977252" height="213.23092928977252" />
            <rect x="-44.95060385639593" y="-44.95060385639593" width="89.90120771279186" height="89.90120771279186" />
            <rect x="-116.75242458916117" y="-116.75242458916117" width="233.50484917832233" height="233.50484917832233" />
            <rect x="-53.41384679099437" y="-53.41384679099437" width="106.82769358198874" height="106.82769358198874" />
            <rect x="-55.66404659429745" y="-55.66404659429745" width="111.3280931885949" height="111.3280931885949" />
            <rect x="-118.52504450428847" y="-118.52504450428847" width="237.05008900857695" height="237.05008900857695" />
            <rect x="-99.54460085512368" y="-99.54460085512368" width="199.08920171024735" height="199.08920171024735" />
            <rect x="-28.330103113138286" y="-28.330103113138286" width="56.66020622627657" height="56.66020622627657" />
            <rect x="-45.36681134685268" y="-45.36681134685268" width="90.73362269370536" height="90.73362269370536" />
            <rect x="-47.597809224469586" y="-47.597809224469586" width="95.19561844893917" height="95.19561844893917" />
            <rect x="-27.95159398235139" y="-27.95159398235139" width="55.90318796470278" height="55.90318796470278" />
          </g>
          <g transform="translate(75 0) scale(0.5 1)">
            <rect x="-24.82256493743297" y="-24.82256493743297" width="49.64512987486594" height="49.64512987486594" />
            <rect x="-42.137682347673" y="-42.137682347673" width="84.275364695346" height="84.275364695346" />
            <rect x="-99.85843485396184" y="-99.85843485396184" width="199.71686970792368" height="199.71686970792368" />
            <rect x="-19.125489036897495" y="-19.125489036897495" width="38.25097807379499" height="38.25097807379499" />
            <rect x="-85.14451816511136" y="-85.14451816511136" width="170.28903633022273" height="170.28903633022273" />
            <rect x="-26.591906804332837" y="-26.591906804332837" width="53.18381360866567" height="53.18381360866567" />
            <rect x="-1.3305786706338392" y="-1.3305786706338392" width="2.6611573412676783" height="2.6611573412676783" />
            <rect x="-6.0159241714084075" y="-6.0159241714084075" width="12.031848342816815" height="12.031848342816815" />
            <rect x="-53.943123076603634" y="-53.943123076603634" width="107.88624615320727" height="107.88624615320727" />
            <rect x="-50.09248870062799" y="-50.09248870062799" width="100.18497740125598" height="100.18497740125598" />
            <rect x="-122.48676962489293" y="-122.48676962489293" width="244.97353924978586" height="244.97353924978586" />
            <rect x="-35.63716142241145" y="-35.63716142241145" width="71.2743228448229" height="71.2743228448229" />
            <rect x="-101.12825356066348" y="-101.12825356066348" width="202.25650712132696" height="202.25650712132696" />
            <rect x="-66.88667214109675" y="-66.88667214109675" width="133.7733442821935" height="133.7733442821935" />
            <rect x="-22.548711684657246" y="-22.548711684657246" width="45.09742336931449" height="45.09742336931449" />
          </g>
        </g>
        <g transform="translate(0 -75) scale(1 0.5)">
          <g transform="translate(-75 0) scale(0.5 1)">
            <rect x="-18.796485677672933" y="-18.796485677672933" width="37.59297135534587" height="37.59297135534587" />
            <rect x="-90.02338534117595" y="-90.02338534117595" width="180.0467706823519" height="180.0467706823519" />
            <rect x="-31.757287283625978" y="-31.757287283625978" width="63.514574567251955" height="63.514574567251955" />
            <rect x="-110.02811269396784" y="-110.02811269396784" width="220.05622538793568" height="220.05622538793568" />
            <rect x="-10.253809894287953" y="-10.253809894287953" width="20.507619788575905" height="20.507619788575905" />
            <rect x="-67.08364647635973" y="-67.08364647635973" width="134.16729295271946" height="134.16729295271946" />
            <rect x="-33.25705583946917" y="-33.25705583946917" width="66.51411167893833" height="66.51411167893833" />
            <rect x="-50.73789893091217" y="-50.73789893091217" width="101.47579786182435" height="101.47579786182435" />
            <rect x="-109.89326756277231" y="-109.89326756277231" width="219.78653512554462" height="219.78653512554462" />
            <rect x="-67.15912962518001" y="-67.15912962518001" width="134.31825925036003" height="134.31825925036003" />
            <rect x="-78.43390138895846" y="-78.43390138895846" width="156.86780277791692" height="156.86780277791692" />
            <rect x="-94.34744867477328" y="-94.34744867477328" width="188.69489734954655" height="188.69489734954655" />
            <rect x="-54.70626300269808" y="-54.70626300269808" width="109.41252600539616" height="109.41252600539616" />
            <rect x="-23.26649646256933" y="-23.26649646256933" width="46.53299292513866" height="46.53299292513866" />
            <rect x="-6.662866665452253" y="-6.662866665452253" width="13.325733330904505" height="13.325733330904505" />
          </g>
          <g transform="translate(75 0) scale(0.5 1)">
            <rect x="-83.43667831472052" y="-83.43667831472052" width="166.87335662944105" height="166.87335662944105" />
            <rect x="-33.323797912118955" y="-33.323797912118955" width="66.64759582423791" height="66.64759582423791" />
            <rect x="-4.217838468892135" y="-4.217838468892135" width="8.43567693778427" height="8.43567693778427" />
            <rect x="-67.13276386802426" y="-67.13276386802426" width="134.2655277360485" height="134.2655277360485" />
            <rect x="-47.5129998194051" y="-47.5129998194051" width="95.0259996388102" height="95.0259996388102" />
            <rect x="-118.37540341665245" y="-118.37540341665245" width="236.7508068333049" height="236.7508068333049" />
            <rect x="-104.2934055911892" y="-104.2934055911892" width="208.5868111823784" height="208.5868111823784" />
            <rect x="-50.427018958333555" y="-50.427018958333555" width="100.85403791666711" height="100.85403791666711" />
            <rect x="-40.893260585512095" y="-40.893260585512095" width="81.78652117102419" height="81.78652117102419" />
            <rect x="-69.82709175939765" y="-69.82709175939765" width="139.6541835187953" height="139.6541835187953" />
            <rect x="-99.06793949765989" y="-99.06793949765989" width="198.13587899531979" height="198.13587899531979" />
            <rect x="-90.3634805381909" y="-90.3634805381909" width="180.7269610763818" height="180.7269610763818" />
            <rect x="-27.2710991522678" y="-27.2710991522678" width="54.5421983045356" height="54.5421983045356" />
            <rect x="-16.610164817865257" y="-16.610164817865257" width="33.220329635730515" height="33.220329635730515" />
            <rect x="-93.1073542799057" y="-93.1073542799057" width="186.2147085598114" height="186.2147085598114" />
          </g>
        </g>
      </g>
    </g>
  </g>
</g>
</svg>
