<svg width="300" height="300" viewBox="-150 -150 300 300" fill="none" stroke="black" xmlns="http://www.w3.org/2000/svg" xmlns:xlink="http://www.w3.org/1999/xlink">
<g transform="scale(1 -1)">
  <g>
    <g transform="translate(0 75) scale(1 0.5)">
      <g transform="translate(-75 0) scale(0.5 1)">
        <g transform="translate(0 75) scale(1 0.5)">
          <g transform="translate(-75 0) scale(0.5 1)">
            <circle cx="0" cy="0" r="77.65435135206528" />
            <circle cx="0" cy="0" r="48.34890260715752" />
            <circle cx="0" cy="0" r="21.68580906455181" />
            <circle cx="0" cy="0" r="93.96245130356459" />
            <circle cx="0" cy="0" r="97.84710021691869" />
            <circle cx="0" cy="0" r="124.33105690905042" />
            <circle cx="0" cy="0" r="2.396954940520585" />
            <circle cx="0" cy="0" r="29.525849699060693" />
            <circle cx="0" cy="0" r="91.82955255288792" />
            <circle cx="0" cy="0" r="106.5024782391713" />
          </g>
          <g transform="translate(75 0) scale(0.5 1)">
            <circle cx="0" cy="0" r="78.24626624193402" />
            <circle cx="0" cy="0" r="26.469179493244233" />
            <circle cx="0" cy="0" r="10.27174067204438" />
            <circle cx="0" cy="0" r="1.4415738779785248" />
            <circle cx="0" cy="0" r="70.94066112727002" />
            <circle cx="0" cy="0" r="67.66914303252098" />
            <circle cx="0" cy="0" r="109.42079249156488" />
            <circle cx="0" cy="0" r="106.48255795713403" />
            <circle cx="0" cy="0" r="7.66408177253812" />
            <circle cx="0" cy="0" r="30.81998593703024" />
          </g>
        </g>
        <g transform="translate(0 -75) scale(1 0.5)">
          <g transform="translate(-75 0) scale(0.5 1)">
            <circle cx="0" cy="0" r="95.09570715654232" />
            <circle cx="0" cy="0" r="44.433089799939275" />
            <circle cx="0" cy="0" r="122.25184833054712" />
            <circle cx="0" cy="0" r="16.096727904449036" />
            <circle cx="0" cy="0" r="51.80144504236714" />
            <circle cx="0" cy="0" r="107.96509501960676" />
            <circle cx="0" cy="0" r="95.6627346965525" />
            <circle cx="0" cy="0" r="106.51832703808155" />
            <circle cx="0" cy="0" r="38.17792866467495" />
            <circle cx="0" cy="0" r="90.65070923787961" />
          </g>
          <g transform="translate(75 0) scale(0.5 1)">
            <circle cx="0" cy="0" r="89.73356912937399" />
            <circle cx="0" cy="0" r="20.661122414685444" />
            <circle cx="0" cy="0" r="110.34142378441679" />
            <circle cx="0" cy="0" r="63.2294210591462" />
            <circle cx="0" cy="0" r="9.715717156055833" />
            <circle cx="0" cy="0" r="52.5121897456971" />
            <circle cx="0" cy="0" r="105.0834876564334" />
            <circle cx="0" cy="0" r="91.56248209890894" />
            <circle cx="0" cy="0" r="24.591791485582203" />
            <circle cx="0" cy="0" r="34.60364384553523" />
          </g>
        </g>
      </g>
      <g transform="translate(75 0) scale(0.5 1)">
        <g transform="translate(0 75) scale(1 0.5)">
          <g transform="translate(-75 0) scale(0.5 1)">
            <circle cx="0" cy="0" r="113.76069216181102" />
            <circle cx="0" cy="0" r="23.420805039082754" />
            <circle cx="0" cy="0" r="74.50744228006589" />
            <circle cx="0" cy="0" r="25.35114121877731" />
            <circle cx="0" cy="0" r="58.15287672781896" />
            <circle cx="0" cy="0" r="84.63560409149586" />
            <circle cx="0" cy="0" r="55.038633213787044" />
            <circle cx="0" cy="0" r="108.7218866194526" />
            <circle cx="0" cy="0" r="107.13152322127391" />
            <circle cx="0" cy="0" r="15.407381777456042" />
          </g>
          <g transform="translate(75 0) scale(0.5 1)">
            <circle cx="0" cy="0" r="88.18470810359499" />
            <circle cx="0" cy="0" r="111.91963670375135" />
            <circle cx="0" cy="0" r="53.17686790214578" />
            <circle cx="0" cy="0" r="119.00666543982695" />
            <circle cx="0" cy="0" r="103.79062728718796" />
            <circle cx="0" cy="0" r="85.57162455374097" />
            <circle cx="0" cy="0" r="23.599400314926385" />
            <circle cx="0" cy="0" r="92.43274177032669" />
            <circle cx="0" cy="0" r="108.01367711794244" />
            <circle cx="0" cy="0" r="103.16268993223754" />
          </g>
        </g>
        <g transform="translate(0 -75) scale(1 0.5)">
          <g transform="translate(-75 0) scale(0.5 1)">
            <circle cx="0" cy="0" r="77.23713493773502" />
            <circle cx="0" cy="0" r="2.2167423891053946" />
            <circle cx="0" cy="0" r="47.878435199383425" />
            <circle cx="0" cy="0" r="43.068892517740736" />
            <circle cx="0" cy="0" r="66.64672116093173" />
            <circle cx="0" cy="0" r="5.985266842217965" />
            <circle cx="0" cy="0" r="121.6388835779503" />
            <circle cx="0" cy="0" r="121.82064531846868" />
            <circle cx="0" cy="0" r="37.14735033334528" />
            <circle cx="0" cy="0" r="4.633874504483354" />
          </g>
          <g transform="translate(75 0) scale(0.5 1)">
            <circle cx="0" cy="0" r="2.6701918568549923" />
            <circle cx="0" cy="0" r="17.01800625393271" />
            <circle cx="0" cy="0" r="9.631508432913009" />
            <circle cx="0" cy="0" r="56.368664402316206" />
            <circle cx="0" cy="0" r="68.73477539827748" />
            <circle cx="0" cy="0" r="59.60488259751601" />
            <circle cx="0" cy="0" r="58.008030024334886" />
            <circle cx="0" cy="0" r="73.10216227714027" />
            <circle cx="0" cy="0" r="107.31399669882767" />
            <circle cx="0" cy="0" r="104.20560036695963" />
          </g>
        </g>
      </g>
    </g>
    <g transform="translate(0 -75) scale(1 0.5)">
      <g transform="translate(-75 0) scale(0.5 1)">
        <g transform="translate(0 75) scale(1 0.5)">
          <g transform="translate(-75 0) scale(0.5 1)">
            <circle cx="0" cy="0" r="32.18248672281455" />
            <circle cx="0" cy="0" r="86.58256307906998" />
            <circle cx="0" cy="0" r="38.91184135862277" />
            <circle cx="0" cy="0" r="72.05532008258034" />
            <circle cx="0" cy="0" r="13.691028019925778" />
            <circle cx="0" cy="0" r="87.81544067985038" />
            <circle cx="0" cy="0" r="45.72668710951287" />
            <circle cx="0" cy="0" r="121.7832194812265" />
            <circle cx="0" cy="0" r="42.35594582067877" />
            <circle cx="0" cy="0" r="87.68025844330664" />
          </g>
          <g transform="translate(75 0) scale(0.5 1)">
            <circle cx="0" cy="0" r="25.42704871603825" />
            <circle cx="0" cy="0" r="83.3396608409095" />
            <circle cx="0" cy="0" r="37.92634180484669" />
            <circle cx="0" cy="0" r="59.086047358775915" />
            <circle cx="0" cy="0" r="63.31586897789794" />
            <circle cx="0" cy="0" r="39.46426236626134" />
            <circle cx="0" cy="0" r="115.31374917976319" />
            <circle cx="0" cy="0" r="2.081302647041039" />
            <circle cx="0" cy="0" r="50.42528913933879" />
            <circle cx="0" cy="0" r="6.0320050303649255" />
          </g>
        </g>
        <g transform="translate(0 -75) scale(1 0.5)">
          <g transform="translate(-75 0) scale(0.5 1)">
            <circle cx="0" cy="0" r="111.71916321216237" />
            <circle cx="0" cy="0" r="117.50094483003429" />
            <circle cx="0" cy="0" r="41.097204677724335" />
            <circle cx="0" cy="0" r="52.35362302263147" />
            <circle cx="0" cy="0" r="45.962170591439644" />
            <circle cx="0" cy="0" r="29.663250362159914" />
            <circle cx="0" cy="0" r="59.078313107522554" />
            <circle cx="0" cy="0" r="78.37552951223498" />
            <circle cx="0" cy="0" r="91.72534249040204" />
            <circle cx="0" cy="0" r="55.27617627468259" />
          </g>
          <g transform="translate(75 0) scale(0.5 1)">
            <circle cx="0" cy="0" r="56.73264725717815" />
            <circle cx="0" cy="0" r="21.162881381923793" />
            <circle cx="0" cy="0" r="53.31577882359494" />
            <circle cx="0" cy="0" r="52.26195220348852" />
            <circle cx="0" cy="0" r="92.23890738948397" />
            <circle cx="0" cy="0" r="85.46356305949948" />
            <circle cx="0" cy="0" r="82.08106559065592" />
            <circle cx="0" cy="0" r="9.632483123859032" />
            <circle cx="0" cy="0" r="72.44290416305071" />
            <circle cx="0" cy="0" r="51.76956024607993" />
          </g>
        </g>
      </g>
      <g transform="translate(75 0) scale(0.5 1)">
        <g transform="translate(0 75) scale(1 0.5)">
          <g transform="translate(-75 0) scale(0.5 1)">
            <circle cx="0" cy="0" r="72.28153002526633" />
            <circle cx="0" cy="0" r="80.98602807168677" />
            <circle cx="0" cy="0" r="75.84563527984407" />
            <circle cx="0" cy="0" r="14.632834371846204" />
            <circle cx="0" cy="0" r="51.69692568653178" />
            <circle cx="0" cy="0" r="51.01178235832749" />
            <circle cx="0" cy="0" r="103.50198590908536" />
            <circle cx="0" cy="0" r="56.09214773028415" />
            <circle cx="0" cy="0" r="0.21540960326160707" />
            <circle cx="0" cy="0" r="1.756542220295837" />
          </g>
          <g transform="translate(75 0) scale(0.5 1)">
            <circle cx="0" cy="0" r="49.264111835211956" />
            <circle cx="0" cy="0" r="70.89413254050585" />
            <circle cx="0" cy="0" r="0.10034819961635133" />
            <circle cx="0" cy="0" r="105.74938971072847" />
            <circle cx="0" cy="0" r="36.294335741986565" />
            <circle cx="0" cy="0" r="114.38599632988334" />
            <circle cx="0" cy="0" r="103.11072024672548" />
            <circle cx="0" cy="0" r="3.6394167728134446" />
            <circle cx="0" cy="0" r="49.307426675392065" />
            <circle cx="0" cy="0" r="27.521082501488824" />
          </g>
        </g>
        <g transform="translate(0 -75) scale(1 0.5)">
          <g transform="translate(-75 0) scale(0.5 1)">
            <circle cx="0" cy="0" r="61.61451042895341" />
            <circle cx="0" cy="0" r="39.08099039578164" />
            <circle cx="0" cy="0" r="68.76850127818331" />
            <circle cx="0" cy="0" r="62.00174946304629" />
            <circle cx="0" cy="0" r="28.05344946329999" />
            <circle cx="0" cy="0" r="83.85822564844183" />
            <circle cx="0" cy="0" r="35.20174142913271" />
            <circle cx="0" cy="0" r="81.5872237947564" />
            <circle cx="0" cy="0" r="74.56393515039744" />
            <circle cx="0" cy="0" r="81.6282868528734" />
          </g>
          <g transform="translate(75 0) scale(0.5 1)">
            <circle cx="0" cy="0" r="74.2139406265698" />
            <circle cx="0" cy="0" r="70.06052146607055" />
            <circle cx="0" cy="0" r="64.69659872778526" />
            <circle cx="0" cy="0" r="10.076612245582803" />
            <circle cx="0" cy="0" r="35.850505491310166" />
            <circle cx="0" cy="0" r="57.58968196256814" />
            <circle cx="0" cy="0" r="117.27439363891504" />
            <circle cx="0" cy="0" r="99.40055568685806" />
            <circle cx="0" cy="0" r="29.805539405471052" />
            <circle cx="0" cy="0" r="24.953054210498244" />
          </g>
        </g>
      </g>
    </g>
  </g>
</g>
</svg>
